<svg xmlns="http://www.w3.org/2000/svg" xmlns:xlink="http://www.w3.org/1999/xlink" width="1080" zoomAndPan="magnify" viewBox="0 0 810 809.999993" height="1080" preserveAspectRatio="xMidYMid meet" version="1.0"><defs><clipPath id="6df29c54bc"><path d="M 159.152344 143.09375 L 650 143.09375 L 650 666.59375 L 159.152344 666.59375 Z M 159.152344 143.09375 " clip-rule="nonzero"/></clipPath></defs><g clip-path="url(#6df29c54bc)"><path fill="#001527" d="M 647.53125 238.742188 C 647.53125 238.742188 647.523438 238.734375 647.523438 238.734375 L 647.53125 238.742188 C 648.03125 238.753906 648.535156 238.765625 649.039062 238.777344 C 649.90625 237.894531 649.59375 236.789062 649.472656 235.796875 C 648.859375 230.664062 646.386719 226.449219 642.839844 222.796875 C 642.015625 221.945312 640.816406 221.28125 641.171875 219.773438 C 640.796875 219.929688 640.425781 220.085938 640.050781 220.242188 C 640.425781 220.085938 640.796875 219.929688 641.171875 219.773438 C 641.925781 219.0625 642.679688 218.351562 643.4375 217.640625 C 648.820312 211.609375 650.816406 204.894531 647.761719 197.0625 C 646.429688 193.652344 645.269531 190.183594 646.445312 186.425781 C 646.707031 185.585938 646.324219 184.628906 645.476562 184.515625 C 642.433594 184.105469 642.609375 182.039062 642.8125 179.84375 C 642.882812 179.074219 642.976562 178.25 642.4375 177.5625 C 642.386719 177.34375 642.335938 177.128906 642.285156 176.914062 C 642.320312 176.855469 642.394531 176.792969 642.382812 176.746094 C 642.355469 176.625 642.292969 176.511719 642.246094 176.394531 C 642.246094 176.042969 642.257812 175.691406 642.25 175.339844 C 642.144531 172.265625 641.394531 171.800781 638.820312 173.347656 C 636.878906 174.515625 634.773438 175.503906 633.539062 177.59375 C 632.964844 178.558594 632.050781 178.742188 631.011719 178.363281 C 630.6875 177.742188 630.328125 177.179688 629.878906 176.78125 C 630.328125 177.179688 630.691406 177.742188 631.011719 178.363281 C 630.796875 177.375 631.007812 176.441406 631.464844 175.574219 C 632.15625 174.269531 633.058594 173.050781 633.03125 171.472656 C 633.960938 169.925781 633.40625 168.359375 633.101562 166.792969 C 633.222656 166.1875 633.316406 165.589844 632.683594 165.179688 C 632.636719 163.515625 632.625 161.851562 632.539062 160.191406 C 632.496094 159.371094 632.160156 158.632812 631.347656 158.292969 C 630.464844 157.925781 629.78125 158.453125 629.269531 159.042969 C 628.359375 160.089844 627.289062 161.042969 626.855469 162.433594 C 625.570312 162.570312 625.015625 163.4375 624.710938 164.558594 C 623.558594 165.410156 622.433594 166.28125 622 167.742188 C 619.597656 168.589844 619.035156 167.347656 619.191406 165.273438 C 619.617188 159.6875 618.738281 154.339844 616.214844 149.304688 C 616.21875 148.085938 615.652344 147.21875 614.449219 147.035156 C 613.058594 146.824219 612.722656 148.023438 612.324219 148.984375 C 610.765625 152.710938 609.203125 156.433594 607.722656 160.191406 C 607.300781 161.257812 607.121094 162.761719 605.832031 162.730469 C 604.410156 162.699219 604.210938 161.082031 603.785156 159.953125 C 603.632812 159.550781 603.605469 159.089844 603.5625 158.65625 C 603.117188 153.964844 601.441406 149.589844 600.089844 145.132812 C 599.769531 144.074219 599.367188 143.089844 598.023438 143.097656 C 596.730469 143.109375 596.1875 143.957031 595.90625 145.078125 C 594.910156 149.0625 593.886719 153.039062 592.925781 157.03125 C 592.695312 157.976562 592.675781 159.144531 591.585938 159.382812 C 590.503906 159.617188 590.492188 158.167969 589.753906 157.734375 C 589.726562 157.558594 589.699219 157.382812 589.671875 157.207031 C 589.792969 156.757812 589.757812 156.351562 589.320312 156.074219 C 589.320312 155.613281 589.214844 155.199219 588.816406 154.902344 C 588.691406 154.628906 588.566406 154.351562 588.441406 154.074219 C 587.902344 151.554688 586.714844 149.28125 585.714844 146.941406 C 585.234375 145.816406 585.097656 144.089844 583.222656 144.441406 C 581.605469 144.742188 581.503906 146.222656 581.234375 147.527344 C 580.558594 150.785156 580.34375 154.136719 579.1875 157.292969 C 577.515625 157.703125 575.984375 157.570312 574.761719 156.1875 C 574.195312 154.546875 572.453125 153.976562 571.527344 152.605469 C 570.128906 150.53125 568.613281 150.59375 567.238281 152.65625 C 566.472656 153.804688 565.964844 155.132812 565.324219 156.371094 C 564.925781 157.132812 564.65625 157.980469 563.730469 158.34375 C 559.367188 160.039062 558.738281 161.046875 559.054688 165.699219 C 558.988281 166.460938 558.472656 167.195312 558.871094 167.988281 C 558.71875 168.050781 558.566406 168.117188 558.414062 168.179688 C 557.523438 168.851562 556.652344 169.535156 556.273438 170.648438 C 553.769531 173.0625 553.472656 174.125 556.089844 176.207031 C 559.292969 178.753906 563.070312 180.5625 565.246094 184.296875 C 565.546875 184.8125 566.460938 184.953125 567.058594 185.320312 C 567.785156 185.761719 568.8125 185.773438 569.164062 186.757812 C 570.347656 187.242188 571.492188 187.425781 572.613281 187.429688 C 571.492188 187.425781 570.347656 187.242188 569.164062 186.757812 C 567.625 188.714844 565.320312 188.132812 563.308594 188.527344 C 562.109375 188.757812 560.828125 188.804688 560.066406 189.996094 C 557.144531 189.992188 554.578125 191.277344 552.089844 192.503906 C 541.703125 197.625 533.765625 205.722656 526.277344 214.300781 C 524.375 216.476562 522.542969 218.757812 520.992188 221.191406 C 515.929688 229.125 510.945312 237.105469 506.269531 245.273438 C 504.34375 248.636719 502.632812 252.085938 501.324219 255.734375 C 500.363281 257.503906 499.445312 259.300781 498.433594 261.042969 C 494.59375 267.660156 490.625 274.179688 486.183594 280.4375 C 483.1875 284.660156 479.722656 288.261719 475.871094 291.640625 C 473.109375 294.0625 469.726562 295.691406 467.3125 298.523438 C 465.816406 299.058594 464.242188 299.449219 463.144531 300.734375 C 460.355469 301.445312 457.730469 302.5625 455.207031 303.925781 C 452.410156 304.625 449.648438 305.617188 446.8125 305.972656 C 435.773438 307.371094 424.679688 308.15625 413.546875 308.15625 C 412.042969 308.15625 410.570312 308.230469 409.128906 308.6875 C 408.242188 308.6875 407.355469 308.683594 406.46875 308.683594 C 405.886719 308.511719 405.3125 308.25 404.71875 308.175781 C 397.089844 307.222656 389.417969 306.535156 381.914062 304.820312 C 367.152344 301.449219 352.183594 300.253906 337.085938 300.222656 C 336.378906 300.222656 335.671875 300.222656 334.964844 300.226562 C 334.617188 299.683594 334.265625 299.683594 333.902344 300.210938 C 332.84375 300.210938 331.785156 300.210938 330.722656 300.210938 C 329.839844 299.839844 328.960938 299.242188 328.074219 300.203125 C 326.238281 300.082031 324.414062 300.175781 322.558594 299.941406 C 317.542969 299.296875 312.945312 297.265625 308.128906 295.972656 C 300.191406 293.835938 292.601562 290.796875 286.023438 285.75 C 282.28125 282.878906 278.449219 280.144531 274.609375 277.414062 C 271.671875 273.957031 268.546875 270.78125 264.679688 268.25 C 260.445312 265.484375 256.183594 262.6875 253.027344 258.46875 C 251.851562 256.890625 250.90625 254.738281 248.652344 254.101562 C 248.15625 253.488281 247.597656 252.914062 247.171875 252.253906 C 242.511719 245.046875 236.207031 239.472656 229.179688 234.753906 C 222.425781 230.21875 214.617188 227.878906 206.992188 225.324219 C 203.238281 224.066406 199.125 223.859375 195.144531 225.058594 C 189.566406 224.84375 184.125 225.175781 178.914062 227.628906 C 173.5625 230.148438 169.859375 233.632812 169.765625 239.976562 C 169.722656 242.703125 167.9375 244.554688 165.933594 245.988281 C 164.835938 246.773438 164.488281 247.628906 164.34375 248.777344 C 161.746094 251.003906 160.816406 254.222656 159.5 257.175781 C 159.179688 257.890625 159.796875 259.03125 160.441406 259.804688 C 160.71875 260.140625 161.25 260.628906 161.164062 260.847656 C 159.726562 264.558594 163.535156 265.746094 164.859375 267.992188 C 165.820312 269.621094 166.503906 270.855469 165.691406 272.429688 C 163.578125 276.507812 164.53125 280.105469 166.808594 283.769531 C 167.621094 285.082031 169.105469 285.875 169.371094 287.652344 C 169.71875 289.96875 171.382812 291.347656 173.5 292.195312 C 173.613281 292.074219 173.730469 291.984375 173.851562 291.914062 C 173.726562 291.984375 173.613281 292.074219 173.5 292.195312 C 173.828125 292.394531 174.152344 292.597656 174.480469 292.800781 C 174.613281 292.839844 174.75 292.863281 174.886719 292.882812 C 174.75 292.863281 174.613281 292.835938 174.480469 292.800781 C 175.753906 295.183594 177.503906 297.132812 179.75 298.636719 C 179.921875 299.472656 179.773438 300.171875 178.929688 300.578125 C 178.832031 300.820312 178.730469 301.0625 178.632812 301.300781 C 178.730469 301.058594 178.832031 300.820312 178.929688 300.578125 C 178.195312 300.21875 177.804688 300.585938 177.542969 301.230469 C 176.703125 301.054688 175.863281 300.878906 175.023438 300.703125 C 174.378906 300.097656 174.050781 300.648438 173.6875 301.074219 C 173.265625 301.214844 172.84375 301.363281 172.421875 301.507812 C 171.136719 301.414062 170.207031 303.175781 168.777344 302.25 C 167.609375 301.492188 166.585938 302.382812 165.496094 302.441406 C 164.519531 302.492188 164.507812 303.300781 164.304688 303.933594 C 163.960938 304.996094 164.628906 305.339844 165.5 305.507812 C 165.945312 306.011719 166.390625 306.519531 166.832031 307.019531 C 166.597656 307.726562 166.957031 308.035156 167.59375 308.15625 C 169.003906 310.914062 170.753906 313.410156 173.101562 315.460938 C 172.894531 316.363281 173.054688 317.300781 172.074219 318.023438 C 169.875 319.65625 168.140625 321.679688 168.894531 324.710938 C 169.5 327.152344 170.300781 329.546875 171.027344 331.960938 C 171.039062 332 171.191406 331.996094 171.277344 332.015625 C 172.5 334.738281 174.980469 335.992188 177.429688 337.289062 C 178.113281 338.636719 179.261719 339.289062 180.726562 339.460938 C 181.066406 339.503906 181.410156 339.550781 181.75 339.597656 C 181.816406 339.417969 181.882812 339.238281 181.945312 339.058594 C 182.828125 339.046875 183.410156 338.910156 183.433594 338.472656 C 183.410156 338.910156 182.828125 339.050781 181.945312 339.058594 C 181.882812 339.238281 181.816406 339.417969 181.75 339.597656 C 181.777344 339.714844 181.839844 339.8125 181.9375 339.882812 C 182.074219 341.328125 181.945312 342.972656 184.160156 342.863281 C 184.785156 343.175781 185.414062 343.488281 186.039062 343.804688 C 186.105469 344.078125 186.167969 344.351562 186.234375 344.625 C 185.921875 350.164062 186.84375 351.660156 191.527344 353.210938 C 191.421875 354.921875 192.476562 355.347656 193.832031 355.019531 C 194.785156 354.789062 195.671875 354.671875 196.613281 354.894531 C 198.972656 357.847656 202.6875 360.492188 198.878906 364.851562 C 197.957031 365.347656 197.175781 366.152344 197.648438 367.128906 C 197.988281 367.832031 199.265625 367.699219 199.824219 367.339844 C 201.640625 366.175781 201.914062 368.261719 202.96875 368.640625 C 202.988281 368.964844 203.011719 369.289062 203.035156 369.613281 C 202.027344 371.476562 203.300781 371.640625 204.636719 371.761719 C 204.835938 372.097656 205.039062 372.433594 205.238281 372.765625 C 205.402344 372.773438 205.5625 372.777344 205.726562 372.785156 C 205.5625 372.777344 205.402344 372.773438 205.238281 372.765625 C 205.253906 373.660156 205.265625 374.554688 205.277344 375.453125 C 205.105469 376.164062 204.9375 376.875 204.761719 377.582031 C 204.734375 377.929688 204.703125 378.277344 204.671875 378.621094 C 203.820312 379.164062 203.121094 379.742188 204.175781 380.730469 C 206.230469 387.105469 213.402344 392.515625 219.464844 392.269531 C 220.792969 393.058594 220.695312 393.953125 219.8125 395.082031 C 215.980469 400 215.351562 406.292969 212.824219 411.796875 C 211.664062 414.320312 212.046875 417.671875 212.210938 420.625 C 212.304688 422.34375 212.355469 424.769531 215.246094 424.71875 C 215.574219 424.742188 215.90625 424.765625 216.234375 424.792969 C 219.996094 426.21875 222.996094 428.746094 225.839844 431.492188 C 225.945312 431.59375 226.171875 431.5625 226.34375 431.59375 C 226.375 432.109375 226.402344 432.625 226.433594 433.144531 C 226.9375 433.226562 227.578125 433.179688 228.023438 433.320312 C 227.582031 433.183594 226.933594 433.226562 226.433594 433.144531 C 225.710938 434.726562 225.183594 436.367188 223.855469 437.667969 C 222.976562 438.527344 222.539062 439.816406 224.1875 440.632812 C 224.746094 443.65625 226.988281 445.5 229.003906 447.5 C 230.019531 450.726562 232.605469 452.429688 235.417969 453.714844 C 237.214844 454.535156 237.257812 455.238281 236.082031 456.613281 C 233.335938 459.835938 231.824219 463.363281 233.683594 467.628906 C 233.875 468.074219 233.914062 468.789062 233.6875 469.175781 C 231.976562 472.089844 233.753906 473.539062 235.878906 475.058594 C 237.355469 476.113281 238.300781 478.242188 237.820312 479.5625 C 236.648438 482.796875 237.429688 486 237.09375 489.183594 C 237.007812 489.96875 237.347656 490.527344 238.078125 490.328125 C 241.410156 489.425781 239.699219 491.570312 239.476562 492.664062 C 239.304688 493.507812 238.851562 494.296875 238.523438 495.113281 C 237.765625 495.140625 237.246094 495.527344 236.90625 496.1875 C 235.808594 496.402344 235.792969 497.160156 236.082031 497.96875 C 236.3125 498.609375 236.914062 498.984375 237.535156 498.726562 C 238.433594 498.355469 238.976562 499.128906 239.621094 499.1875 C 241.804688 499.386719 240.976562 502.144531 242.738281 502.566406 C 242.738281 503.097656 242.738281 503.632812 242.734375 504.167969 C 242.085938 504.859375 241.953125 505.765625 242.796875 506.160156 C 245.019531 507.203125 246.464844 508.9375 247.746094 510.917969 C 248.117188 511.484375 248.800781 511.761719 249.414062 512.109375 C 250.980469 512.996094 252.292969 514.140625 252.515625 516.175781 C 252.734375 518.175781 255.28125 520.417969 257.375 520.542969 C 258.3125 520.601562 259.050781 520.65625 259.378906 521.757812 C 259.652344 522.679688 260.527344 522.710938 261.347656 522.664062 C 262.703125 523.539062 263.71875 524.605469 263.433594 526.402344 C 262.835938 526.800781 262.953125 527.417969 262.9375 528 C 262.28125 528.410156 261.238281 528.914062 261.679688 529.683594 C 262.238281 530.667969 263.25 529.941406 263.984375 529.539062 C 267.453125 527.625 271.53125 527.671875 273.554688 530.664062 C 276.847656 535.535156 282.042969 537.789062 286.347656 541.25 C 287.636719 542.285156 288.664062 543.628906 290.257812 544.332031 C 293.945312 545.957031 297.476562 547.820312 300.375 550.75 C 301.535156 551.921875 303.058594 552.71875 304.8125 552.816406 C 305.949219 553.855469 305.84375 555.207031 305.75 556.558594 C 304.90625 557.726562 304.523438 559.085938 304.332031 560.476562 C 303.605469 565.683594 303.273438 570.921875 303.148438 576.179688 C 302.492188 576.960938 302.390625 577.949219 302.242188 578.886719 C 301.5 583.484375 300.820312 588.089844 300.089844 592.6875 C 299.21875 598.144531 298.320312 603.601562 297.433594 609.058594 C 297.609375 610.449219 296.164062 611.378906 296.378906 612.777344 C 295.574219 613.976562 295.496094 615.375 295.242188 616.742188 C 294.042969 623.136719 292.8125 629.515625 286.183594 632.894531 C 285.699219 633.140625 285.441406 633.832031 285.078125 634.320312 C 284.601562 634.558594 284.128906 634.796875 283.652344 635.039062 C 280.121094 636.277344 276.582031 637.496094 273.058594 638.769531 C 270.429688 639.714844 267.785156 640.628906 265.226562 641.742188 C 263.257812 642.597656 263.1875 643.277344 264.59375 644.40625 C 266.34375 644.914062 267.960938 645.527344 269.488281 646.699219 C 273.488281 649.765625 275.765625 649.566406 279.75 646.414062 C 280.292969 645.984375 280.980469 645.738281 281.597656 645.410156 C 282.1875 645.277344 282.824219 645.246094 283.355469 644.992188 C 284.46875 644.457031 285.664062 643.871094 286.765625 644.601562 C 288.09375 645.476562 287.441406 646.921875 287.339844 648.167969 C 286.933594 651.027344 287.457031 653.847656 287.773438 656.667969 C 287.882812 657.648438 288.699219 658.65625 289.625 658.691406 C 292.917969 658.816406 294.144531 661.515625 296 663.441406 C 296.800781 664.273438 297.640625 665.019531 298.78125 665.339844 C 299.082031 665.835938 299.425781 666.234375 300.085938 665.910156 C 302.34375 666.523438 304.636719 666.039062 306.910156 666.140625 C 307.386719 666.765625 307.917969 666.710938 308.476562 666.253906 C 309.679688 666.433594 310.859375 666.890625 312.105469 666.550781 C 314.320312 666.28125 315.238281 665 314.378906 663.183594 C 314.042969 662.472656 313.539062 661.878906 313.835938 661.039062 C 315.410156 661.035156 316.984375 661.035156 318.5625 661.03125 C 318.816406 661.238281 319.074219 661.289062 319.339844 661.046875 C 319.542969 661.121094 319.746094 661.195312 319.949219 661.265625 C 324.289062 661.527344 328.625 661.597656 332.953125 661.054688 C 334.847656 661.175781 336.742188 661.296875 338.636719 661.417969 C 340.679688 662.082031 342.722656 662.164062 344.773438 661.460938 C 350.484375 661.839844 356.289062 660.980469 361.898438 662.742188 C 363.789062 663.796875 365.574219 663.4375 367.296875 662.316406 C 368.550781 662.082031 369.433594 661.207031 369.785156 660.152344 C 370.683594 657.449219 372.214844 658.320312 373.910156 659.136719 C 375.023438 659.671875 375.191406 661.023438 376.246094 661.5625 C 376.414062 662.152344 376.484375 662.800781 376.78125 663.316406 C 377.34375 664.277344 377.941406 665.699219 379.207031 665.320312 C 380.390625 664.96875 380.085938 663.457031 379.914062 662.488281 C 378.921875 656.929688 376.074219 652.878906 369.769531 652.546875 C 368.199219 652.464844 366.628906 652.371094 365.054688 652.28125 C 364.597656 652.023438 364.121094 651.996094 363.628906 652.160156 C 361.019531 650.925781 358.242188 651.371094 355.601562 651.695312 C 352.324219 652.101562 349.203125 652.019531 345.980469 651.273438 C 340.984375 650.113281 335.863281 649.851562 330.738281 649.941406 C 329.285156 649.625 327.972656 648.796875 326.4375 648.800781 C 326.304688 648.207031 326.203125 647.542969 325.425781 648.328125 C 324.894531 648.320312 324.363281 648.308594 323.832031 648.300781 C 323.664062 648.003906 323.511719 647.457031 323.324219 647.445312 C 320.457031 647.296875 317.800781 646.074219 314.992188 645.773438 C 312.5 645.507812 311.628906 644.046875 311.617188 641.90625 C 311.601562 639.546875 311.632812 637.191406 311.941406 634.816406 C 312.253906 632.445312 313.25 630.023438 312.238281 627.574219 C 312.289062 627.0625 312.339844 626.550781 312.386719 626.039062 C 313.734375 623.722656 313.339844 621.054688 313.566406 618.601562 C 314.378906 609.960938 316.105469 601.484375 317.53125 592.953125 C 318.261719 588.566406 319.570312 584.28125 319.863281 579.820312 C 320.40625 578.253906 320.945312 576.691406 321.488281 575.128906 C 321.714844 575.078125 321.742188 574.914062 321.742188 574.90625 C 323.066406 574.992188 324.511719 575.757812 325.523438 574.167969 C 326.355469 574.039062 327.1875 573.90625 328.023438 573.773438 C 328.753906 573.851562 329.484375 573.929688 330.214844 574.003906 C 331.003906 574.875 331.953125 574.523438 332.878906 574.363281 C 333.949219 574.597656 335.015625 574.691406 336.074219 574.324219 C 336.597656 574.328125 337.121094 574.332031 337.644531 574.339844 C 337.640625 574.34375 337.855469 574.464844 337.855469 574.464844 C 337.855469 574.464844 338.128906 574.507812 338.007812 574.457031 C 338.054688 574.453125 338.097656 574.453125 338.097656 574.453125 C 338.859375 574.523438 339.671875 574.820312 340.226562 573.972656 C 341.289062 573.609375 342.347656 573.246094 343.40625 572.882812 C 344.097656 573.003906 344.429688 572.625 344.601562 572.023438 C 346.402344 571.222656 347.902344 570.0625 349.136719 568.574219 C 349.515625 568.984375 349.042969 568.3125 349.90625 568.105469 C 350.890625 567.871094 350.234375 567.917969 350.9375 567.589844 C 351.414062 567.367188 351.710938 567.136719 352.089844 566.886719 C 353.777344 566.523438 355.457031 566.140625 357.15625 565.851562 C 358.652344 565.597656 359.902344 565.140625 360.871094 563.820312 C 361.785156 562.578125 363.074219 562.683594 364.394531 563.414062 C 365.957031 564.28125 367.496094 564.277344 369.035156 563.164062 C 369.863281 562.5625 370.949219 561.628906 371.859375 561.996094 C 374.34375 563.003906 375.097656 561.585938 375.730469 559.722656 C 378.078125 559.460938 380.316406 561.664062 382.730469 560.015625 C 383.148438 559.730469 383.609375 559.933594 383.90625 560.277344 C 385.714844 562.386719 388.265625 562.050781 390.625 562.351562 C 391.128906 562.5625 391.632812 562.777344 392.136719 562.988281 C 393.164062 565.792969 395.148438 565.527344 397.339844 564.609375 C 397.722656 566.488281 398.75 567.757812 400.691406 568.167969 C 401.019531 568.378906 401.347656 568.589844 401.675781 568.800781 C 402.117188 570.171875 403.34375 570.054688 404.414062 570.238281 C 406.449219 571.585938 408.484375 572.9375 410.519531 574.292969 C 411.203125 575.191406 412.03125 576.011719 412.542969 577 C 415.257812 582.238281 419.398438 586.40625 422.945312 591.019531 C 423.007812 592.050781 423.660156 592.648438 424.492188 593.109375 C 424.492188 593.109375 424.511719 593.136719 424.511719 593.136719 C 425.078125 594.125 425.59375 595.140625 426.214844 596.09375 C 431.386719 604 437.011719 611.609375 441.5 619.964844 C 442.636719 622.085938 443.355469 624.558594 445.429688 626.113281 C 445.480469 626.269531 445.546875 626.414062 445.636719 626.550781 C 447.15625 629.53125 448.378906 632.5625 447.953125 636.046875 C 447.824219 637.089844 448.363281 638.089844 449.246094 638.792969 C 449.339844 639.101562 449.433594 639.410156 449.527344 639.71875 C 449.339844 641.445312 448.289062 642.640625 446.894531 643.4375 C 442.8125 645.761719 438.632812 647.921875 434.558594 650.265625 C 432.136719 651.660156 429.742188 653.191406 428.507812 655.882812 C 428.1875 656.574219 427.898438 657.496094 428.710938 658.023438 C 429.378906 658.457031 430.066406 658.195312 430.371094 657.347656 C 429.949219 656.839844 429.761719 656.453125 429.734375 656.144531 C 429.761719 656.453125 429.949219 656.839844 430.371094 657.347656 C 430.9375 656.988281 431.699219 656.875 431.972656 656.125 C 433.167969 656.511719 434.359375 656.898438 435.554688 657.285156 C 438.917969 658.875 441.945312 658.175781 444.671875 655.175781 C 445.332031 655.03125 445.929688 654.785156 446.285156 654.160156 C 446.285156 654.160156 446.339844 654.121094 446.339844 654.121094 C 447.410156 654.144531 448.035156 653.355469 448.804688 652.804688 C 451.441406 650.917969 454.386719 650.859375 457.421875 651.453125 C 457.421875 651.453125 457.421875 651.453125 457.417969 651.453125 C 456.566406 655.207031 457.238281 656.351562 460.871094 657.5 C 462.355469 657.96875 463.613281 658.660156 464.683594 659.984375 C 466.152344 661.800781 467.988281 663.390625 470.613281 663.382812 C 470.894531 663.980469 471.222656 664.003906 471.601562 663.46875 C 472.289062 663.414062 472.976562 663.363281 473.664062 663.3125 C 475.300781 663.519531 476.941406 663.84375 478.523438 663.046875 C 479.757812 663.070312 480.992188 663.089844 482.226562 663.113281 C 484.398438 662.820312 485.320312 661.628906 484.3125 660.085938 C 483.613281 659.007812 483.765625 657.96875 483.664062 656.886719 C 490.109375 658.289062 496.546875 657.25 502.980469 656.800781 C 505.058594 656.898438 507.132812 656.996094 509.210938 657.089844 C 512.570312 657.988281 515.980469 657.476562 519.363281 657.40625 C 523.390625 657.328125 527.339844 657.429688 531.230469 658.753906 C 533.417969 659.496094 535.804688 659.96875 537.976562 658.410156 C 538.816406 658.214844 539.242188 657.527344 539.691406 656.902344 C 541.527344 654.351562 542.261719 654.355469 544.703125 656.386719 C 546.195312 657.628906 546.8125 659.550781 548.40625 660.65625 C 548.785156 661.242188 549.515625 662.515625 549.777344 661.078125 C 550.007812 659.816406 550.253906 658.210938 549.621094 656.816406 C 546.988281 651.023438 541.253906 647.890625 534.644531 648.636719 C 534.3125 648.636719 533.976562 648.632812 533.644531 648.632812 C 532.273438 647.953125 530.808594 647.84375 529.300781 647.761719 C 524.738281 647.511719 520.140625 648.429688 515.605469 647.257812 C 512.703125 646.507812 509.746094 646.207031 506.738281 646.109375 C 503.941406 646.015625 501.03125 645.980469 498.390625 645.195312 C 494.105469 643.917969 489.792969 643.414062 485.382812 643.328125 C 484.425781 641.894531 482.949219 642.585938 481.679688 642.414062 C 480.574219 640.207031 479.617188 637.917969 478.136719 635.917969 L 478.058594 635.984375 C 478.097656 635.953125 478.136719 635.917969 478.136719 635.917969 C 477.949219 635.605469 477.765625 635.289062 477.578125 634.972656 C 477.492188 634.660156 477.40625 634.351562 477.320312 634.039062 C 475.941406 630.378906 473.320312 627.957031 469.761719 626.472656 C 469.382812 626.246094 469.003906 626.015625 468.625 625.789062 C 468.386719 624.378906 467.1875 623.730469 466.296875 622.835938 C 465.546875 621.835938 465.257812 620.398438 463.75 620.105469 C 460.808594 615.078125 457.578125 610.226562 453.945312 605.6875 C 452.835938 604.296875 452.449219 602.253906 450.542969 601.511719 C 450.363281 601.335938 450.183594 601.164062 450.003906 600.992188 C 449.605469 600.320312 449.207031 599.652344 448.804688 598.980469 C 447.828125 597.042969 446.898438 595.074219 445.171875 593.648438 C 445.007812 593.460938 444.84375 593.277344 444.679688 593.089844 C 443.335938 589.304688 440.9375 586.171875 438.457031 583.089844 C 438.386719 582.371094 438.316406 581.65625 438.25 580.9375 C 438.21875 580.734375 438.183594 580.535156 438.152344 580.335938 C 438.152344 580.335938 438.152344 580.335938 438.15625 580.335938 C 438.183594 580.535156 438.21875 580.734375 438.25 580.9375 C 438.925781 580.765625 439.652344 580.707031 440.265625 580.40625 C 442.957031 579.078125 445.753906 577.839844 446.8125 574.640625 C 446.980469 574.472656 447.148438 574.300781 447.3125 574.128906 C 447.476562 574.136719 447.636719 574.117188 447.796875 574.074219 C 453.621094 570.90625 458.703125 567.054688 460.753906 560.3125 C 461.34375 558.378906 462.238281 556.539062 462.75 554.589844 C 463.203125 552.859375 464.339844 552.164062 465.882812 551.875 C 467.722656 551.53125 469.214844 550.550781 469.949219 548.933594 C 471.328125 545.90625 472.574219 542.796875 473.597656 539.632812 C 474.414062 537.121094 475.566406 534.519531 473.585938 531.878906 C 472.894531 530.960938 473.402344 529.675781 473.394531 528.546875 C 473.363281 525.578125 475.527344 523.367188 475.898438 520.574219 C 479.28125 516.617188 483.804688 514.234375 488.171875 511.601562 C 494.332031 507.890625 500.777344 504.652344 506.660156 500.464844 C 508.210938 499.359375 510.304688 499.007812 511.832031 497.878906 C 514.75 495.722656 517.871094 494.128906 521.335938 493.09375 C 525.730469 491.78125 529.65625 489.453125 533.597656 487.179688 C 536.382812 486.183594 537.730469 483.472656 539.996094 481.816406 C 547.132812 476.601562 553.34375 470.460938 558.339844 463.101562 C 563.492188 455.507812 567.652344 447.355469 572.074219 439.347656 C 575.308594 433.484375 578.433594 427.566406 581.675781 421.710938 C 585 415.699219 588.46875 409.773438 591.121094 403.402344 C 593.160156 398.511719 594.546875 393.425781 596.167969 388.410156 C 598.683594 380.625 602.75 373.410156 604.5625 365.371094 C 604.742188 364.839844 604.921875 364.308594 605.105469 363.773438 C 607.78125 356.9375 609.765625 349.925781 610.484375 342.589844 C 611.035156 342.183594 610.941406 341.582031 610.953125 341.015625 C 610.378906 338.75 612.53125 336.910156 611.949219 334.644531 C 612.945312 333.714844 612.394531 332.527344 612.480469 331.449219 C 612.40625 328.226562 613.035156 325.085938 613.574219 321.9375 C 613.363281 321.914062 613.164062 321.917969 612.96875 321.941406 C 613.164062 321.917969 613.363281 321.914062 613.574219 321.9375 C 614.101562 319.84375 614.234375 317.722656 614.054688 315.578125 C 614.011719 314.675781 614.445312 313.6875 613.570312 312.933594 C 613.386719 311.34375 613.199219 309.753906 613.015625 308.164062 C 612.917969 307.09375 613.453125 305.925781 612.53125 304.980469 C 612.566406 303.359375 612.351562 301.832031 610.980469 300.722656 C 610.960938 300.375 610.945312 300.027344 610.925781 299.679688 C 611.832031 298.960938 610.765625 298.285156 610.875 297.585938 C 610.925781 297.136719 610.828125 296.75 610.402344 296.507812 C 610.390625 296.160156 610.378906 295.804688 610.367188 295.453125 C 610.027344 295.453125 609.691406 295.449219 609.355469 295.445312 C 609.691406 295.449219 610.027344 295.453125 610.367188 295.453125 C 610.257812 294.382812 610.824219 293.207031 609.859375 292.269531 C 609.839844 291.921875 609.820312 291.574219 609.796875 291.226562 C 609.863281 290.773438 609.765625 290.390625 609.332031 290.152344 C 608.953125 288.726562 608.574219 287.300781 608.195312 285.875 C 607.199219 283.449219 606.207031 281.019531 605.210938 278.589844 L 605.125 278.507812 C 605.164062 278.542969 605.210938 278.589844 605.210938 278.589844 C 605.363281 278.445312 605.515625 278.296875 605.667969 278.152344 C 605.582031 278.109375 605.496094 278.089844 605.414062 278.089844 C 605.496094 278.089844 605.582031 278.113281 605.667969 278.152344 C 607.070312 277.96875 608.222656 277.242188 609.480469 276.640625 C 612.667969 275.113281 614.214844 272.121094 616.402344 269.695312 C 617.703125 268.925781 618.820312 267.957031 619.679688 266.695312 C 623.304688 261.386719 624.511719 255.066406 626.9375 249.257812 C 627.296875 248.398438 627.164062 247.347656 627.347656 246.398438 C 628.148438 242.210938 626.035156 238.71875 624.667969 235.046875 C 625.28125 235.027344 625.648438 234.695312 625.824219 234.128906 C 626.148438 234.066406 626.472656 234.007812 626.796875 233.949219 C 626.988281 233.910156 627.179688 233.867188 627.371094 233.828125 C 627.542969 233.875 627.71875 233.921875 627.890625 233.96875 C 627.878906 233.75 627.828125 233.566406 627.75 233.410156 C 627.828125 233.566406 627.878906 233.75 627.890625 233.96875 C 628.855469 235.488281 630.582031 234.808594 631.914062 235.253906 C 636.613281 236.832031 640.804688 239.898438 645.960938 240.144531 C 646.492188 240.234375 647.019531 240.324219 647.550781 240.414062 C 647.691406 240.480469 647.839844 240.519531 647.996094 240.527344 C 648.945312 241.085938 649.007812 240.488281 648.972656 239.773438 C 648.996094 239.4375 649.019531 239.105469 649.039062 238.773438 C 648.535156 238.765625 648.03125 238.753906 647.53125 238.742188 Z M 647.53125 238.742188 " fill-opacity="1" fill-rule="nonzero"/></g></svg>