<svg xmlns="http://www.w3.org/2000/svg" xmlns:xlink="http://www.w3.org/1999/xlink" width="1080" zoomAndPan="magnify" viewBox="0 0 810 809.999993" height="1080" preserveAspectRatio="xMidYMid meet" version="1.0"><path fill="#001527" d="M 700.308594 275.082031 C 706.640625 273.707031 712.558594 272.46875 718.613281 270.957031 C 723.703125 269.714844 728.660156 268.066406 733.75 266.828125 C 735.816406 266.277344 737.742188 265.863281 739.804688 265.589844 C 744.621094 264.898438 749.714844 265.589844 754.667969 266.414062 C 754.804688 266.414062 754.945312 266.414062 755.082031 266.414062 C 760.3125 267.378906 761.6875 269.578125 760.035156 274.671875 C 758.796875 278.25 757.007812 281.964844 754.257812 284.441406 C 750.128906 288.15625 745.722656 291.875 741.183594 295.175781 C 739.117188 296.691406 737.054688 298.203125 734.988281 299.578125 C 734.300781 299.992188 733.613281 300.40625 733.0625 300.679688 C 727.695312 303.296875 721.914062 302.746094 716 300.957031 C 711.730469 299.578125 707.328125 298.617188 703.199219 297.515625 C 697.558594 308.113281 695.355469 319.121094 694.53125 330.679688 C 694.117188 336.460938 691.777344 342.242188 691.089844 348.023438 C 690.539062 352.425781 690.261719 357.378906 691.640625 361.507812 C 695.355469 372.929688 694.117188 377.609375 683.933594 384.078125 C 683.382812 384.351562 682.695312 384.628906 682.417969 385.179688 C 678.839844 392.472656 672.097656 392.335938 665.765625 391.648438 C 657.097656 390.683594 652.28125 393.160156 648.839844 402.105469 C 640.859375 422.058594 628.058594 438.300781 608.105469 448.34375 C 595.71875 454.675781 590.078125 466.511719 586.914062 479.585938 C 584.296875 490.457031 580.71875 501.054688 574.25 510.550781 C 571.5 514.675781 568.058594 516.878906 563.515625 517.980469 C 562.964844 518.394531 562.277344 518.945312 561.726562 519.355469 C 558.699219 521.972656 556.910156 525.824219 554.710938 529.402344 C 552.507812 532.980469 550.304688 536.695312 548.378906 540.550781 C 547.277344 542.75 546.175781 545.089844 545.902344 547.566406 C 544.113281 562.429688 545.765625 577.019531 551.542969 590.917969 C 552.507812 593.394531 554.433594 595.460938 555.808594 597.800781 C 559.113281 603.714844 562.277344 609.773438 566.132812 616.929688 C 555.949219 616.929688 547.414062 617.066406 538.882812 616.789062 C 537.507812 616.789062 535.582031 615.277344 534.753906 613.898438 C 533.515625 612.109375 532.964844 609.773438 532.414062 607.570312 C 531.3125 603.167969 529.386719 600 524.570312 598.347656 C 519.339844 596.558594 518.242188 592.980469 519.203125 587.066406 C 520.71875 576.605469 522.644531 566.285156 523.46875 555.6875 C 523.882812 550.597656 523.058594 545.640625 521.542969 540.960938 C 520.992188 541.925781 520.304688 542.890625 519.753906 543.851562 C 518.242188 546.328125 516.863281 548.808594 515.625 551.285156 C 514.523438 553.484375 513.425781 555.824219 513.148438 558.300781 C 511.359375 573.164062 513.011719 587.753906 518.792969 601.652344 C 519.753906 604.128906 521.679688 606.195312 523.058594 608.53125 C 526.359375 614.449219 529.523438 620.507812 533.378906 627.664062 C 523.195312 627.664062 514.664062 627.800781 506.128906 627.523438 C 504.753906 627.523438 502.828125 626.011719 502 624.632812 C 500.902344 622.84375 500.210938 620.507812 499.664062 618.304688 C 498.5625 613.898438 496.632812 610.734375 491.816406 609.082031 C 486.589844 607.292969 485.488281 603.714844 486.449219 597.800781 C 487.964844 587.339844 489.890625 577.019531 490.71875 566.421875 C 491.40625 557.476562 488.515625 549.082031 483.699219 541.375 C 482.320312 539.171875 481.910156 536.421875 481.359375 533.804688 C 480.671875 530.640625 480.121094 527.476562 479.707031 524.171875 C 479.019531 519.769531 478.195312 515.503906 476.542969 511.511719 C 473.378906 503.394531 467.460938 498.164062 459.890625 496.511719 C 457.550781 495.960938 455.074219 495.824219 452.320312 496.097656 C 442 496.925781 431.679688 498.851562 421.769531 501.605469 C 420.945312 501.878906 420.117188 502.015625 419.292969 502.292969 C 386.539062 510.546875 355.574219 504.492188 325.988281 489.355469 C 322.410156 487.566406 318.832031 485.640625 315.390625 483.574219 C 306.582031 478.621094 297.914062 473.253906 288.691406 468.023438 C 282.914062 486.464844 276.71875 504.90625 271.214844 523.484375 C 269.011719 531.328125 270.664062 539.3125 273.140625 546.878906 C 273.28125 547.429688 273.417969 547.980469 273.691406 548.53125 C 277.546875 560.503906 282.085938 572.339844 286.765625 584.175781 C 289.65625 591.332031 293.785156 597.660156 299.015625 603.164062 C 300.390625 604.542969 301.765625 605.917969 303.144531 607.15625 C 303.417969 607.292969 303.554688 607.570312 303.832031 607.707031 C 309.75 612.800781 313.328125 619.542969 316.078125 627.660156 C 306.445312 627.660156 297.363281 627.660156 288.28125 627.523438 C 287.316406 627.523438 285.941406 626.5625 285.390625 625.597656 C 284.289062 624.085938 283.601562 622.15625 283.050781 620.367188 C 281.535156 615.828125 279.199219 612.9375 273.96875 611.835938 C 269.011719 610.871094 265.710938 607.292969 264.335938 602.066406 C 257.179688 574.816406 243.828125 551.007812 224.148438 530.917969 C 222.636719 529.402344 221.535156 527.890625 220.984375 526.511719 C 219.882812 523.898438 220.296875 521.421875 222.359375 518.394531 C 226.902344 511.511719 228.691406 504.082031 228.828125 496.097656 C 228.964844 489.492188 228.828125 482.75 228.828125 475.730469 C 216.855469 487.839844 204.195312 499.265625 194.835938 513.578125 C 192.359375 517.429688 190.570312 521.421875 189.332031 525.550781 C 187.542969 531.054688 186.71875 536.972656 186.167969 542.75 C 184.929688 557.0625 184.242188 571.515625 183.828125 585.964844 C 183.550781 593.671875 186.167969 600.550781 190.570312 607.15625 C 194.5625 613.210938 197.039062 620.09375 200.753906 627.523438 C 190.019531 627.523438 181.074219 627.660156 172.128906 627.386719 C 170.890625 627.386719 169.238281 626.011719 168.691406 624.910156 C 167.589844 622.984375 167.175781 620.78125 166.625 618.578125 C 165.523438 613.351562 163.875 608.808594 158.367188 606.054688 C 152.863281 603.304688 153.828125 597.660156 154.652344 592.433594 C 156.578125 579.359375 159.054688 566.148438 159.746094 552.933594 C 159.882812 549.21875 159.882812 545.503906 159.332031 541.925781 C 158.367188 533.394531 155.476562 525.136719 151.210938 517.429688 C 147.359375 510.6875 147.632812 504.769531 152.175781 498.300781 C 159.195312 488.390625 161.945312 476.832031 162.773438 464.859375 C 164.421875 442.839844 159.605469 421.785156 153.550781 401.003906 C 152.863281 398.664062 152.175781 396.1875 151.488281 393.847656 C 146.394531 376.371094 141.578125 358.894531 139.238281 340.867188 C 136.210938 319.671875 139.925781 300.679688 154.929688 284.578125 C 155.476562 284.027344 155.890625 283.339844 155.753906 281.828125 C 153.277344 283.890625 150.660156 285.816406 148.320312 288.019531 C 138.828125 296.691406 134.148438 307.425781 133.320312 320.222656 C 131.394531 347.195312 134.285156 374.03125 136.761719 400.867188 C 138.964844 423.574219 141.578125 446.144531 142.542969 468.851562 C 142.957031 478.484375 140.339844 488.53125 138.277344 498.164062 C 134.148438 516.742188 129.191406 535.183594 123.824219 553.761719 C 121.347656 544.679688 118.871094 535.734375 116.394531 526.648438 C 115.707031 524.171875 115.292969 521.558594 114.332031 519.21875 C 108 502.980469 110.203125 486.601562 112.128906 469.675781 C 115.84375 437.472656 117.632812 405.132812 119.972656 372.929688 C 121.488281 351.1875 121.347656 329.304688 127.402344 308.113281 C 134.558594 282.789062 149.011719 270.816406 175.019531 267.652344 C 197.726562 264.761719 220.433594 261.460938 243.003906 258.019531 C 250.847656 256.78125 258.828125 256.09375 266.675781 255.816406 C 287.042969 254.992188 307.273438 257.195312 327.5 261.597656 C 345.53125 265.449219 363.832031 268.753906 382.273438 265.863281 C 386.816406 265.175781 391.21875 264.210938 395.761719 263.25 C 403.605469 261.460938 411.449219 259.257812 419.019531 256.78125 C 436.359375 251 453.007812 243.707031 471.175781 240.542969 C 479.984375 239.027344 488.652344 238.203125 497.183594 238.203125 C 515.761719 238.339844 533.652344 242.46875 550.855469 251.828125 C 562.691406 258.292969 574.800781 264.074219 587.1875 269.167969 C 594.480469 272.195312 602.464844 273.15625 610.308594 275.082031 C 610.71875 266.414062 607.96875 263.109375 600.535156 262.285156 C 594.617188 261.597656 588.5625 261.734375 582.921875 260.359375 C 568.332031 256.78125 556.910156 248.109375 550.03125 236.273438 C 545.625 228.84375 543.148438 220.035156 542.597656 210.402344 C 542.460938 206.273438 542.460938 202.007812 542.875 197.878906 C 543.425781 192.789062 544.386719 187.832031 545.214844 182.191406 C 547.140625 191.410156 548.105469 200.082031 550.855469 208.203125 C 557.1875 227.46875 571.773438 239.714844 589.941406 242.054688 C 595.582031 242.882812 601.5 242.605469 607.691406 241.503906 C 610.308594 240.953125 612.785156 239.578125 615.261719 238.613281 C 616.226562 238.339844 617.050781 237.925781 618.015625 237.515625 C 621.867188 236 625.71875 234.210938 629.710938 233.660156 C 638.105469 232.699219 646.636719 232.148438 655.035156 232.148438 C 664.667969 232.007812 674.300781 232.558594 683.933594 233.9375 C 686.546875 234.347656 689.4375 235.035156 691.640625 236.414062 C 704.027344 244.53125 720.675781 244.257812 734.4375 237.238281 C 745.722656 231.597656 755.21875 221.550781 759.074219 208.0625 C 761.414062 199.945312 762.652344 191.550781 764.441406 183.292969 C 768.429688 196.367188 768.84375 209.714844 765.265625 223.0625 C 763.890625 228.019531 762.101562 232.558594 759.625 236.6875 C 750.816406 251.964844 735.128906 261.183594 716.136719 261.734375 C 714.484375 261.734375 712.96875 261.734375 711.320312 261.871094 C 703.886719 262.699219 700.859375 265.726562 700.308594 275.082031 Z M 700.308594 275.082031 " fill-opacity="1" fill-rule="nonzero"/><path fill="#001527" d="M 700.308594 275.082031 C 706.640625 273.707031 712.558594 272.46875 718.613281 270.957031 C 723.703125 269.714844 728.660156 268.066406 733.75 266.828125 C 735.816406 266.277344 737.742188 265.863281 739.804688 265.589844 C 744.621094 264.898438 749.714844 265.589844 754.667969 266.414062 C 754.804688 266.414062 754.945312 266.414062 755.082031 266.414062 C 760.3125 267.378906 761.6875 269.578125 760.035156 274.671875 C 758.796875 278.25 757.007812 281.964844 754.257812 284.441406 C 750.128906 288.15625 745.722656 291.875 741.183594 295.175781 C 739.117188 296.691406 737.054688 298.203125 734.988281 299.578125 C 734.300781 299.992188 733.613281 300.40625 733.0625 300.679688 C 727.695312 303.296875 721.914062 302.746094 716 300.957031 C 711.730469 299.578125 707.328125 298.617188 703.199219 297.515625 C 697.558594 308.113281 695.355469 319.121094 694.53125 330.679688 C 694.117188 336.460938 691.777344 342.242188 691.089844 348.023438 C 690.539062 352.425781 690.261719 357.378906 691.640625 361.507812 C 695.355469 372.929688 694.117188 377.609375 683.933594 384.078125 C 683.382812 384.351562 682.695312 384.628906 682.417969 385.179688 C 678.839844 392.472656 672.097656 392.335938 665.765625 391.648438 C 657.097656 390.683594 652.28125 393.160156 648.839844 402.105469 C 640.859375 422.058594 628.058594 438.300781 608.105469 448.34375 C 595.71875 454.675781 590.078125 466.511719 586.914062 479.585938 C 584.296875 490.457031 580.71875 501.054688 574.25 510.550781 C 571.5 514.675781 568.058594 516.878906 563.515625 517.980469 C 562.964844 518.394531 562.277344 518.945312 561.726562 519.355469 C 558.699219 521.972656 556.910156 525.824219 554.710938 529.402344 C 552.507812 532.980469 550.304688 536.695312 548.378906 540.550781 C 547.277344 542.75 546.175781 545.089844 545.902344 547.566406 C 544.113281 562.429688 545.765625 577.019531 551.542969 590.917969 C 552.507812 593.394531 554.433594 595.460938 555.808594 597.800781 C 559.113281 603.714844 562.277344 609.773438 566.132812 616.929688 C 555.949219 616.929688 547.414062 617.066406 538.882812 616.789062 C 537.507812 616.789062 535.582031 615.277344 534.753906 613.898438 C 533.515625 612.109375 532.964844 609.773438 532.414062 607.570312 C 531.3125 603.167969 529.386719 600 524.570312 598.347656 C 519.339844 596.558594 518.242188 592.980469 519.203125 587.066406 C 520.71875 576.605469 522.644531 566.285156 523.46875 555.6875 C 523.882812 550.597656 523.058594 545.640625 521.542969 540.960938 C 520.992188 541.925781 520.304688 542.890625 519.753906 543.851562 C 518.242188 546.328125 516.863281 548.808594 515.625 551.285156 C 514.523438 553.484375 513.425781 555.824219 513.148438 558.300781 C 511.359375 573.164062 513.011719 587.753906 518.792969 601.652344 C 519.753906 604.128906 521.679688 606.195312 523.058594 608.53125 C 526.359375 614.449219 529.523438 620.507812 533.378906 627.664062 C 523.195312 627.664062 514.664062 627.800781 506.128906 627.523438 C 504.753906 627.523438 502.828125 626.011719 502 624.632812 C 500.902344 622.84375 500.210938 620.507812 499.664062 618.304688 C 498.5625 613.898438 496.632812 610.734375 491.816406 609.082031 C 486.589844 607.292969 485.488281 603.714844 486.449219 597.800781 C 487.964844 587.339844 489.890625 577.019531 490.71875 566.421875 C 491.40625 557.476562 488.515625 549.082031 483.699219 541.375 C 482.320312 539.171875 481.910156 536.421875 481.359375 533.804688 C 480.671875 530.640625 480.121094 527.476562 479.707031 524.171875 C 479.019531 519.769531 478.195312 515.503906 476.542969 511.511719 C 473.378906 503.394531 467.460938 498.164062 459.890625 496.511719 C 457.550781 495.960938 455.074219 495.824219 452.320312 496.097656 C 442 496.925781 431.679688 498.851562 421.769531 501.605469 C 420.945312 501.878906 420.117188 502.015625 419.292969 502.292969 C 386.539062 510.546875 355.574219 504.492188 325.988281 489.355469 C 322.410156 487.566406 318.832031 485.640625 315.390625 483.574219 C 306.582031 478.621094 297.914062 473.253906 288.691406 468.023438 C 282.914062 486.464844 276.71875 504.90625 271.214844 523.484375 C 269.011719 531.328125 270.664062 539.3125 273.140625 546.878906 C 273.28125 547.429688 273.417969 547.980469 273.691406 548.53125 C 277.546875 560.503906 282.085938 572.339844 286.765625 584.175781 C 289.65625 591.332031 293.785156 597.660156 299.015625 603.164062 C 300.390625 604.542969 301.765625 605.917969 303.144531 607.15625 C 303.417969 607.292969 303.554688 607.570312 303.832031 607.707031 C 309.75 612.800781 313.328125 619.542969 316.078125 627.660156 C 306.445312 627.660156 297.363281 627.660156 288.28125 627.523438 C 287.316406 627.523438 285.941406 626.5625 285.390625 625.597656 C 284.289062 624.085938 283.601562 622.15625 283.050781 620.367188 C 281.535156 615.828125 279.199219 612.9375 273.96875 611.835938 C 269.011719 610.871094 265.710938 607.292969 264.335938 602.066406 C 257.179688 574.816406 243.828125 551.007812 224.148438 530.917969 C 222.636719 529.402344 221.535156 527.890625 220.984375 526.511719 C 219.882812 523.898438 220.296875 521.421875 222.359375 518.394531 C 226.902344 511.511719 228.691406 504.082031 228.828125 496.097656 C 228.964844 489.492188 228.828125 482.75 228.828125 475.730469 C 216.855469 487.839844 204.195312 499.265625 194.835938 513.578125 C 192.359375 517.429688 190.570312 521.421875 189.332031 525.550781 C 187.542969 531.054688 186.71875 536.972656 186.167969 542.75 C 184.929688 557.0625 184.242188 571.515625 183.828125 585.964844 C 183.550781 593.671875 186.167969 600.550781 190.570312 607.15625 C 194.5625 613.210938 197.039062 620.09375 200.753906 627.523438 C 190.019531 627.523438 181.074219 627.660156 172.128906 627.386719 C 170.890625 627.386719 169.238281 626.011719 168.691406 624.910156 C 167.589844 622.984375 167.175781 620.78125 166.625 618.578125 C 165.523438 613.351562 163.875 608.808594 158.367188 606.054688 C 152.863281 603.304688 153.828125 597.660156 154.652344 592.433594 C 156.578125 579.359375 159.054688 566.148438 159.746094 552.933594 C 159.882812 549.21875 159.882812 545.503906 159.332031 541.925781 C 158.367188 533.394531 155.476562 525.136719 151.210938 517.429688 C 147.359375 510.6875 147.632812 504.769531 152.175781 498.300781 C 159.195312 488.390625 161.945312 476.832031 162.773438 464.859375 C 164.421875 442.839844 159.605469 421.785156 153.550781 401.003906 C 152.863281 398.664062 152.175781 396.1875 151.488281 393.847656 C 146.394531 376.371094 141.578125 358.894531 139.238281 340.867188 C 136.210938 319.671875 139.925781 300.679688 154.929688 284.578125 C 155.476562 284.027344 155.890625 283.339844 155.753906 281.828125 C 153.277344 283.890625 150.660156 285.816406 148.320312 288.019531 C 138.828125 296.691406 134.148438 307.425781 133.320312 320.222656 C 131.394531 347.195312 134.285156 374.03125 136.761719 400.867188 C 138.964844 423.574219 141.578125 446.144531 142.542969 468.851562 C 142.957031 478.484375 140.339844 488.53125 138.277344 498.164062 C 134.148438 516.742188 129.191406 535.183594 123.824219 553.761719 C 121.347656 544.679688 118.871094 535.734375 116.394531 526.648438 C 115.707031 524.171875 115.292969 521.558594 114.332031 519.21875 C 108 502.980469 110.203125 486.601562 112.128906 469.675781 C 115.84375 437.472656 117.632812 405.132812 119.972656 372.929688 C 121.488281 351.1875 121.347656 329.304688 127.402344 308.113281 C 134.558594 282.789062 149.011719 270.816406 175.019531 267.652344 C 197.726562 264.761719 220.433594 261.460938 243.003906 258.019531 C 250.847656 256.78125 258.828125 256.09375 266.675781 255.816406 C 287.042969 254.992188 307.273438 257.195312 327.5 261.597656 C 345.53125 265.449219 363.832031 268.753906 382.273438 265.863281 C 386.816406 265.175781 391.21875 264.210938 395.761719 263.25 C 403.605469 261.460938 411.449219 259.257812 419.019531 256.78125 C 436.359375 251 453.007812 243.707031 471.175781 240.542969 C 479.984375 239.027344 488.652344 238.203125 497.183594 238.203125 C 515.761719 238.339844 533.652344 242.46875 550.855469 251.828125 C 562.691406 258.292969 574.800781 264.074219 587.1875 269.167969 C 594.480469 272.195312 602.464844 273.15625 610.308594 275.082031 C 610.71875 266.414062 607.96875 263.109375 600.535156 262.285156 C 594.617188 261.597656 588.5625 261.734375 582.921875 260.359375 C 568.332031 256.78125 556.910156 248.109375 550.03125 236.273438 C 545.625 228.84375 543.148438 220.035156 542.597656 210.402344 C 542.460938 206.273438 542.460938 202.007812 542.875 197.878906 C 543.425781 192.789062 544.386719 187.832031 545.214844 182.191406 C 547.140625 191.410156 548.105469 200.082031 550.855469 208.203125 C 557.1875 227.46875 571.773438 239.714844 589.941406 242.054688 C 595.582031 242.882812 601.5 242.605469 607.691406 241.503906 C 610.308594 240.953125 612.785156 239.578125 615.261719 238.613281 C 616.226562 238.339844 617.050781 237.925781 618.015625 237.515625 C 621.867188 236 625.71875 234.210938 629.710938 233.660156 C 638.105469 232.699219 646.636719 232.148438 655.035156 232.148438 C 664.667969 232.007812 674.300781 232.558594 683.933594 233.9375 C 686.546875 234.347656 689.4375 235.035156 691.640625 236.414062 C 704.027344 244.53125 720.675781 244.257812 734.4375 237.238281 C 745.722656 231.597656 755.21875 221.550781 759.074219 208.0625 C 761.414062 199.945312 762.652344 191.550781 764.441406 183.292969 C 768.429688 196.367188 768.84375 209.714844 765.265625 223.0625 C 763.890625 228.019531 762.101562 232.558594 759.625 236.6875 C 750.816406 251.964844 735.128906 261.183594 716.136719 261.734375 C 714.484375 261.734375 712.96875 261.734375 711.320312 261.871094 C 703.886719 262.699219 700.859375 265.726562 700.308594 275.082031 Z M 700.308594 275.082031 " fill-opacity="1" fill-rule="nonzero"/></svg>