<svg xmlns="http://www.w3.org/2000/svg" xmlns:xlink="http://www.w3.org/1999/xlink" width="1080" zoomAndPan="magnify" viewBox="0 0 810 809.999993" height="1080" preserveAspectRatio="xMidYMid meet" version="1.0"><defs><clipPath id="4a2031b1b5"><path d="M 98.183594 33.007812 L 471 33.007812 L 471 405 L 98.183594 405 Z M 98.183594 33.007812 " clip-rule="nonzero"/></clipPath><clipPath id="f8c2bfcdad"><path d="M 400 163 L 635.933594 163 L 635.933594 387 L 400 387 Z M 400 163 " clip-rule="nonzero"/></clipPath><clipPath id="0b883e2454"><path d="M 292 404 L 635.933594 404 L 635.933594 729 L 292 729 Z M 292 404 " clip-rule="nonzero"/></clipPath><clipPath id="871360a56c"><path d="M 98.183594 33.007812 L 471 33.007812 L 471 405 L 98.183594 405 Z M 98.183594 33.007812 " clip-rule="nonzero"/></clipPath><clipPath id="146c1d2c1c"><path d="M 400 163 L 635.933594 163 L 635.933594 387 L 400 387 Z M 400 163 " clip-rule="nonzero"/></clipPath><clipPath id="6356102414"><path d="M 292 404 L 635.933594 404 L 635.933594 729 L 292 729 Z M 292 404 " clip-rule="nonzero"/></clipPath></defs><g clip-path="url(#4a2031b1b5)"><path fill="#001527" d="M 284.335938 33.007812 C 181.664062 33.007812 98.558594 116.117188 98.558594 218.785156 C 98.558594 321.457031 181.664062 404.5625 284.335938 404.5625 C 387.007812 404.5625 470.113281 321.457031 470.113281 218.785156 C 470.113281 116.117188 387.007812 33.007812 284.335938 33.007812 Z M 411.851562 179.804688 C 411.140625 179.804688 410.28125 179.660156 409.566406 179.515625 L 381.867188 172.09375 L 364.015625 182.375 L 388.433594 188.941406 C 393.289062 190.226562 396.144531 195.082031 394.859375 199.9375 C 393.71875 203.933594 390.148438 206.648438 386.148438 206.648438 C 385.433594 206.648438 384.578125 206.503906 383.863281 206.363281 L 342.023438 195.226562 L 303.757812 217.359375 L 339.027344 237.636719 L 380.722656 226.496094 C 385.433594 225.210938 390.433594 228.066406 391.71875 232.921875 C 393.003906 237.636719 390.148438 242.632812 385.292969 243.917969 L 361.015625 250.488281 L 378.867188 260.769531 L 406.570312 253.34375 C 411.28125 252.058594 416.28125 254.914062 417.566406 259.769531 C 418.851562 264.480469 415.992188 269.480469 411.140625 270.765625 L 388.433594 276.902344 L 394.574219 299.609375 C 395.859375 304.320312 393.003906 309.320312 388.148438 310.605469 C 387.433594 310.746094 386.578125 310.890625 385.863281 310.890625 C 381.867188 310.890625 378.296875 308.175781 377.152344 304.179688 L 369.726562 276.332031 L 351.878906 266.050781 L 358.445312 290.46875 C 359.730469 295.183594 356.875 300.179688 352.019531 301.464844 C 351.308594 301.609375 350.449219 301.75 349.738281 301.75 C 345.738281 301.75 342.167969 299.039062 341.027344 295.039062 L 329.746094 253.199219 L 294.617188 232.921875 L 294.617188 276.617188 L 325.175781 307.175781 C 328.746094 310.605469 328.746094 316.316406 325.175781 319.886719 C 321.75 323.457031 316.035156 323.457031 312.464844 319.886719 L 294.617188 302.035156 L 294.617188 322.742188 L 314.894531 343.019531 C 318.464844 346.445312 318.464844 352.15625 314.894531 355.726562 C 311.46875 359.296875 305.753906 359.296875 302.183594 355.726562 L 285.765625 339.304688 L 269.199219 356.871094 C 267.484375 358.726562 265.058594 359.726562 262.628906 359.726562 C 260.488281 359.726562 258.203125 359.011719 256.492188 357.296875 C 252.777344 353.871094 252.636719 348.160156 256.0625 344.589844 L 276.910156 323.027344 L 276.910156 302.75 L 259.203125 321.171875 C 257.347656 323.027344 255.0625 323.882812 252.636719 323.882812 C 250.351562 323.882812 248.066406 323.027344 246.351562 321.3125 C 242.78125 317.886719 242.640625 312.175781 246.066406 308.605469 L 276.765625 276.617188 L 276.765625 232.78125 L 241.496094 253.058594 L 230.214844 294.898438 C 229.074219 298.894531 225.503906 301.609375 221.503906 301.609375 C 220.792969 301.609375 219.933594 301.464844 219.222656 301.324219 C 214.367188 300.039062 211.507812 295.183594 212.792969 290.328125 L 219.363281 265.910156 L 201.515625 276.191406 L 194.089844 304.035156 C 192.945312 308.035156 189.375 310.746094 185.378906 310.746094 C 184.664062 310.746094 183.808594 310.605469 183.09375 310.460938 C 178.238281 309.175781 175.382812 304.320312 176.667969 299.464844 L 182.808594 276.761719 L 160.101562 270.621094 C 155.25 269.335938 152.390625 264.480469 153.675781 259.625 C 154.960938 254.769531 159.816406 251.914062 164.671875 253.199219 L 192.375 260.625 L 210.222656 250.34375 L 185.949219 243.777344 C 181.09375 242.492188 178.238281 237.636719 179.523438 232.78125 C 180.808594 227.925781 185.664062 225.070312 190.519531 226.355469 L 232.214844 237.492188 L 267.484375 217.074219 L 229.503906 195.226562 L 187.664062 206.503906 C 186.949219 206.648438 186.09375 206.792969 185.378906 206.792969 C 181.378906 206.792969 177.808594 204.078125 176.667969 200.078125 C 175.382812 195.367188 178.238281 190.371094 183.09375 189.085938 L 207.652344 182.515625 L 189.804688 172.234375 L 161.960938 179.660156 C 161.246094 179.804688 160.390625 179.945312 159.675781 179.945312 C 155.675781 179.945312 152.105469 177.234375 150.964844 173.234375 C 149.679688 168.523438 152.535156 163.523438 157.390625 162.238281 L 180.09375 156.097656 L 173.953125 133.394531 C 172.667969 128.683594 175.523438 123.683594 180.378906 122.398438 C 185.09375 121.113281 190.089844 123.96875 191.375 128.824219 L 198.800781 156.527344 L 216.648438 166.808594 L 210.082031 142.390625 C 208.796875 137.679688 211.652344 132.679688 216.507812 131.394531 C 221.21875 130.109375 226.21875 132.964844 227.503906 137.820312 L 238.640625 179.375 L 276.625 201.363281 L 276.625 161.097656 L 246.066406 130.539062 C 242.496094 127.109375 242.496094 121.398438 246.066406 117.828125 C 249.492188 114.257812 255.207031 114.257812 258.773438 117.828125 L 276.625 135.679688 L 276.625 114.972656 L 256.347656 94.695312 C 252.777344 91.269531 252.777344 85.558594 256.347656 81.988281 C 259.773438 78.417969 265.488281 78.417969 269.054688 81.988281 L 285.621094 98.695312 L 302.183594 82.128906 C 305.613281 78.558594 311.324219 78.558594 314.894531 82.128906 C 318.464844 85.558594 318.464844 91.269531 314.894531 94.839844 L 294.617188 115.117188 L 294.617188 135.820312 L 312.464844 117.972656 C 315.894531 114.402344 321.605469 114.402344 325.175781 117.972656 C 328.746094 121.398438 328.746094 127.109375 325.175781 130.679688 L 294.617188 161.238281 L 294.617188 201.507812 L 333.171875 179.375 L 344.308594 137.535156 C 345.59375 132.679688 350.449219 129.824219 355.304688 131.109375 C 360.160156 132.394531 363.015625 137.25 361.730469 142.105469 L 355.164062 166.523438 L 373.011719 156.242188 L 380.582031 128.539062 C 381.867188 123.683594 386.71875 120.828125 391.574219 122.113281 C 396.429688 123.398438 399.285156 128.253906 398 133.109375 L 391.859375 155.8125 L 414.566406 161.953125 C 419.277344 163.238281 422.132812 168.09375 420.5625 173.089844 C 419.421875 177.089844 415.851562 179.804688 411.851562 179.804688 Z M 411.851562 179.804688 " fill-opacity="1" fill-rule="nonzero"/></g><g clip-path="url(#f8c2bfcdad)"><path fill="#001527" d="M 400.429688 386.285156 L 635.613281 386.285156 L 635.613281 222.070312 C 635.613281 189.941406 609.484375 163.808594 577.351562 163.667969 L 480.679688 163.667969 C 485.535156 181.089844 488.25 199.652344 488.25 218.644531 C 488.25 288.183594 453.550781 349.445312 400.429688 386.285156 Z M 570.355469 269.621094 C 570.355469 264.625 574.355469 260.625 579.351562 260.625 C 584.351562 260.625 588.347656 264.625 588.347656 269.621094 L 588.347656 344.875 C 588.347656 349.871094 584.351562 354.015625 579.351562 353.871094 C 574.355469 353.871094 570.355469 349.871094 570.355469 344.875 Z M 570.355469 269.621094 " fill-opacity="1" fill-rule="nonzero"/></g><g clip-path="url(#0b883e2454)"><path fill="#001527" d="M 368.726562 404.277344 C 345.308594 414.988281 319.464844 421.414062 292.191406 422.414062 L 292.191406 717.859375 C 292.191406 724 297.1875 728.996094 303.328125 728.996094 L 624.476562 728.996094 C 630.617188 728.996094 635.613281 724 635.613281 717.859375 L 635.613281 404.277344 Z M 588.347656 543.21875 C 588.347656 548.21875 584.351562 552.214844 579.351562 552.214844 C 574.355469 552.214844 570.355469 548.21875 570.355469 543.21875 L 570.355469 467.964844 C 570.355469 462.96875 574.355469 458.96875 579.351562 458.96875 C 584.351562 458.96875 588.347656 462.96875 588.347656 467.964844 Z M 588.347656 543.21875 " fill-opacity="1" fill-rule="nonzero"/></g><g clip-path="url(#871360a56c)"><path fill="#001527" d="M 284.335938 33.007812 C 181.664062 33.007812 98.558594 116.117188 98.558594 218.785156 C 98.558594 321.457031 181.664062 404.5625 284.335938 404.5625 C 387.007812 404.5625 470.113281 321.457031 470.113281 218.785156 C 470.113281 116.117188 387.007812 33.007812 284.335938 33.007812 Z M 411.851562 179.804688 C 411.140625 179.804688 410.28125 179.660156 409.566406 179.515625 L 381.867188 172.09375 L 364.015625 182.375 L 388.433594 188.941406 C 393.289062 190.226562 396.144531 195.082031 394.859375 199.9375 C 393.71875 203.933594 390.148438 206.648438 386.148438 206.648438 C 385.433594 206.648438 384.578125 206.503906 383.863281 206.363281 L 342.023438 195.226562 L 303.757812 217.359375 L 339.027344 237.636719 L 380.722656 226.496094 C 385.433594 225.210938 390.433594 228.066406 391.71875 232.921875 C 393.003906 237.636719 390.148438 242.632812 385.292969 243.917969 L 361.015625 250.488281 L 378.867188 260.769531 L 406.570312 253.34375 C 411.28125 252.058594 416.28125 254.914062 417.566406 259.769531 C 418.851562 264.480469 415.992188 269.480469 411.140625 270.765625 L 388.433594 276.902344 L 394.574219 299.609375 C 395.859375 304.320312 393.003906 309.320312 388.148438 310.605469 C 387.433594 310.746094 386.578125 310.890625 385.863281 310.890625 C 381.867188 310.890625 378.296875 308.175781 377.152344 304.179688 L 369.726562 276.332031 L 351.878906 266.050781 L 358.445312 290.46875 C 359.730469 295.183594 356.875 300.179688 352.019531 301.464844 C 351.308594 301.609375 350.449219 301.75 349.738281 301.75 C 345.738281 301.75 342.167969 299.039062 341.027344 295.039062 L 329.746094 253.199219 L 294.617188 232.921875 L 294.617188 276.617188 L 325.175781 307.175781 C 328.746094 310.605469 328.746094 316.316406 325.175781 319.886719 C 321.75 323.457031 316.035156 323.457031 312.464844 319.886719 L 294.617188 302.035156 L 294.617188 322.742188 L 314.894531 343.019531 C 318.464844 346.445312 318.464844 352.15625 314.894531 355.726562 C 311.46875 359.296875 305.753906 359.296875 302.183594 355.726562 L 285.765625 339.304688 L 269.199219 356.871094 C 267.484375 358.726562 265.058594 359.726562 262.628906 359.726562 C 260.488281 359.726562 258.203125 359.011719 256.492188 357.296875 C 252.777344 353.871094 252.636719 348.160156 256.0625 344.589844 L 276.910156 323.027344 L 276.910156 302.75 L 259.203125 321.171875 C 257.347656 323.027344 255.0625 323.882812 252.636719 323.882812 C 250.351562 323.882812 248.066406 323.027344 246.351562 321.3125 C 242.78125 317.886719 242.640625 312.175781 246.066406 308.605469 L 276.765625 276.617188 L 276.765625 232.78125 L 241.496094 253.058594 L 230.214844 294.898438 C 229.074219 298.894531 225.503906 301.609375 221.503906 301.609375 C 220.792969 301.609375 219.933594 301.464844 219.222656 301.324219 C 214.367188 300.039062 211.507812 295.183594 212.792969 290.328125 L 219.363281 265.910156 L 201.515625 276.191406 L 194.089844 304.035156 C 192.945312 308.035156 189.375 310.746094 185.378906 310.746094 C 184.664062 310.746094 183.808594 310.605469 183.09375 310.460938 C 178.238281 309.175781 175.382812 304.320312 176.667969 299.464844 L 182.808594 276.761719 L 160.101562 270.621094 C 155.25 269.335938 152.390625 264.480469 153.675781 259.625 C 154.960938 254.769531 159.816406 251.914062 164.671875 253.199219 L 192.375 260.625 L 210.222656 250.34375 L 185.949219 243.777344 C 181.09375 242.492188 178.238281 237.636719 179.523438 232.78125 C 180.808594 227.925781 185.664062 225.070312 190.519531 226.355469 L 232.214844 237.492188 L 267.484375 217.074219 L 229.503906 195.226562 L 187.664062 206.503906 C 186.949219 206.648438 186.09375 206.792969 185.378906 206.792969 C 181.378906 206.792969 177.808594 204.078125 176.667969 200.078125 C 175.382812 195.367188 178.238281 190.371094 183.09375 189.085938 L 207.652344 182.515625 L 189.804688 172.234375 L 161.960938 179.660156 C 161.246094 179.804688 160.390625 179.945312 159.675781 179.945312 C 155.675781 179.945312 152.105469 177.234375 150.964844 173.234375 C 149.679688 168.523438 152.535156 163.523438 157.390625 162.238281 L 180.09375 156.097656 L 173.953125 133.394531 C 172.667969 128.683594 175.523438 123.683594 180.378906 122.398438 C 185.09375 121.113281 190.089844 123.96875 191.375 128.824219 L 198.800781 156.527344 L 216.648438 166.808594 L 210.082031 142.390625 C 208.796875 137.679688 211.652344 132.679688 216.507812 131.394531 C 221.21875 130.109375 226.21875 132.964844 227.503906 137.820312 L 238.640625 179.375 L 276.625 201.363281 L 276.625 161.097656 L 246.066406 130.539062 C 242.496094 127.109375 242.496094 121.398438 246.066406 117.828125 C 249.492188 114.257812 255.207031 114.257812 258.773438 117.828125 L 276.625 135.679688 L 276.625 114.972656 L 256.347656 94.695312 C 252.777344 91.269531 252.777344 85.558594 256.347656 81.988281 C 259.773438 78.417969 265.488281 78.417969 269.054688 81.988281 L 285.621094 98.695312 L 302.183594 82.128906 C 305.613281 78.558594 311.324219 78.558594 314.894531 82.128906 C 318.464844 85.558594 318.464844 91.269531 314.894531 94.839844 L 294.617188 115.117188 L 294.617188 135.820312 L 312.464844 117.972656 C 315.894531 114.402344 321.605469 114.402344 325.175781 117.972656 C 328.746094 121.398438 328.746094 127.109375 325.175781 130.679688 L 294.617188 161.238281 L 294.617188 201.507812 L 333.171875 179.375 L 344.308594 137.535156 C 345.59375 132.679688 350.449219 129.824219 355.304688 131.109375 C 360.160156 132.394531 363.015625 137.25 361.730469 142.105469 L 355.164062 166.523438 L 373.011719 156.242188 L 380.582031 128.539062 C 381.867188 123.683594 386.71875 120.828125 391.574219 122.113281 C 396.429688 123.398438 399.285156 128.253906 398 133.109375 L 391.859375 155.8125 L 414.566406 161.953125 C 419.277344 163.238281 422.132812 168.09375 420.5625 173.089844 C 419.421875 177.089844 415.851562 179.804688 411.851562 179.804688 Z M 411.851562 179.804688 " fill-opacity="1" fill-rule="nonzero"/></g><g clip-path="url(#146c1d2c1c)"><path fill="#001527" d="M 400.429688 386.285156 L 635.613281 386.285156 L 635.613281 222.070312 C 635.613281 189.941406 609.484375 163.808594 577.351562 163.667969 L 480.679688 163.667969 C 485.535156 181.089844 488.25 199.652344 488.25 218.644531 C 488.25 288.183594 453.550781 349.445312 400.429688 386.285156 Z M 570.355469 269.621094 C 570.355469 264.625 574.355469 260.625 579.351562 260.625 C 584.351562 260.625 588.347656 264.625 588.347656 269.621094 L 588.347656 344.875 C 588.347656 349.871094 584.351562 354.015625 579.351562 353.871094 C 574.355469 353.871094 570.355469 349.871094 570.355469 344.875 Z M 570.355469 269.621094 " fill-opacity="1" fill-rule="nonzero"/></g><g clip-path="url(#6356102414)"><path fill="#001527" d="M 368.726562 404.277344 C 345.308594 414.988281 319.464844 421.414062 292.191406 422.414062 L 292.191406 717.859375 C 292.191406 724 297.1875 728.996094 303.328125 728.996094 L 624.476562 728.996094 C 630.617188 728.996094 635.613281 724 635.613281 717.859375 L 635.613281 404.277344 Z M 588.347656 543.21875 C 588.347656 548.21875 584.351562 552.214844 579.351562 552.214844 C 574.355469 552.214844 570.355469 548.21875 570.355469 543.21875 L 570.355469 467.964844 C 570.355469 462.96875 574.355469 458.96875 579.351562 458.96875 C 584.351562 458.96875 588.347656 462.96875 588.347656 467.964844 Z M 588.347656 543.21875 " fill-opacity="1" fill-rule="nonzero"/></g></svg>