<svg xmlns="http://www.w3.org/2000/svg" xmlns:xlink="http://www.w3.org/1999/xlink" width="1080" zoomAndPan="magnify" viewBox="0 0 810 809.999993" height="1080" preserveAspectRatio="xMidYMid meet" version="1.0"><defs><clipPath id="8f705d07ca"><path d="M 491 125.847656 L 705 125.847656 L 705 634 L 491 634 Z M 491 125.847656 " clip-rule="nonzero"/></clipPath><clipPath id="f54566b9b3"><path d="M 294.917969 125.847656 L 476 125.847656 L 476 634 L 294.917969 634 Z M 294.917969 125.847656 " clip-rule="nonzero"/></clipPath><clipPath id="5c2f5348ba"><path d="M 225.074219 110.453125 L 484.550781 110.453125 L 484.550781 645.652344 L 225.074219 645.652344 Z M 225.074219 110.453125 " clip-rule="nonzero"/></clipPath><clipPath id="f957102a92"><path d="M 105.3125 122.632812 L 448 122.632812 L 448 632.855469 L 105.3125 632.855469 Z M 105.3125 122.632812 " clip-rule="nonzero"/></clipPath></defs><g clip-path="url(#8f705d07ca)"><path fill="#001527" d="M 526.21875 416.144531 C 523.4375 418.683594 520.800781 421.363281 518.304688 424.183594 C 515.808594 427.003906 513.46875 429.945312 511.285156 433.011719 C 509.101562 436.082031 507.085938 439.253906 505.238281 442.535156 C 503.390625 445.816406 501.722656 449.1875 500.234375 452.644531 C 498.746094 456.105469 497.441406 459.632812 496.328125 463.226562 C 495.210938 466.824219 494.289062 470.46875 493.558594 474.164062 C 492.832031 477.859375 492.300781 481.578125 491.964844 485.332031 C 491.628906 489.082031 491.496094 492.839844 491.558594 496.605469 C 491.628906 498.921875 491.773438 501.234375 491.992188 503.542969 C 492.210938 505.851562 492.503906 508.148438 492.871094 510.441406 C 493.238281 512.730469 493.679688 515.003906 494.195312 517.265625 C 494.707031 519.527344 495.292969 521.769531 495.953125 523.992188 C 496.613281 526.214844 497.339844 528.414062 498.140625 530.59375 C 498.941406 532.769531 499.8125 534.917969 500.75 537.035156 C 501.6875 539.15625 502.695312 541.246094 503.769531 543.300781 C 504.839844 545.355469 505.980469 547.375 507.183594 549.355469 C 508.386719 551.339844 509.652344 553.28125 510.980469 555.179688 C 512.308594 557.082031 513.699219 558.9375 515.148438 560.746094 C 516.59375 562.558594 518.101562 564.320312 519.660156 566.035156 C 521.222656 567.75 522.839844 569.410156 524.507812 571.019531 C 526.175781 572.628906 527.894531 574.183594 529.664062 575.683594 C 531.433594 577.183594 533.25 578.621094 535.113281 580.003906 C 536.976562 581.386719 538.878906 582.707031 540.828125 583.964844 C 542.773438 585.222656 544.757812 586.417969 546.785156 587.550781 L 533.101562 622.78125 C 532.980469 623.089844 532.882812 623.40625 532.800781 623.726562 C 532.71875 624.046875 532.660156 624.371094 532.617188 624.699219 C 532.574219 625.027344 532.554688 625.359375 532.550781 625.6875 C 532.550781 626.019531 532.566406 626.347656 532.605469 626.679688 C 532.644531 627.007812 532.703125 627.332031 532.78125 627.652344 C 532.859375 627.976562 532.953125 628.292969 533.070312 628.601562 C 533.1875 628.910156 533.320312 629.210938 533.472656 629.507812 C 533.625 629.800781 533.792969 630.082031 533.980469 630.355469 C 534.167969 630.628906 534.371094 630.890625 534.589844 631.140625 C 534.808594 631.386719 535.039062 631.621094 535.285156 631.84375 C 535.535156 632.0625 535.792969 632.269531 536.066406 632.457031 C 536.335938 632.644531 536.617188 632.816406 536.910156 632.972656 C 537.203125 633.128906 537.503906 633.265625 537.8125 633.382812 C 538.121094 633.5 538.4375 633.601562 538.757812 633.679688 C 539.078125 633.761719 539.402344 633.820312 539.730469 633.863281 C 540.058594 633.902344 540.390625 633.925781 540.71875 633.925781 L 655.429688 633.925781 C 656.097656 633.925781 656.761719 633.847656 657.410156 633.683594 C 658.0625 633.523438 658.683594 633.285156 659.277344 632.972656 C 659.871094 632.65625 660.417969 632.273438 660.917969 631.828125 C 661.414062 631.378906 661.851562 630.875 662.230469 630.320312 C 662.601562 629.765625 662.902344 629.175781 663.132812 628.546875 C 663.363281 627.921875 663.511719 627.277344 663.585938 626.613281 C 663.65625 625.949219 663.644531 625.285156 663.554688 624.625 C 663.464844 623.960938 663.296875 623.320312 663.046875 622.699219 L 649.363281 587.960938 C 657.566406 583.484375 665.050781 578.019531 671.816406 571.574219 C 673.113281 570.328125 674.375 569.046875 675.609375 567.738281 C 676.839844 566.425781 678.039062 565.085938 679.203125 563.714844 C 680.367188 562.34375 681.496094 560.941406 682.589844 559.515625 C 683.683594 558.085938 684.738281 556.628906 685.757812 555.148438 C 686.777344 553.667969 687.757812 552.160156 688.703125 550.628906 C 689.644531 549.09375 690.550781 547.539062 691.414062 545.964844 C 692.277344 544.386719 693.101562 542.789062 693.886719 541.167969 C 694.667969 539.546875 695.410156 537.910156 696.113281 536.253906 C 696.8125 534.597656 697.46875 532.921875 698.085938 531.234375 C 698.703125 529.542969 699.273438 527.835938 699.804688 526.117188 C 700.332031 524.398438 700.816406 522.667969 701.257812 520.921875 C 701.699219 519.179688 702.097656 517.425781 702.449219 515.660156 C 702.804688 513.898438 703.109375 512.125 703.375 510.347656 C 703.636719 508.566406 703.855469 506.78125 704.027344 504.992188 C 704.199219 503.199219 704.328125 501.40625 704.40625 499.609375 C 704.488281 497.8125 704.523438 496.015625 704.515625 494.214844 C 704.507812 492.417969 704.453125 490.621094 704.351562 488.824219 C 704.25 487.027344 704.105469 485.234375 703.914062 483.445312 C 703.722656 481.65625 703.484375 479.875 703.203125 478.097656 C 702.921875 476.320312 702.59375 474.554688 702.222656 472.792969 C 701.851562 471.03125 701.4375 469.28125 700.976562 467.542969 C 700.515625 465.804688 700.011719 464.078125 699.464844 462.363281 C 698.917969 460.652344 698.328125 458.953125 697.691406 457.269531 C 697.058594 455.585938 696.382812 453.917969 695.667969 452.269531 C 694.949219 450.621094 694.1875 448.988281 693.386719 447.378906 C 692.585938 445.769531 691.746094 444.179688 690.867188 442.609375 C 689.984375 441.042969 689.0625 439.496094 688.105469 437.976562 C 687.144531 436.453125 686.148438 434.957031 685.113281 433.484375 C 684.078125 432.015625 683.007812 430.570312 681.898438 429.152344 C 680.789062 427.738281 679.644531 426.347656 678.46875 424.988281 C 677.289062 423.628906 676.074219 422.300781 674.828125 421.003906 C 673.582031 419.707031 672.304688 418.441406 670.996094 417.210938 C 669.140625 415.476562 667.375 413.65625 665.707031 411.742188 C 664.035156 409.832031 662.464844 407.839844 661 405.765625 C 659.53125 403.695312 658.171875 401.554688 656.921875 399.34375 C 655.671875 397.132812 654.539062 394.867188 653.519531 392.539062 C 652.5 390.214844 651.601562 387.84375 650.824219 385.425781 C 650.046875 383.007812 649.394531 380.558594 648.867188 378.074219 C 648.339844 375.59375 647.941406 373.089844 647.667969 370.5625 C 647.394531 368.039062 647.25 365.507812 647.234375 362.96875 L 647.234375 269.972656 C 649.050781 269.179688 650.800781 268.261719 652.484375 267.214844 C 654.164062 266.167969 655.765625 265.007812 657.277344 263.726562 C 658.792969 262.449219 660.207031 261.070312 661.519531 259.585938 C 662.832031 258.101562 664.03125 256.53125 665.117188 254.875 C 666.203125 253.214844 667.164062 251.488281 668 249.691406 C 668.835938 247.894531 669.535156 246.046875 670.101562 244.148438 C 670.667969 242.25 671.097656 240.320312 671.382812 238.359375 C 671.671875 236.402344 671.8125 234.429688 671.816406 232.449219 L 671.816406 216.0625 C 671.816406 215.523438 671.761719 214.992188 671.65625 214.460938 C 671.550781 213.933594 671.398438 213.421875 671.191406 212.925781 C 670.984375 212.429688 670.734375 211.957031 670.433594 211.507812 C 670.136719 211.0625 669.796875 210.648438 669.414062 210.265625 C 669.035156 209.886719 668.621094 209.546875 668.171875 209.25 C 667.726562 208.949219 667.253906 208.699219 666.757812 208.492188 C 666.261719 208.285156 665.746094 208.128906 665.21875 208.023438 C 664.691406 207.921875 664.160156 207.867188 663.621094 207.867188 L 663.046875 207.867188 C 662.820312 206.082031 662.523438 204.304688 662.148438 202.542969 C 661.777344 200.78125 661.332031 199.035156 660.8125 197.3125 C 660.296875 195.585938 659.710938 193.882812 659.054688 192.207031 C 658.394531 190.527344 657.671875 188.878906 656.878906 187.261719 C 656.085938 185.644531 655.226562 184.0625 654.304688 182.515625 C 653.378906 180.96875 652.394531 179.464844 651.347656 177.996094 C 650.300781 176.53125 649.191406 175.113281 648.027344 173.738281 C 646.863281 172.363281 645.644531 171.039062 644.371094 169.765625 C 643.097656 168.492188 641.773438 167.273438 640.398438 166.105469 C 639.023438 164.941406 637.605469 163.835938 636.136719 162.789062 C 634.671875 161.742188 633.167969 160.753906 631.621094 159.832031 C 630.074219 158.910156 628.488281 158.050781 626.871094 157.257812 C 625.253906 156.464844 623.605469 155.738281 621.929688 155.082031 C 620.253906 154.425781 618.550781 153.839844 616.824219 153.320312 C 615.097656 152.804688 613.355469 152.359375 611.59375 151.988281 C 609.828125 151.613281 608.054688 151.3125 606.269531 151.085938 L 606.269531 125.933594 L 589.882812 125.933594 L 589.882812 151.085938 C 588.09375 151.3125 586.320312 151.613281 584.554688 151.988281 C 582.792969 152.359375 581.050781 152.804688 579.324219 153.320312 C 577.597656 153.839844 575.894531 154.425781 574.21875 155.082031 C 572.542969 155.738281 570.894531 156.464844 569.277344 157.257812 C 567.660156 158.050781 566.078125 158.910156 564.53125 159.832031 C 562.984375 160.753906 561.476562 161.742188 560.011719 162.789062 C 558.546875 163.835938 557.125 164.941406 555.75 166.105469 C 554.375 167.273438 553.050781 168.492188 551.777344 169.765625 C 550.503906 171.039062 549.285156 172.363281 548.121094 173.738281 C 546.957031 175.113281 545.847656 176.53125 544.800781 177.996094 C 543.753906 179.464844 542.769531 180.96875 541.84375 182.515625 C 540.921875 184.0625 540.0625 185.644531 539.269531 187.261719 C 538.476562 188.878906 537.753906 190.527344 537.097656 192.207031 C 536.4375 193.882812 535.851562 195.585938 535.335938 197.3125 C 534.816406 199.035156 534.375 200.78125 534 202.542969 C 533.628906 204.304688 533.328125 206.082031 533.101562 207.867188 L 532.527344 207.867188 C 531.988281 207.867188 531.457031 207.921875 530.929688 208.023438 C 530.402344 208.128906 529.890625 208.285156 529.390625 208.492188 C 528.894531 208.699219 528.421875 208.949219 527.976562 209.25 C 527.527344 209.546875 527.113281 209.886719 526.734375 210.265625 C 526.351562 210.648438 526.011719 211.0625 525.714844 211.507812 C 525.414062 211.957031 525.164062 212.429688 524.957031 212.925781 C 524.75 213.421875 524.597656 213.933594 524.492188 214.460938 C 524.386719 214.992188 524.332031 215.523438 524.332031 216.0625 L 524.332031 232.449219 C 524.335938 234.429688 524.480469 236.402344 524.765625 238.359375 C 525.054688 240.320312 525.480469 242.25 526.046875 244.148438 C 526.613281 246.046875 527.316406 247.894531 528.148438 249.691406 C 528.984375 251.488281 529.945312 253.214844 531.03125 254.875 C 532.117188 256.53125 533.316406 258.101562 534.628906 259.585938 C 535.945312 261.070312 537.355469 262.449219 538.871094 263.726562 C 540.386719 265.007812 541.984375 266.167969 543.667969 267.214844 C 545.347656 268.261719 547.097656 269.179688 548.914062 269.972656 L 548.914062 362.96875 C 548.9375 365.449219 548.835938 367.925781 548.605469 370.398438 C 548.375 372.867188 548.015625 375.320312 547.53125 377.753906 C 547.046875 380.1875 546.4375 382.585938 545.703125 384.957031 C 544.972656 387.328125 544.117188 389.65625 543.144531 391.9375 C 542.167969 394.21875 541.078125 396.445312 539.875 398.613281 C 538.671875 400.785156 537.359375 402.886719 535.9375 404.917969 C 534.515625 406.953125 532.992188 408.90625 531.367188 410.78125 C 529.742188 412.660156 528.027344 414.445312 526.21875 416.144531 Z M 548.914062 535.605469 L 532.527344 535.605469 L 532.527344 519.21875 L 548.914062 519.21875 Z M 548.914062 461.863281 L 532.527344 461.863281 L 532.527344 445.476562 L 548.914062 445.476562 Z M 552.683594 617.539062 L 561.695312 594.515625 C 572 598.386719 582.652344 600.574219 593.648438 601.070312 L 598.074219 601.070312 C 610.550781 601.039062 622.652344 598.878906 634.371094 594.597656 L 643.382812 617.539062 Z M 581.6875 445.476562 L 581.6875 461.863281 L 565.300781 461.863281 L 565.300781 445.476562 Z M 573.496094 420.894531 L 573.496094 404.507812 L 589.882812 404.507812 L 589.882812 420.894531 Z M 589.882812 486.445312 L 589.882812 502.832031 L 573.496094 502.832031 L 573.496094 486.445312 Z M 581.6875 519.21875 L 581.6875 535.605469 L 565.300781 535.605469 L 565.300781 519.21875 Z M 622.65625 420.894531 L 606.269531 420.894531 L 606.269531 404.507812 L 622.65625 404.507812 Z M 630.847656 453.671875 L 630.847656 470.058594 L 614.460938 470.058594 L 614.460938 453.671875 Z M 622.65625 486.445312 L 622.65625 502.832031 L 606.269531 502.832031 L 606.269531 486.445312 Z M 622.65625 535.605469 L 622.65625 551.992188 L 606.269531 551.992188 L 606.269531 535.605469 Z M 655.429688 551.992188 L 639.042969 551.992188 L 639.042969 535.605469 L 655.429688 535.605469 Z M 663.621094 453.671875 L 663.621094 470.058594 L 647.234375 470.058594 L 647.234375 453.671875 Z M 540.71875 232.449219 L 540.71875 224.253906 L 655.429688 224.253906 L 655.429688 232.449219 C 655.429688 233.253906 655.390625 234.054688 655.308594 234.855469 C 655.230469 235.660156 655.113281 236.453125 654.957031 237.242188 C 654.800781 238.03125 654.605469 238.8125 654.371094 239.582031 C 654.136719 240.355469 653.867188 241.109375 653.558594 241.855469 C 653.25 242.597656 652.90625 243.324219 652.527344 244.035156 C 652.144531 244.746094 651.734375 245.433594 651.285156 246.105469 C 650.839844 246.773438 650.359375 247.417969 649.847656 248.042969 C 649.339844 248.664062 648.796875 249.257812 648.230469 249.828125 C 647.660156 250.398438 647.0625 250.9375 646.441406 251.449219 C 645.820312 251.960938 645.171875 252.4375 644.503906 252.886719 C 643.835938 253.332031 643.144531 253.746094 642.433594 254.125 C 641.726562 254.503906 641 254.847656 640.253906 255.15625 C 639.511719 255.464844 638.753906 255.734375 637.984375 255.96875 C 637.214844 256.203125 636.433594 256.398438 635.644531 256.554688 C 634.855469 256.714844 634.058594 256.832031 633.257812 256.910156 C 632.457031 256.988281 631.652344 257.027344 630.847656 257.027344 L 565.300781 257.027344 C 564.496094 257.027344 563.691406 256.988281 562.890625 256.910156 C 562.089844 256.832031 561.296875 256.714844 560.503906 256.554688 C 559.714844 256.398438 558.9375 256.203125 558.164062 255.96875 C 557.394531 255.734375 556.636719 255.464844 555.894531 255.15625 C 555.152344 254.847656 554.421875 254.503906 553.714844 254.125 C 553.003906 253.746094 552.3125 253.332031 551.644531 252.886719 C 550.976562 252.4375 550.328125 251.960938 549.707031 251.449219 C 549.085938 250.9375 548.488281 250.398438 547.921875 249.828125 C 547.351562 249.257812 546.8125 248.664062 546.300781 248.042969 C 545.789062 247.417969 545.308594 246.773438 544.863281 246.105469 C 544.414062 245.433594 544.003906 244.746094 543.621094 244.035156 C 543.242188 243.324219 542.898438 242.597656 542.589844 241.855469 C 542.285156 241.109375 542.011719 240.355469 541.777344 239.582031 C 541.546875 238.8125 541.351562 238.03125 541.191406 237.242188 C 541.035156 236.453125 540.917969 235.660156 540.839844 234.855469 C 540.761719 234.054688 540.71875 233.253906 540.71875 232.449219 Z M 540.71875 232.449219 " fill-opacity="1" fill-rule="nonzero"/></g><g clip-path="url(#f54566b9b3)"><path fill="#001527" d="M 323.59375 322.574219 C 322.65625 322.574219 321.71875 322.621094 320.785156 322.714844 C 319.851562 322.804688 318.921875 322.941406 318 323.125 C 317.078125 323.308594 316.167969 323.539062 315.269531 323.808594 C 314.371094 324.082031 313.488281 324.398438 312.621094 324.757812 C 311.753906 325.117188 310.90625 325.519531 310.078125 325.960938 C 309.25 326.40625 308.445312 326.886719 307.664062 327.410156 C 306.882812 327.929688 306.128906 328.488281 305.402344 329.085938 C 304.675781 329.679688 303.980469 330.3125 303.316406 330.976562 C 302.652344 331.640625 302.023438 332.335938 301.425781 333.058594 C 300.832031 333.785156 300.273438 334.539062 299.75 335.320312 C 299.230469 336.101562 298.746094 336.90625 298.304688 337.734375 C 297.863281 338.5625 297.460938 339.410156 297.101562 340.277344 C 296.742188 341.144531 296.425781 342.027344 296.152344 342.929688 C 295.878906 343.828125 295.652344 344.738281 295.46875 345.65625 C 295.285156 346.578125 295.148438 347.507812 295.054688 348.441406 C 294.964844 349.375 294.917969 350.3125 294.917969 351.253906 L 294.917969 609.34375 C 294.917969 610.148438 294.957031 610.953125 295.035156 611.753906 C 295.117188 612.554688 295.234375 613.351562 295.390625 614.140625 C 295.546875 614.929688 295.742188 615.710938 295.976562 616.480469 C 296.210938 617.25 296.480469 618.007812 296.789062 618.75 C 297.097656 619.496094 297.441406 620.222656 297.820312 620.933594 C 298.199219 621.640625 298.613281 622.332031 299.0625 623 C 299.507812 623.671875 299.988281 624.316406 300.496094 624.9375 C 301.007812 625.5625 301.546875 626.15625 302.117188 626.726562 C 302.6875 627.296875 303.28125 627.835938 303.90625 628.347656 C 304.527344 628.855469 305.171875 629.335938 305.84375 629.78125 C 306.511719 630.230469 307.203125 630.644531 307.910156 631.023438 C 308.621094 631.402344 309.347656 631.746094 310.09375 632.054688 C 310.835938 632.363281 311.59375 632.632812 312.363281 632.867188 C 313.132812 633.101562 313.914062 633.296875 314.703125 633.453125 C 315.492188 633.609375 316.289062 633.726562 317.089844 633.808594 C 317.890625 633.886719 318.695312 633.925781 319.5 633.925781 L 450.59375 633.925781 C 451.398438 633.925781 452.203125 633.886719 453.003906 633.808594 C 453.804688 633.726562 454.597656 633.609375 455.386719 633.453125 C 456.179688 633.296875 456.957031 633.101562 457.726562 632.867188 C 458.5 632.632812 459.253906 632.363281 460 632.054688 C 460.742188 631.746094 461.46875 631.402344 462.179688 631.023438 C 462.890625 630.644531 463.578125 630.230469 464.25 629.78125 C 464.917969 629.335938 465.5625 628.855469 466.1875 628.347656 C 466.808594 627.835938 467.40625 627.296875 467.972656 626.726562 C 468.542969 626.15625 469.082031 625.5625 469.59375 624.9375 C 470.105469 624.316406 470.582031 623.671875 471.03125 623 C 471.476562 622.332031 471.890625 621.640625 472.269531 620.933594 C 472.648438 620.222656 472.992188 619.496094 473.300781 618.75 C 473.609375 618.007812 473.882812 617.25 474.113281 616.480469 C 474.347656 615.710938 474.542969 614.929688 474.699219 614.140625 C 474.859375 613.351562 474.976562 612.554688 475.054688 611.753906 C 475.132812 610.953125 475.171875 610.148438 475.171875 609.34375 L 475.171875 351.253906 C 475.171875 350.3125 475.128906 349.375 475.035156 348.441406 C 474.941406 347.507812 474.804688 346.578125 474.621094 345.65625 C 474.4375 344.738281 474.210938 343.828125 473.9375 342.929688 C 473.664062 342.027344 473.351562 341.144531 472.992188 340.277344 C 472.632812 339.410156 472.230469 338.5625 471.789062 337.734375 C 471.34375 336.90625 470.863281 336.101562 470.339844 335.320312 C 469.820312 334.539062 469.261719 333.785156 468.664062 333.058594 C 468.066406 332.335938 467.4375 331.640625 466.773438 330.976562 C 466.109375 330.3125 465.414062 329.679688 464.6875 329.085938 C 463.960938 328.488281 463.210938 327.929688 462.429688 327.410156 C 461.648438 326.886719 460.84375 326.40625 460.015625 325.960938 C 459.1875 325.519531 458.339844 325.117188 457.46875 324.757812 C 456.601562 324.398438 455.71875 324.082031 454.820312 323.808594 C 453.921875 323.539062 453.011719 323.308594 452.089844 323.125 C 451.167969 322.941406 450.242188 322.804688 449.308594 322.714844 C 448.371094 322.621094 447.433594 322.574219 446.496094 322.574219 C 445.6875 322.574219 444.890625 322.496094 444.097656 322.339844 C 443.308594 322.183594 442.539062 321.949219 441.792969 321.640625 C 441.046875 321.332031 440.339844 320.953125 439.667969 320.503906 C 438.996094 320.054688 438.375 319.546875 437.804688 318.976562 C 437.234375 318.40625 436.726562 317.785156 436.277344 317.113281 C 435.828125 316.441406 435.449219 315.734375 435.140625 314.988281 C 434.832031 314.242188 434.601562 313.472656 434.441406 312.683594 C 434.285156 311.890625 434.207031 311.09375 434.207031 310.285156 L 434.207031 224.253906 C 434.746094 224.253906 435.277344 224.203125 435.804688 224.097656 C 436.332031 223.992188 436.84375 223.835938 437.339844 223.632812 C 437.839844 223.425781 438.3125 223.171875 438.757812 222.875 C 439.207031 222.574219 439.621094 222.234375 440 221.855469 C 440.378906 221.472656 440.71875 221.058594 441.019531 220.613281 C 441.316406 220.164062 441.570312 219.695312 441.777344 219.195312 C 441.980469 218.699219 442.136719 218.1875 442.242188 217.660156 C 442.347656 217.132812 442.398438 216.597656 442.398438 216.0625 L 442.398438 183.289062 C 442.398438 182.75 442.347656 182.214844 442.242188 181.6875 C 442.136719 181.160156 441.980469 180.648438 441.777344 180.152344 C 441.570312 179.65625 441.316406 179.183594 441.019531 178.734375 C 440.71875 178.289062 440.378906 177.875 440 177.492188 C 439.621094 177.113281 439.207031 176.773438 438.757812 176.476562 C 438.3125 176.175781 437.839844 175.921875 437.339844 175.71875 C 436.84375 175.511719 436.332031 175.355469 435.804688 175.25 C 435.277344 175.148438 434.746094 175.09375 434.207031 175.09375 L 426.011719 175.09375 L 426.011719 166.902344 C 426.011719 165.558594 425.945312 164.222656 425.8125 162.886719 C 425.679688 161.550781 425.484375 160.226562 425.222656 158.910156 C 424.960938 157.597656 424.632812 156.296875 424.242188 155.011719 C 423.855469 153.730469 423.402344 152.46875 422.886719 151.230469 C 422.375 149.992188 421.800781 148.78125 421.167969 147.597656 C 420.535156 146.414062 419.847656 145.265625 419.101562 144.148438 C 418.355469 143.035156 417.558594 141.960938 416.707031 140.921875 C 415.855469 139.886719 414.957031 138.894531 414.007812 137.945312 C 413.058594 136.996094 412.066406 136.097656 411.027344 135.246094 C 409.992188 134.398438 408.914062 133.597656 407.800781 132.855469 C 406.683594 132.109375 405.535156 131.421875 404.351562 130.789062 C 403.167969 130.15625 401.957031 129.582031 400.71875 129.070312 C 399.480469 128.558594 398.21875 128.105469 396.933594 127.714844 C 395.652344 127.328125 394.351562 127 393.035156 126.742188 C 391.71875 126.480469 390.394531 126.28125 389.058594 126.152344 C 387.726562 126.019531 386.386719 125.953125 385.046875 125.953125 C 383.703125 125.953125 382.367188 126.019531 381.03125 126.152344 C 379.695312 126.28125 378.371094 126.480469 377.054688 126.742188 C 375.742188 127 374.441406 127.328125 373.15625 127.714844 C 371.875 128.105469 370.613281 128.558594 369.371094 129.070312 C 368.132812 129.582031 366.921875 130.15625 365.738281 130.789062 C 364.554688 131.421875 363.40625 132.109375 362.292969 132.855469 C 361.175781 133.597656 360.101562 134.398438 359.0625 135.246094 C 358.027344 136.097656 357.035156 136.996094 356.085938 137.945312 C 355.136719 138.894531 354.234375 139.886719 353.386719 140.921875 C 352.535156 141.960938 351.734375 143.035156 350.988281 144.148438 C 350.246094 145.265625 349.554688 146.414062 348.921875 147.597656 C 348.289062 148.78125 347.714844 149.992188 347.203125 151.230469 C 346.6875 152.46875 346.238281 153.730469 345.847656 155.011719 C 345.457031 156.296875 345.132812 157.597656 344.871094 158.910156 C 344.605469 160.226562 344.410156 161.550781 344.277344 162.886719 C 344.144531 164.222656 344.078125 165.558594 344.078125 166.902344 L 344.078125 175.09375 L 335.886719 175.09375 C 335.347656 175.09375 334.816406 175.148438 334.285156 175.25 C 333.757812 175.355469 333.246094 175.511719 332.75 175.71875 C 332.253906 175.921875 331.78125 176.175781 331.332031 176.476562 C 330.886719 176.773438 330.472656 177.113281 330.089844 177.492188 C 329.710938 177.875 329.371094 178.289062 329.074219 178.734375 C 328.773438 179.183594 328.519531 179.65625 328.316406 180.152344 C 328.109375 180.648438 327.953125 181.160156 327.847656 181.6875 C 327.746094 182.214844 327.691406 182.75 327.691406 183.289062 L 327.691406 216.0625 C 327.691406 216.597656 327.746094 217.132812 327.847656 217.660156 C 327.953125 218.1875 328.109375 218.699219 328.316406 219.195312 C 328.519531 219.695312 328.773438 220.164062 329.074219 220.613281 C 329.371094 221.058594 329.710938 221.472656 330.089844 221.855469 C 330.472656 222.234375 330.886719 222.574219 331.332031 222.875 C 331.78125 223.171875 332.253906 223.425781 332.75 223.632812 C 333.246094 223.835938 333.757812 223.992188 334.285156 224.097656 C 334.816406 224.203125 335.347656 224.253906 335.886719 224.253906 L 335.886719 310.285156 C 335.886719 311.09375 335.804688 311.890625 335.648438 312.683594 C 335.492188 313.472656 335.257812 314.242188 334.949219 314.988281 C 334.640625 315.734375 334.261719 316.441406 333.8125 317.113281 C 333.367188 317.785156 332.855469 318.40625 332.285156 318.976562 C 331.714844 319.546875 331.09375 320.054688 330.421875 320.503906 C 329.753906 320.953125 329.042969 321.332031 328.296875 321.640625 C 327.554688 321.949219 326.785156 322.183594 325.992188 322.339844 C 325.203125 322.496094 324.402344 322.574219 323.59375 322.574219 Z M 458.785156 609.34375 C 458.785156 609.882812 458.734375 610.414062 458.628906 610.945312 C 458.523438 611.472656 458.367188 611.984375 458.164062 612.480469 C 457.957031 612.976562 457.703125 613.449219 457.40625 613.898438 C 457.105469 614.34375 456.765625 614.757812 456.386719 615.136719 C 456.007812 615.519531 455.59375 615.859375 455.144531 616.15625 C 454.699219 616.457031 454.226562 616.707031 453.726562 616.914062 C 453.230469 617.121094 452.71875 617.277344 452.191406 617.382812 C 451.664062 617.484375 451.132812 617.539062 450.59375 617.539062 L 319.5 617.539062 C 318.960938 617.539062 318.425781 617.484375 317.898438 617.382812 C 317.371094 617.277344 316.859375 617.121094 316.363281 616.914062 C 315.867188 616.707031 315.394531 616.457031 314.945312 616.15625 C 314.5 615.859375 314.085938 615.519531 313.703125 615.136719 C 313.324219 614.757812 312.984375 614.34375 312.6875 613.898438 C 312.386719 613.449219 312.132812 612.976562 311.929688 612.480469 C 311.722656 611.984375 311.566406 611.472656 311.460938 610.945312 C 311.359375 610.414062 311.304688 609.882812 311.304688 609.34375 L 311.304688 560.183594 L 458.785156 560.183594 Z M 348.175781 486.445312 C 348.175781 485.234375 348.234375 484.03125 348.351562 482.828125 C 348.472656 481.628906 348.648438 480.433594 348.882812 479.25 C 349.121094 478.066406 349.414062 476.894531 349.761719 475.742188 C 350.113281 474.585938 350.519531 473.449219 350.980469 472.335938 C 351.445312 471.21875 351.960938 470.128906 352.527344 469.0625 C 353.097656 468 353.71875 466.964844 354.390625 465.960938 C 355.058594 464.957031 355.777344 463.988281 356.542969 463.054688 C 357.3125 462.121094 358.121094 461.226562 358.972656 460.371094 C 359.828125 459.519531 360.722656 458.707031 361.65625 457.941406 C 362.589844 457.175781 363.558594 456.457031 364.5625 455.789062 C 365.566406 455.117188 366.601562 454.496094 367.664062 453.925781 C 368.730469 453.359375 369.820312 452.84375 370.9375 452.378906 C 372.050781 451.917969 373.1875 451.511719 374.34375 451.160156 C 375.5 450.808594 376.667969 450.515625 377.851562 450.28125 C 379.035156 450.046875 380.230469 449.871094 381.433594 449.75 C 382.632812 449.632812 383.839844 449.574219 385.046875 449.574219 C 386.253906 449.574219 387.457031 449.632812 388.660156 449.75 C 389.863281 449.871094 391.054688 450.046875 392.238281 450.28125 C 393.421875 450.515625 394.59375 450.808594 395.75 451.160156 C 396.902344 451.511719 398.039062 451.917969 399.15625 452.378906 C 400.269531 452.84375 401.363281 453.359375 402.425781 453.925781 C 403.492188 454.496094 404.527344 455.117188 405.53125 455.789062 C 406.535156 456.457031 407.503906 457.175781 408.4375 457.941406 C 409.371094 458.707031 410.261719 459.519531 411.117188 460.371094 C 411.972656 461.226562 412.78125 462.121094 413.546875 463.054688 C 414.3125 463.988281 415.03125 464.957031 415.703125 465.960938 C 416.375 466.964844 416.992188 468 417.5625 469.0625 C 418.132812 470.128906 418.648438 471.21875 419.109375 472.335938 C 419.570312 473.449219 419.976562 474.585938 420.328125 475.742188 C 420.679688 476.894531 420.972656 478.066406 421.207031 479.25 C 421.441406 480.433594 421.621094 481.628906 421.738281 482.828125 C 421.855469 484.03125 421.917969 485.234375 421.917969 486.445312 C 421.917969 487.652344 421.855469 488.855469 421.738281 490.058594 C 421.621094 491.257812 421.441406 492.453125 421.207031 493.636719 C 420.972656 494.820312 420.679688 495.992188 420.328125 497.148438 C 419.976562 498.300781 419.570312 499.4375 419.109375 500.554688 C 418.648438 501.667969 418.132812 502.757812 417.5625 503.824219 C 416.992188 504.890625 416.375 505.921875 415.703125 506.929688 C 415.03125 507.933594 414.3125 508.902344 413.546875 509.835938 C 412.78125 510.765625 411.972656 511.660156 411.117188 512.515625 C 410.261719 513.367188 409.371094 514.179688 408.4375 514.945312 C 407.503906 515.710938 406.535156 516.429688 405.53125 517.101562 C 404.527344 517.769531 403.492188 518.390625 402.425781 518.960938 C 401.363281 519.53125 400.269531 520.046875 399.15625 520.507812 C 398.039062 520.96875 396.902344 521.375 395.75 521.726562 C 394.59375 522.078125 393.421875 522.371094 392.238281 522.605469 C 391.054688 522.839844 389.863281 523.019531 388.660156 523.136719 C 387.457031 523.253906 386.253906 523.3125 385.046875 523.3125 C 383.839844 523.3125 382.636719 523.25 381.433594 523.128906 C 380.234375 523.007812 379.042969 522.828125 377.859375 522.59375 C 376.675781 522.355469 375.507812 522.058594 374.351562 521.707031 C 373.199219 521.355469 372.0625 520.949219 370.949219 520.484375 C 369.835938 520.023438 368.746094 519.507812 367.679688 518.9375 C 366.617188 518.367188 365.585938 517.746094 364.582031 517.074219 C 363.578125 516.402344 362.609375 515.6875 361.675781 514.921875 C 360.746094 514.152344 359.851562 513.34375 359 512.492188 C 358.144531 511.636719 357.335938 510.746094 356.570312 509.8125 C 355.804688 508.878906 355.085938 507.910156 354.414062 506.910156 C 353.742188 505.90625 353.121094 504.871094 352.554688 503.808594 C 351.984375 502.746094 351.46875 501.65625 351.003906 500.539062 C 350.539062 499.425781 350.132812 498.292969 349.78125 497.136719 C 349.429688 495.984375 349.136719 494.8125 348.898438 493.632812 C 348.660156 492.449219 348.480469 491.257812 348.359375 490.054688 C 348.238281 488.855469 348.179688 487.652344 348.175781 486.445312 Z M 360.464844 166.902344 C 360.46875 165.640625 360.570312 164.386719 360.765625 163.144531 C 360.960938 161.898438 361.25 160.675781 361.636719 159.476562 C 362.019531 158.273438 362.492188 157.109375 363.058594 155.984375 C 363.621094 154.855469 364.265625 153.777344 364.996094 152.75 C 365.726562 151.722656 366.527344 150.757812 367.40625 149.851562 C 368.285156 148.945312 369.226562 148.113281 370.230469 147.355469 C 371.238281 146.597656 372.292969 145.917969 373.40625 145.320312 C 374.515625 144.722656 375.664062 144.214844 376.851562 143.796875 L 376.851562 158.707031 L 393.238281 158.707031 L 393.238281 143.796875 C 394.425781 144.214844 395.578125 144.722656 396.6875 145.320312 C 397.796875 145.917969 398.855469 146.597656 399.859375 147.355469 C 400.867188 148.113281 401.808594 148.945312 402.683594 149.851562 C 403.5625 150.757812 404.367188 151.722656 405.09375 152.75 C 405.824219 153.777344 406.472656 154.855469 407.035156 155.984375 C 407.597656 157.109375 408.070312 158.273438 408.457031 159.476562 C 408.839844 160.675781 409.128906 161.898438 409.328125 163.144531 C 409.523438 164.386719 409.621094 165.640625 409.625 166.902344 L 409.625 175.09375 L 360.464844 175.09375 Z M 352.273438 310.285156 L 352.273438 224.253906 L 417.820312 224.253906 L 417.820312 310.285156 C 417.820312 311.226562 417.867188 312.160156 417.957031 313.097656 C 418.050781 314.03125 418.1875 314.957031 418.371094 315.878906 C 418.554688 316.800781 418.78125 317.710938 419.054688 318.609375 C 419.328125 319.507812 419.644531 320.390625 420.003906 321.257812 C 420.363281 322.128906 420.761719 322.976562 421.207031 323.804688 C 421.648438 324.632812 422.128906 325.4375 422.652344 326.21875 C 423.175781 327 423.734375 327.75 424.328125 328.476562 C 424.925781 329.203125 425.554688 329.898438 426.21875 330.5625 C 426.882812 331.226562 427.578125 331.855469 428.304688 332.453125 C 429.03125 333.046875 429.785156 333.609375 430.5625 334.128906 C 431.34375 334.652344 432.148438 335.132812 432.976562 335.578125 C 433.804688 336.019531 434.65625 336.421875 435.523438 336.78125 C 436.390625 337.140625 437.273438 337.453125 438.171875 337.726562 C 439.070312 338 439.980469 338.226562 440.902344 338.410156 C 441.824219 338.59375 442.75 338.730469 443.683594 338.824219 C 444.621094 338.917969 445.558594 338.960938 446.496094 338.960938 C 447.304688 338.960938 448.101562 339.042969 448.894531 339.199219 C 449.683594 339.355469 450.453125 339.589844 451.199219 339.898438 C 451.945312 340.207031 452.652344 340.585938 453.324219 341.035156 C 453.996094 341.480469 454.617188 341.992188 455.1875 342.5625 C 455.757812 343.132812 456.265625 343.753906 456.714844 344.425781 C 457.164062 345.09375 457.542969 345.804688 457.851562 346.550781 C 458.160156 347.292969 458.394531 348.0625 458.550781 348.855469 C 458.707031 349.644531 458.785156 350.445312 458.785156 351.253906 L 458.785156 412.703125 L 311.304688 412.703125 L 311.304688 351.253906 C 311.304688 350.445312 311.382812 349.644531 311.542969 348.855469 C 311.699219 348.0625 311.933594 347.292969 312.242188 346.550781 C 312.550781 345.804688 312.929688 345.09375 313.375 344.425781 C 313.824219 343.753906 314.335938 343.132812 314.90625 342.5625 C 315.476562 341.992188 316.097656 341.480469 316.765625 341.035156 C 317.4375 340.585938 318.144531 340.207031 318.890625 339.898438 C 319.636719 339.589844 320.40625 339.355469 321.199219 339.199219 C 321.988281 339.042969 322.789062 338.960938 323.59375 338.960938 C 324.535156 338.960938 325.472656 338.917969 326.40625 338.824219 C 327.339844 338.730469 328.269531 338.59375 329.191406 338.410156 C 330.109375 338.226562 331.019531 338 331.917969 337.726562 C 332.820312 337.453125 333.703125 337.140625 334.570312 336.78125 C 335.4375 336.421875 336.285156 336.019531 337.113281 335.578125 C 337.941406 335.132812 338.746094 334.652344 339.527344 334.128906 C 340.308594 333.609375 341.0625 333.050781 341.789062 332.453125 C 342.511719 331.855469 343.207031 331.226562 343.871094 330.5625 C 344.535156 329.898438 345.167969 329.203125 345.761719 328.476562 C 346.359375 327.75 346.917969 327 347.4375 326.21875 C 347.960938 325.4375 348.441406 324.632812 348.886719 323.804688 C 349.328125 322.976562 349.730469 322.128906 350.089844 321.257812 C 350.449219 320.390625 350.765625 319.507812 351.039062 318.609375 C 351.308594 317.710938 351.539062 316.800781 351.722656 315.878906 C 351.90625 314.957031 352.042969 314.03125 352.132812 313.097656 C 352.226562 312.160156 352.273438 311.226562 352.273438 310.285156 Z M 352.273438 310.285156 " fill-opacity="1" fill-rule="nonzero"/></g><g clip-path="url(#5c2f5348ba)"><path fill="#ffffff" d="M 225.074219 110.453125 L 484.550781 110.453125 L 484.550781 645.625 L 225.074219 645.625 Z M 225.074219 110.453125 " fill-opacity="1" fill-rule="nonzero"/></g><g clip-path="url(#f957102a92)"><path fill="#001527" d="M 136.632812 223.855469 C 119.527344 223.855469 105.480469 237.816406 105.480469 255.007812 L 105.480469 602.703125 C 105.480469 619.644531 119.269531 633.347656 136.125 633.347656 L 416.664062 633.347656 C 433.515625 633.347656 447.304688 619.644531 447.304688 602.703125 L 447.304688 255.007812 C 447.304688 237.816406 433.261719 223.855469 416.152344 223.855469 C 408.324219 223.855469 401.9375 217.472656 401.9375 209.726562 L 401.9375 204.363281 C 420.917969 200.789062 435.390625 183.9375 435.390625 163.851562 C 435.390625 141.125 416.917969 122.65625 394.191406 122.65625 L 158.59375 122.65625 C 135.867188 122.65625 117.398438 141.125 117.398438 163.851562 C 117.398438 183.9375 131.867188 200.789062 150.847656 204.363281 L 150.847656 209.726562 C 150.847656 217.472656 144.464844 223.855469 136.632812 223.855469 Z M 134.421875 163.851562 C 134.421875 150.570312 145.230469 139.675781 158.59375 139.675781 L 394.191406 139.675781 C 407.472656 139.675781 418.367188 150.570312 418.367188 163.851562 C 418.367188 177.214844 407.554688 188.023438 394.277344 188.109375 L 394.191406 188.109375 C 393.9375 188.023438 393.683594 188.023438 393.425781 188.023438 L 159.359375 188.023438 C 159.105469 188.023438 158.847656 188.023438 158.59375 188.109375 L 158.507812 188.109375 C 145.144531 188.023438 134.421875 177.214844 134.421875 163.851562 Z M 167.871094 209.726562 L 167.871094 205.132812 L 384.914062 205.132812 L 384.914062 209.726562 C 384.914062 226.835938 398.960938 240.878906 416.152344 240.878906 C 423.898438 240.878906 430.28125 247.179688 430.28125 255.007812 L 430.28125 602.703125 C 430.28125 610.195312 424.152344 616.324219 416.664062 616.324219 L 136.125 616.324219 C 128.632812 616.324219 122.503906 610.195312 122.503906 602.703125 L 122.503906 255.007812 C 122.503906 247.179688 128.890625 240.878906 136.632812 240.878906 C 153.828125 240.878906 167.871094 226.835938 167.871094 209.726562 Z M 167.871094 209.726562 " fill-opacity="1" fill-rule="nonzero"/></g><path fill="#001527" d="M 163.105469 534.441406 L 389.683594 534.441406 C 394.449219 534.441406 398.195312 530.613281 398.195312 525.929688 L 398.195312 340.71875 C 398.195312 336.039062 394.449219 332.207031 389.683594 332.207031 L 163.105469 332.207031 C 158.339844 332.207031 154.59375 336.039062 154.59375 340.71875 L 154.59375 525.929688 C 154.59375 530.613281 158.339844 534.441406 163.105469 534.441406 Z M 163.105469 534.441406 " fill-opacity="1" fill-rule="nonzero"/></svg>