<svg xmlns="http://www.w3.org/2000/svg" xmlns:xlink="http://www.w3.org/1999/xlink" width="1080" zoomAndPan="magnify" viewBox="0 0 810 809.999993" height="1080" preserveAspectRatio="xMidYMid meet" version="1.0"><defs><clipPath id="e338619f87"><path d="M 128.074219 250 L 395 250 L 395 696 L 128.074219 696 Z M 128.074219 250 " clip-rule="nonzero"/></clipPath><clipPath id="afed0e5c61"><path d="M 664 609 L 681.574219 609 L 681.574219 647 L 664 647 Z M 664 609 " clip-rule="nonzero"/></clipPath><clipPath id="84095eb4c6"><path d="M 177 56.453125 L 345 56.453125 L 345 109 L 177 109 Z M 177 56.453125 " clip-rule="nonzero"/></clipPath><clipPath id="cd8c8e7a66"><path d="M 313 492 L 681.574219 492 L 681.574219 707 L 313 707 Z M 313 492 " clip-rule="nonzero"/></clipPath><clipPath id="197d96b619"><path d="M 128.074219 250 L 395 250 L 395 696 L 128.074219 696 Z M 128.074219 250 " clip-rule="nonzero"/></clipPath><clipPath id="47d2865f47"><path d="M 664 609 L 681.574219 609 L 681.574219 647 L 664 647 Z M 664 609 " clip-rule="nonzero"/></clipPath><clipPath id="6b94c95aeb"><path d="M 177 56.453125 L 345 56.453125 L 345 109 L 177 109 Z M 177 56.453125 " clip-rule="nonzero"/></clipPath><clipPath id="9f1b71f234"><path d="M 313 492 L 681.574219 492 L 681.574219 707 L 313 707 Z M 313 492 " clip-rule="nonzero"/></clipPath></defs><g clip-path="url(#e338619f87)"><path fill="#001527" d="M 141.59375 695.90625 L 293.480469 695.90625 L 293.480469 522.980469 C 293.480469 522.8125 293.480469 522.640625 293.480469 522.472656 C 293.410156 521.496094 293.488281 520.527344 293.707031 519.570312 C 293.925781 518.613281 294.28125 517.710938 294.769531 516.859375 C 295.257812 516.011719 295.859375 515.25 296.578125 514.578125 C 297.292969 513.910156 298.09375 513.359375 298.972656 512.925781 L 394.054688 466.371094 L 394.054688 414.058594 C 394.050781 368.183594 388.757812 322.929688 378.167969 278.292969 C 359.707031 276.703125 349.160156 269.335938 339.742188 262.804688 C 330.320312 256.269531 322.152344 250.496094 305.113281 250.496094 C 288.074219 250.496094 279.933594 256.199219 270.484375 262.804688 C 259.855469 270.238281 247.8125 278.660156 224.566406 278.660156 C 201.316406 278.660156 189.277344 270.210938 178.644531 262.804688 C 170.632812 257.171875 163.535156 252.257812 151.171875 250.890625 C 143.503906 277.414062 137.730469 304.34375 133.855469 331.679688 C 129.976562 359.015625 128.03125 386.488281 128.019531 414.097656 L 128.019531 682.332031 C 128.019531 683.222656 128.109375 684.105469 128.28125 684.976562 C 128.457031 685.851562 128.714844 686.699219 129.054688 687.523438 C 129.398438 688.347656 129.816406 689.128906 130.3125 689.867188 C 130.808594 690.609375 131.371094 691.296875 132 691.925781 C 132.628906 692.554688 133.316406 693.117188 134.054688 693.613281 C 134.796875 694.109375 135.578125 694.527344 136.402344 694.867188 C 137.226562 695.210938 138.074219 695.46875 138.945312 695.640625 C 139.820312 695.816406 140.703125 695.90625 141.59375 695.90625 Z M 141.59375 695.90625 " fill-opacity="1" fill-rule="nonzero"/></g><g clip-path="url(#afed0e5c61)"><path fill="#001527" d="M 664.679688 628.003906 C 664.675781 629.15625 664.785156 630.304688 664.996094 631.4375 C 665.210938 632.574219 665.53125 633.679688 665.957031 634.753906 C 666.378906 635.828125 666.902344 636.855469 667.519531 637.832031 C 668.136719 638.808594 668.839844 639.71875 669.632812 640.558594 C 670.421875 641.402344 671.285156 642.164062 672.21875 642.84375 C 673.152344 643.523438 674.144531 644.109375 675.1875 644.601562 C 676.234375 645.09375 677.316406 645.484375 678.4375 645.769531 C 679.554688 646.058594 680.691406 646.238281 681.84375 646.308594 L 681.84375 609.738281 C 680.695312 609.808594 679.558594 609.988281 678.441406 610.277344 C 677.324219 610.5625 676.242188 610.949219 675.199219 611.441406 C 674.15625 611.933594 673.164062 612.515625 672.230469 613.195312 C 671.296875 613.871094 670.4375 614.632812 669.644531 615.472656 C 668.855469 616.3125 668.152344 617.21875 667.53125 618.195312 C 666.914062 619.167969 666.394531 620.191406 665.96875 621.261719 C 665.542969 622.335938 665.222656 623.4375 665.003906 624.570312 C 664.789062 625.707031 664.679688 626.847656 664.679688 628.003906 Z M 664.679688 628.003906 " fill-opacity="1" fill-rule="nonzero"/></g><path fill="#001527" d="M 363.75 668.320312 C 364.261719 668.320312 364.773438 668.269531 365.273438 668.167969 C 365.777344 668.070312 366.265625 667.921875 366.742188 667.722656 C 367.214844 667.527344 367.667969 667.285156 368.09375 667 C 368.519531 666.714844 368.914062 666.390625 369.277344 666.027344 C 369.640625 665.664062 369.964844 665.269531 370.25 664.84375 C 370.535156 664.417969 370.777344 663.964844 370.972656 663.492188 C 371.167969 663.015625 371.316406 662.527344 371.414062 662.023438 C 371.515625 661.519531 371.566406 661.011719 371.566406 660.5 C 371.566406 659.984375 371.515625 659.476562 371.414062 658.972656 C 371.3125 658.46875 371.164062 657.980469 370.96875 657.507812 C 370.769531 657.03125 370.53125 656.582031 370.246094 656.15625 C 369.960938 655.730469 369.632812 655.335938 369.269531 654.972656 C 368.90625 654.609375 368.511719 654.285156 368.085938 654 C 367.660156 653.714844 367.207031 653.476562 366.734375 653.28125 C 366.257812 653.082031 365.769531 652.9375 365.265625 652.835938 C 364.761719 652.738281 364.253906 652.6875 363.742188 652.6875 C 363.226562 652.6875 362.71875 652.738281 362.214844 652.839844 C 361.710938 652.941406 361.222656 653.089844 360.75 653.285156 C 360.273438 653.484375 359.824219 653.726562 359.398438 654.011719 C 358.972656 654.296875 358.578125 654.621094 358.214844 654.984375 C 357.851562 655.347656 357.527344 655.746094 357.246094 656.171875 C 356.960938 656.597656 356.71875 657.050781 356.523438 657.523438 C 356.328125 658 356.179688 658.488281 356.082031 658.992188 C 355.984375 659.496094 355.933594 660.003906 355.933594 660.519531 C 355.933594 661.03125 355.984375 661.539062 356.085938 662.039062 C 356.1875 662.542969 356.335938 663.03125 356.535156 663.503906 C 356.730469 663.976562 356.972656 664.425781 357.257812 664.851562 C 357.542969 665.277344 357.867188 665.671875 358.226562 666.035156 C 358.589844 666.398438 358.984375 666.71875 359.414062 667.003906 C 359.839844 667.289062 360.289062 667.53125 360.761719 667.726562 C 361.234375 667.921875 361.722656 668.070312 362.226562 668.167969 C 362.730469 668.269531 363.238281 668.320312 363.75 668.320312 Z M 363.75 668.320312 " fill-opacity="1" fill-rule="nonzero"/><path fill="#001527" d="M 358.527344 568.957031 C 358.527344 569.128906 358.492188 569.292969 358.425781 569.453125 C 358.359375 569.613281 358.265625 569.75 358.144531 569.875 C 358.023438 569.996094 357.882812 570.089844 357.726562 570.152344 C 357.566406 570.21875 357.402344 570.253906 357.230469 570.253906 C 357.058594 570.253906 356.894531 570.21875 356.734375 570.152344 C 356.574219 570.089844 356.433594 569.996094 356.3125 569.875 C 356.191406 569.75 356.097656 569.613281 356.03125 569.453125 C 355.96875 569.292969 355.933594 569.128906 355.933594 568.957031 C 355.933594 568.785156 355.96875 568.621094 356.03125 568.460938 C 356.097656 568.300781 356.191406 568.164062 356.3125 568.042969 C 356.433594 567.917969 356.574219 567.824219 356.734375 567.761719 C 356.894531 567.695312 357.058594 567.660156 357.230469 567.660156 C 357.402344 567.660156 357.566406 567.695312 357.726562 567.761719 C 357.882812 567.824219 358.023438 567.917969 358.144531 568.042969 C 358.265625 568.164062 358.359375 568.300781 358.425781 568.460938 C 358.492188 568.621094 358.527344 568.785156 358.527344 568.957031 Z M 358.527344 568.957031 " fill-opacity="1" fill-rule="nonzero"/><g clip-path="url(#84095eb4c6)"><path fill="#001527" d="M 196.230469 108.707031 L 331.515625 108.707031 C 332.394531 108.703125 333.265625 108.617188 334.125 108.445312 C 334.988281 108.273438 335.824219 108.019531 336.632812 107.683594 C 337.445312 107.347656 338.214844 106.933594 338.945312 106.445312 C 339.675781 105.957031 340.351562 105.402344 340.972656 104.78125 C 341.59375 104.164062 342.148438 103.488281 342.636719 102.757812 C 343.125 102.027344 343.535156 101.257812 343.871094 100.445312 C 344.207031 99.632812 344.460938 98.796875 344.636719 97.9375 C 344.808594 97.074219 344.894531 96.207031 344.894531 95.328125 L 344.894531 69.980469 C 344.894531 69.101562 344.808594 68.234375 344.636719 67.371094 C 344.460938 66.511719 344.207031 65.675781 343.871094 64.863281 C 343.535156 64.050781 343.125 63.28125 342.636719 62.550781 C 342.148438 61.820312 341.59375 61.144531 340.972656 60.523438 C 340.351562 59.902344 339.675781 59.351562 338.945312 58.863281 C 338.214844 58.375 337.445312 57.960938 336.632812 57.625 C 335.824219 57.289062 334.988281 57.035156 334.125 56.863281 C 333.265625 56.691406 332.394531 56.605469 331.515625 56.601562 L 190.585938 56.601562 C 189.707031 56.605469 188.835938 56.691406 187.976562 56.863281 C 187.113281 57.035156 186.277344 57.289062 185.46875 57.625 C 184.65625 57.960938 183.886719 58.375 183.15625 58.863281 C 182.425781 59.347656 181.75 59.902344 181.128906 60.523438 C 180.507812 61.144531 179.953125 61.820312 179.464844 62.550781 C 178.976562 63.28125 178.566406 64.050781 178.230469 64.863281 C 177.894531 65.675781 177.640625 66.511719 177.464844 67.371094 C 177.292969 68.234375 177.207031 69.101562 177.207031 69.980469 L 177.207031 95.328125 C 177.207031 96.207031 177.292969 97.074219 177.464844 97.9375 C 177.640625 98.796875 177.894531 99.632812 178.230469 100.445312 C 178.566406 101.257812 178.976562 102.027344 179.464844 102.757812 C 179.953125 103.488281 180.507812 104.164062 181.128906 104.78125 C 181.75 105.402344 182.425781 105.957031 183.15625 106.445312 C 183.886719 106.933594 184.65625 107.347656 185.46875 107.683594 C 186.277344 108.019531 187.113281 108.273438 187.976562 108.445312 C 188.835938 108.617188 189.707031 108.703125 190.585938 108.707031 Z M 196.230469 108.707031 " fill-opacity="1" fill-rule="nonzero"/></g><path fill="#001527" d="M 534.871094 463.738281 C 534.171875 463.738281 533.472656 463.773438 532.773438 463.84375 C 532.078125 463.914062 531.386719 464.015625 530.699219 464.152344 C 530.011719 464.289062 529.332031 464.460938 528.660156 464.664062 C 527.988281 464.871094 527.332031 465.105469 526.683594 465.375 C 526.035156 465.644531 525.402344 465.941406 524.785156 466.273438 C 524.167969 466.601562 523.566406 466.964844 522.984375 467.351562 C 522.402344 467.742188 521.839844 468.160156 521.296875 468.605469 C 520.753906 469.046875 520.238281 469.519531 519.742188 470.015625 C 519.246094 470.507812 518.773438 471.027344 518.328125 471.570312 C 517.882812 472.113281 517.46875 472.671875 517.078125 473.257812 C 516.6875 473.839844 516.328125 474.4375 515.996094 475.054688 C 515.664062 475.675781 515.363281 476.308594 515.097656 476.953125 C 514.828125 477.601562 514.589844 478.261719 514.386719 478.929688 C 514.183594 479.601562 514.011719 480.28125 513.871094 480.96875 C 513.734375 481.65625 513.632812 482.347656 513.5625 483.042969 C 513.492188 483.742188 513.457031 484.441406 513.453125 485.140625 C 513.460938 487.035156 512.957031 488.78125 511.949219 490.378906 L 556.320312 485.804688 C 556.320312 485.59375 556.320312 485.367188 556.320312 485.140625 C 556.316406 484.441406 556.28125 483.742188 556.210938 483.042969 C 556.140625 482.34375 556.039062 481.652344 555.898438 480.964844 C 555.761719 480.277344 555.589844 479.597656 555.386719 478.925781 C 555.179688 478.253906 554.945312 477.59375 554.675781 476.949219 C 554.40625 476.300781 554.105469 475.667969 553.773438 475.046875 C 553.441406 474.429688 553.082031 473.828125 552.691406 473.246094 C 552.300781 472.664062 551.882812 472.101562 551.4375 471.558594 C 550.992188 471.019531 550.519531 470.5 550.023438 470.003906 C 549.527344 469.507812 549.007812 469.039062 548.464844 468.59375 C 547.921875 468.148438 547.359375 467.734375 546.773438 467.34375 C 546.191406 466.953125 545.589844 466.59375 544.972656 466.265625 C 544.351562 465.933594 543.71875 465.632812 543.070312 465.367188 C 542.421875 465.097656 541.761719 464.863281 541.089844 464.660156 C 540.417969 464.457031 539.738281 464.285156 539.050781 464.148438 C 538.363281 464.011719 537.671875 463.910156 536.972656 463.839844 C 536.273438 463.773438 535.574219 463.738281 534.871094 463.738281 Z M 534.871094 463.738281 " fill-opacity="1" fill-rule="nonzero"/><path fill="#001527" d="M 189.9375 246.582031 C 199.371094 253.183594 207.527344 258.890625 224.550781 258.890625 C 241.574219 258.890625 249.742188 253.199219 259.179688 246.582031 C 269.808594 239.144531 281.863281 230.726562 305.097656 230.726562 C 328.332031 230.726562 340.386719 239.175781 351.019531 246.582031 C 357.738281 251.269531 363.804688 255.496094 372.847656 257.550781 C 360.40625 212.398438 342.816406 169.351562 320.082031 128.40625 L 202.003906 128.40625 C 183.71875 161.410156 168.746094 195.855469 157.085938 231.738281 C 172.136719 234.1875 181.488281 240.695312 189.9375 246.582031 Z M 189.9375 246.582031 " fill-opacity="1" fill-rule="nonzero"/><path fill="#001527" d="M 357.34375 506.308594 L 496.457031 491.972656 C 495.5625 491.058594 494.871094 490.011719 494.386719 488.832031 C 493.898438 487.648438 493.648438 486.417969 493.640625 485.140625 C 493.628906 483.800781 493.679688 482.464844 493.796875 481.128906 C 493.914062 479.792969 494.097656 478.464844 494.34375 477.148438 C 494.589844 475.832031 494.902344 474.527344 495.277344 473.242188 C 495.648438 471.953125 496.085938 470.6875 496.585938 469.441406 C 497.082031 468.199219 497.640625 466.980469 498.257812 465.789062 C 498.875 464.601562 499.550781 463.445312 500.28125 462.320312 C 501.011719 461.195312 501.792969 460.109375 502.632812 459.0625 C 503.46875 458.015625 504.355469 457.011719 505.289062 456.050781 C 506.222656 455.089844 507.203125 454.175781 508.226562 453.3125 C 509.253906 452.445312 510.316406 451.632812 511.421875 450.871094 C 512.523438 450.109375 513.664062 449.40625 514.835938 448.757812 C 516.007812 448.105469 517.210938 447.515625 518.441406 446.984375 C 519.671875 446.453125 520.925781 445.980469 522.203125 445.570312 C 523.476562 445.164062 524.769531 444.816406 526.082031 444.53125 C 527.390625 444.25 528.714844 444.03125 530.046875 443.878906 C 531.378906 443.726562 532.714844 443.636719 534.054688 443.613281 C 535.394531 443.589844 536.734375 443.632812 538.070312 443.742188 C 539.40625 443.847656 540.734375 444.023438 542.050781 444.257812 C 543.371094 444.496094 544.675781 444.800781 545.964844 445.164062 C 547.257812 445.53125 548.527344 445.957031 549.773438 446.445312 C 551.023438 446.9375 552.242188 447.484375 553.4375 448.09375 C 554.632812 448.703125 555.792969 449.371094 556.921875 450.09375 C 558.050781 450.816406 559.144531 451.589844 560.195312 452.421875 C 561.25 453.25 562.261719 454.128906 563.226562 455.058594 C 564.195312 455.984375 565.113281 456.957031 565.988281 457.976562 C 566.859375 458.996094 567.679688 460.054688 568.449219 461.152344 C 569.214844 462.25 569.929688 463.382812 570.585938 464.550781 C 571.246094 465.71875 571.84375 466.917969 572.386719 468.144531 C 572.925781 469.371094 573.40625 470.621094 573.824219 471.894531 C 574.242188 473.167969 574.597656 474.460938 574.890625 475.769531 C 575.179688 477.078125 575.410156 478.398438 575.570312 479.726562 C 575.734375 481.058594 575.832031 482.394531 575.863281 483.734375 L 667.972656 474.242188 L 607.703125 421.816406 C 607.328125 422.339844 606.929688 422.84375 606.503906 423.324219 C 606.078125 423.808594 605.628906 424.265625 605.15625 424.703125 C 604.683594 425.136719 604.1875 425.550781 603.675781 425.933594 C 603.160156 426.320312 602.625 426.679688 602.074219 427.011719 C 601.523438 427.339844 600.957031 427.644531 600.371094 427.917969 C 599.789062 428.1875 599.195312 428.433594 598.585938 428.644531 C 597.980469 428.855469 597.363281 429.035156 596.738281 429.183594 C 596.113281 429.332031 595.480469 429.449219 594.839844 429.535156 C 594.203125 429.617188 593.5625 429.667969 592.921875 429.6875 C 592.277344 429.707031 591.632812 429.691406 590.992188 429.644531 C 590.351562 429.597656 589.714844 429.515625 589.082031 429.40625 C 588.445312 429.292969 587.820312 429.148438 587.203125 428.96875 C 586.582031 428.792969 585.976562 428.585938 585.378906 428.347656 C 584.78125 428.109375 584.195312 427.839844 583.628906 427.539062 C 583.058594 427.242188 582.503906 426.914062 581.96875 426.558594 C 581.433594 426.203125 580.914062 425.820312 580.417969 425.414062 C 579.921875 425.003906 579.445312 424.570312 578.992188 424.113281 C 578.539062 423.65625 578.113281 423.179688 577.707031 422.675781 C 577.304688 422.175781 576.929688 421.65625 576.578125 421.117188 C 576.226562 420.578125 575.90625 420.019531 575.613281 419.449219 C 575.316406 418.875 575.054688 418.289062 574.820312 417.691406 C 574.589844 417.089844 574.386719 416.480469 574.214844 415.859375 C 574.042969 415.238281 573.90625 414.613281 573.796875 413.976562 C 573.691406 413.34375 573.617188 412.703125 573.578125 412.0625 C 573.535156 411.421875 573.527344 410.777344 573.550781 410.136719 C 573.574219 409.492188 573.632812 408.851562 573.722656 408.214844 C 573.8125 407.578125 573.9375 406.949219 574.089844 406.324219 C 574.246094 405.699219 574.433594 405.082031 574.648438 404.476562 C 574.867188 403.871094 575.117188 403.28125 575.394531 402.699219 C 575.671875 402.121094 575.980469 401.554688 576.316406 401.007812 C 576.652344 400.457031 577.015625 399.929688 577.40625 399.417969 C 577.796875 398.90625 578.210938 398.414062 578.652344 397.945312 Z M 357.34375 506.308594 " fill-opacity="1" fill-rule="nonzero"/><path fill="#001527" d="M 605.804688 531.640625 C 606.039062 531.640625 606.242188 531.554688 606.410156 531.390625 C 606.578125 531.222656 606.660156 531.019531 606.660156 530.78125 C 606.660156 530.542969 606.578125 530.339844 606.410156 530.175781 C 606.242188 530.007812 606.039062 529.921875 605.804688 529.921875 C 605.566406 529.921875 605.363281 530.007812 605.195312 530.175781 C 605.027344 530.339844 604.945312 530.542969 604.945312 530.78125 C 604.941406 531.019531 605.023438 531.222656 605.191406 531.394531 C 605.359375 531.5625 605.5625 531.644531 605.804688 531.640625 Z M 605.804688 531.640625 " fill-opacity="1" fill-rule="nonzero"/><g clip-path="url(#cd8c8e7a66)"><path fill="#001527" d="M 313.195312 706.945312 L 681.84375 668.925781 L 681.84375 665.96875 C 680.601562 665.96875 679.359375 665.90625 678.117188 665.785156 C 676.878906 665.664062 675.648438 665.480469 674.425781 665.238281 C 673.207031 664.992188 672 664.691406 670.808594 664.332031 C 669.617188 663.96875 668.445312 663.550781 667.296875 663.074219 C 666.144531 662.597656 665.019531 662.066406 663.921875 661.476562 C 662.824219 660.890625 661.757812 660.25 660.722656 659.558594 C 659.6875 658.867188 658.6875 658.125 657.726562 657.335938 C 656.761719 656.546875 655.839844 655.710938 654.960938 654.832031 C 654.078125 653.949219 653.246094 653.027344 652.453125 652.066406 C 651.664062 651.105469 650.921875 650.105469 650.230469 649.070312 C 649.539062 648.035156 648.902344 646.96875 648.3125 645.871094 C 647.726562 644.769531 647.195312 643.648438 646.71875 642.496094 C 646.242188 641.347656 645.824219 640.175781 645.460938 638.984375 C 645.101562 637.792969 644.796875 636.585938 644.554688 635.363281 C 644.3125 634.140625 644.128906 632.914062 644.007812 631.671875 C 643.886719 630.433594 643.824219 629.191406 643.824219 627.945312 C 643.824219 626.699219 643.886719 625.457031 644.007812 624.21875 C 644.128906 622.980469 644.3125 621.75 644.554688 620.527344 C 644.796875 619.308594 645.101562 618.101562 645.460938 616.910156 C 645.824219 615.71875 646.242188 614.546875 646.71875 613.394531 C 647.195312 612.246094 647.726562 611.121094 648.3125 610.023438 C 648.902344 608.925781 649.539062 607.859375 650.230469 606.824219 C 650.921875 605.789062 651.664062 604.789062 652.453125 603.824219 C 653.246094 602.863281 654.078125 601.941406 654.960938 601.0625 C 655.839844 600.179688 656.761719 599.34375 657.726562 598.554688 C 658.6875 597.765625 659.6875 597.023438 660.722656 596.332031 C 661.757812 595.640625 662.824219 595 663.921875 594.414062 C 665.019531 593.828125 666.144531 593.296875 667.296875 592.820312 C 668.445312 592.34375 669.617188 591.925781 670.808594 591.5625 C 672 591.199219 673.207031 590.898438 674.425781 590.65625 C 675.648438 590.414062 676.878906 590.230469 678.117188 590.109375 C 679.359375 589.984375 680.601562 589.925781 681.84375 589.925781 L 681.84375 492.621094 L 313.195312 530.640625 Z M 605.804688 511.925781 C 606.421875 511.925781 607.039062 511.957031 607.652344 512.015625 C 608.269531 512.078125 608.878906 512.167969 609.484375 512.289062 C 610.089844 512.410156 610.691406 512.558594 611.28125 512.738281 C 611.871094 512.917969 612.453125 513.125 613.023438 513.363281 C 613.597656 513.597656 614.15625 513.863281 614.699219 514.15625 C 615.246094 514.445312 615.773438 514.761719 616.289062 515.105469 C 616.800781 515.449219 617.296875 515.816406 617.777344 516.210938 C 618.253906 516.601562 618.710938 517.015625 619.148438 517.453125 C 619.585938 517.890625 620 518.347656 620.390625 518.828125 C 620.785156 519.304688 621.152344 519.800781 621.496094 520.3125 C 621.835938 520.828125 622.15625 521.359375 622.445312 521.902344 C 622.738281 522.449219 623 523.007812 623.238281 523.578125 C 623.472656 524.148438 623.683594 524.730469 623.863281 525.320312 C 624.039062 525.914062 624.191406 526.511719 624.3125 527.117188 C 624.429688 527.722656 624.523438 528.335938 624.582031 528.949219 C 624.644531 529.566406 624.671875 530.183594 624.671875 530.800781 C 624.671875 531.417969 624.640625 532.035156 624.582031 532.648438 C 624.519531 533.265625 624.429688 533.875 624.308594 534.480469 C 624.1875 535.089844 624.039062 535.6875 623.859375 536.277344 C 623.679688 536.871094 623.472656 537.449219 623.234375 538.023438 C 622.996094 538.59375 622.734375 539.152344 622.441406 539.695312 C 622.148438 540.242188 621.832031 540.769531 621.488281 541.285156 C 621.144531 541.796875 620.777344 542.292969 620.386719 542.769531 C 619.992188 543.25 619.578125 543.707031 619.140625 544.144531 C 618.703125 544.582031 618.246094 544.996094 617.769531 545.386719 C 617.289062 545.777344 616.792969 546.144531 616.28125 546.488281 C 615.765625 546.832031 615.238281 547.148438 614.691406 547.441406 C 614.144531 547.730469 613.585938 547.996094 613.015625 548.230469 C 612.445312 548.46875 611.863281 548.675781 611.273438 548.855469 C 610.679688 549.035156 610.082031 549.183594 609.476562 549.304688 C 608.871094 549.425781 608.257812 549.515625 607.644531 549.574219 C 607.027344 549.636719 606.410156 549.664062 605.792969 549.664062 C 605.175781 549.664062 604.558594 549.632812 603.945312 549.574219 C 603.328125 549.511719 602.71875 549.421875 602.113281 549.300781 C 601.503906 549.179688 600.90625 549.03125 600.316406 548.847656 C 599.722656 548.667969 599.144531 548.460938 598.570312 548.226562 C 598 547.988281 597.441406 547.722656 596.898438 547.433594 C 596.351562 547.140625 595.824219 546.824219 595.308594 546.480469 C 594.796875 546.136719 594.300781 545.765625 593.824219 545.375 C 593.347656 544.980469 592.886719 544.566406 592.453125 544.128906 C 592.015625 543.691406 591.601562 543.234375 591.207031 542.757812 C 590.816406 542.277344 590.449219 541.78125 590.105469 541.269531 C 589.761719 540.753906 589.445312 540.226562 589.15625 539.679688 C 588.863281 539.132812 588.601562 538.574219 588.363281 538.003906 C 588.128906 537.433594 587.921875 536.851562 587.742188 536.261719 C 587.5625 535.667969 587.414062 535.070312 587.292969 534.464844 C 587.171875 533.855469 587.082031 533.246094 587.023438 532.632812 C 586.960938 532.015625 586.933594 531.398438 586.933594 530.78125 C 586.933594 530.164062 586.964844 529.546875 587.027344 528.933594 C 587.089844 528.320312 587.179688 527.707031 587.300781 527.101562 C 587.421875 526.496094 587.574219 525.898438 587.753906 525.308594 C 587.933594 524.71875 588.140625 524.136719 588.378906 523.566406 C 588.613281 522.996094 588.878906 522.4375 589.171875 521.894531 C 589.460938 521.351562 589.777344 520.820312 590.121094 520.308594 C 590.464844 519.792969 590.832031 519.300781 591.226562 518.820312 C 591.617188 518.34375 592.03125 517.886719 592.46875 517.453125 C 592.90625 517.015625 593.363281 516.601562 593.839844 516.210938 C 594.316406 515.816406 594.8125 515.449219 595.328125 515.105469 C 595.839844 514.765625 596.371094 514.445312 596.914062 514.15625 C 597.460938 513.863281 598.015625 513.601562 598.585938 513.363281 C 599.15625 513.128906 599.738281 512.921875 600.328125 512.742188 C 600.921875 512.5625 601.519531 512.410156 602.125 512.289062 C 602.730469 512.167969 603.339844 512.078125 603.953125 512.019531 C 604.570312 511.957031 605.183594 511.925781 605.804688 511.925781 Z M 509.847656 570.253906 C 510.839844 570.253906 511.832031 570.300781 512.816406 570.398438 C 513.804688 570.496094 514.785156 570.640625 515.757812 570.835938 C 516.730469 571.027344 517.691406 571.269531 518.640625 571.558594 C 519.589844 571.84375 520.523438 572.179688 521.441406 572.558594 C 522.355469 572.9375 523.253906 573.363281 524.128906 573.828125 C 525.003906 574.296875 525.851562 574.804688 526.675781 575.359375 C 527.503906 575.910156 528.296875 576.5 529.066406 577.128906 C 529.832031 577.757812 530.566406 578.421875 531.265625 579.125 C 531.96875 579.824219 532.632812 580.558594 533.265625 581.328125 C 533.894531 582.09375 534.484375 582.890625 535.035156 583.714844 C 535.585938 584.539062 536.09375 585.390625 536.5625 586.265625 C 537.03125 587.140625 537.453125 588.035156 537.832031 588.953125 C 538.214844 589.867188 538.546875 590.800781 538.835938 591.75 C 539.121094 592.699219 539.363281 593.660156 539.558594 594.632812 C 539.75 595.605469 539.894531 596.585938 539.992188 597.574219 C 540.089844 598.5625 540.140625 599.550781 540.140625 600.542969 C 540.140625 601.535156 540.089844 602.523438 539.992188 603.511719 C 539.894531 604.5 539.75 605.480469 539.558594 606.453125 C 539.363281 607.425781 539.121094 608.386719 538.835938 609.335938 C 538.546875 610.285156 538.214844 611.21875 537.832031 612.132812 C 537.453125 613.050781 537.03125 613.945312 536.5625 614.820312 C 536.09375 615.695312 535.585938 616.546875 535.035156 617.371094 C 534.484375 618.195312 533.894531 618.992188 533.265625 619.757812 C 532.632812 620.527344 531.96875 621.257812 531.265625 621.960938 C 530.566406 622.664062 529.832031 623.328125 529.066406 623.957031 C 528.296875 624.585938 527.503906 625.175781 526.675781 625.726562 C 525.851562 626.28125 525.003906 626.789062 524.128906 627.257812 C 523.253906 627.722656 522.355469 628.148438 521.441406 628.527344 C 520.523438 628.90625 519.589844 629.242188 518.640625 629.527344 C 517.691406 629.816406 516.730469 630.058594 515.757812 630.25 C 514.785156 630.445312 513.804688 630.589844 512.816406 630.6875 C 511.832031 630.785156 510.839844 630.832031 509.847656 630.832031 C 508.855469 630.832031 507.867188 630.785156 506.878906 630.6875 C 505.894531 630.589844 504.914062 630.445312 503.941406 630.25 C 502.96875 630.058594 502.003906 629.816406 501.054688 629.527344 C 500.105469 629.242188 499.175781 628.90625 498.257812 628.527344 C 497.339844 628.148438 496.445312 627.722656 495.570312 627.257812 C 494.695312 626.789062 493.847656 626.28125 493.019531 625.726562 C 492.195312 625.175781 491.398438 624.585938 490.632812 623.957031 C 489.867188 623.328125 489.132812 622.664062 488.429688 621.960938 C 487.730469 621.257812 487.0625 620.527344 486.433594 619.757812 C 485.804688 618.992188 485.214844 618.195312 484.664062 617.371094 C 484.113281 616.546875 483.601562 615.695312 483.136719 614.820312 C 482.667969 613.945312 482.246094 613.050781 481.863281 612.132812 C 481.484375 611.21875 481.152344 610.285156 480.863281 609.335938 C 480.574219 608.386719 480.335938 607.425781 480.140625 606.453125 C 479.949219 605.480469 479.800781 604.5 479.703125 603.511719 C 479.609375 602.523438 479.558594 601.535156 479.558594 600.542969 C 479.558594 599.550781 479.609375 598.5625 479.707031 597.574219 C 479.808594 596.589844 479.953125 595.609375 480.148438 594.636719 C 480.34375 593.664062 480.585938 592.703125 480.871094 591.753906 C 481.160156 590.804688 481.496094 589.875 481.875 588.957031 C 482.257812 588.042969 482.679688 587.148438 483.148438 586.273438 C 483.617188 585.398438 484.125 584.550781 484.675781 583.726562 C 485.226562 582.898438 485.816406 582.105469 486.449219 581.339844 C 487.078125 580.570312 487.742188 579.839844 488.441406 579.136719 C 489.144531 578.4375 489.878906 577.769531 490.644531 577.140625 C 491.410156 576.511719 492.207031 575.921875 493.03125 575.371094 C 493.855469 574.820312 494.703125 574.308594 495.578125 573.84375 C 496.453125 573.375 497.347656 572.949219 498.265625 572.570312 C 499.179688 572.191406 500.113281 571.855469 501.0625 571.566406 C 502.011719 571.277344 502.96875 571.035156 503.941406 570.84375 C 504.914062 570.648438 505.894531 570.5 506.882812 570.402344 C 507.867188 570.304688 508.859375 570.253906 509.847656 570.253906 Z M 357.230469 547.933594 C 357.917969 547.933594 358.605469 547.96875 359.289062 548.035156 C 359.972656 548.101562 360.652344 548.203125 361.328125 548.335938 C 362.003906 548.472656 362.671875 548.636719 363.328125 548.835938 C 363.988281 549.039062 364.632812 549.269531 365.269531 549.53125 C 365.90625 549.796875 366.527344 550.089844 367.132812 550.414062 C 367.742188 550.738281 368.332031 551.089844 368.902344 551.472656 C 369.476562 551.855469 370.027344 552.265625 370.558594 552.703125 C 371.089844 553.140625 371.601562 553.601562 372.085938 554.085938 C 372.574219 554.574219 373.035156 555.082031 373.472656 555.613281 C 373.90625 556.144531 374.316406 556.699219 374.699219 557.269531 C 375.082031 557.84375 375.433594 558.433594 375.757812 559.039062 C 376.082031 559.644531 376.378906 560.265625 376.640625 560.902344 C 376.902344 561.539062 377.136719 562.1875 377.335938 562.84375 C 377.535156 563.503906 377.703125 564.167969 377.835938 564.84375 C 377.96875 565.519531 378.070312 566.199219 378.140625 566.882812 C 378.207031 567.570312 378.238281 568.253906 378.238281 568.941406 C 378.238281 569.632812 378.207031 570.316406 378.140625 571.003906 C 378.070312 571.6875 377.96875 572.367188 377.835938 573.042969 C 377.703125 573.71875 377.535156 574.382812 377.335938 575.042969 C 377.136719 575.699219 376.902344 576.347656 376.640625 576.984375 C 376.378906 577.617188 376.082031 578.242188 375.757812 578.847656 C 375.433594 579.453125 375.082031 580.042969 374.699219 580.617188 C 374.316406 581.1875 373.90625 581.738281 373.472656 582.273438 C 373.035156 582.804688 372.574219 583.3125 372.085938 583.800781 C 371.601562 584.285156 371.089844 584.746094 370.558594 585.183594 C 370.027344 585.621094 369.476562 586.03125 368.902344 586.414062 C 368.332031 586.792969 367.742188 587.148438 367.132812 587.472656 C 366.527344 587.796875 365.90625 588.089844 365.269531 588.355469 C 364.632812 588.617188 363.988281 588.847656 363.328125 589.046875 C 362.671875 589.25 362.003906 589.414062 361.328125 589.550781 C 360.652344 589.683594 359.972656 589.785156 359.289062 589.851562 C 358.605469 589.917969 357.917969 589.953125 357.230469 589.953125 C 356.542969 589.953125 355.855469 589.917969 355.171875 589.851562 C 354.484375 589.785156 353.804688 589.683594 353.132812 589.550781 C 352.457031 589.414062 351.789062 589.25 351.132812 589.046875 C 350.472656 588.847656 349.824219 588.617188 349.191406 588.355469 C 348.554688 588.089844 347.933594 587.796875 347.324219 587.472656 C 346.71875 587.148438 346.128906 586.792969 345.558594 586.414062 C 344.984375 586.03125 344.433594 585.621094 343.902344 585.183594 C 343.371094 584.746094 342.859375 584.285156 342.375 583.800781 C 341.886719 583.3125 341.425781 582.804688 340.988281 582.273438 C 340.550781 581.738281 340.144531 581.1875 339.761719 580.617188 C 339.378906 580.042969 339.023438 579.453125 338.699219 578.847656 C 338.375 578.242188 338.082031 577.621094 337.820312 576.984375 C 337.554688 576.347656 337.324219 575.699219 337.125 575.042969 C 336.925781 574.382812 336.757812 573.71875 336.625 573.042969 C 336.488281 572.367188 336.386719 571.6875 336.320312 571.003906 C 336.253906 570.316406 336.21875 569.632812 336.21875 568.941406 C 336.21875 568.253906 336.253906 567.570312 336.324219 566.882812 C 336.390625 566.199219 336.492188 565.519531 336.628906 564.847656 C 336.761719 564.171875 336.929688 563.503906 337.128906 562.847656 C 337.332031 562.1875 337.5625 561.542969 337.828125 560.90625 C 338.089844 560.273438 338.382812 559.652344 338.707031 559.042969 C 339.035156 558.4375 339.386719 557.847656 339.769531 557.277344 C 340.152344 556.707031 340.5625 556.152344 340.996094 555.621094 C 341.433594 555.089844 341.894531 554.582031 342.382812 554.09375 C 342.867188 553.609375 343.378906 553.148438 343.910156 552.710938 C 344.441406 552.273438 344.992188 551.863281 345.5625 551.484375 C 346.136719 551.101562 346.726562 550.746094 347.332031 550.421875 C 347.9375 550.097656 348.558594 549.804688 349.195312 549.539062 C 349.828125 549.277344 350.476562 549.042969 351.132812 548.84375 C 351.792969 548.644531 352.457031 548.476562 353.132812 548.339844 C 353.808594 548.207031 354.488281 548.105469 355.171875 548.035156 C 355.855469 547.96875 356.542969 547.933594 357.230469 547.933594 Z M 363.75 632.972656 C 364.652344 632.972656 365.550781 633.019531 366.445312 633.105469 C 367.34375 633.195312 368.234375 633.324219 369.117188 633.5 C 370 633.675781 370.875 633.894531 371.734375 634.15625 C 372.597656 634.417969 373.445312 634.722656 374.277344 635.066406 C 375.109375 635.410156 375.925781 635.796875 376.71875 636.21875 C 377.515625 636.644531 378.285156 637.105469 379.035156 637.605469 C 379.785156 638.109375 380.507812 638.644531 381.207031 639.214844 C 381.902344 639.785156 382.570312 640.390625 383.207031 641.027344 C 383.84375 641.664062 384.449219 642.332031 385.019531 643.027344 C 385.59375 643.722656 386.128906 644.445312 386.628906 645.195312 C 387.132812 645.941406 387.59375 646.714844 388.019531 647.507812 C 388.445312 648.304688 388.832031 649.117188 389.175781 649.949219 C 389.523438 650.78125 389.824219 651.628906 390.085938 652.488281 C 390.351562 653.351562 390.570312 654.226562 390.746094 655.109375 C 390.921875 655.992188 391.054688 656.882812 391.144531 657.777344 C 391.234375 658.675781 391.277344 659.574219 391.28125 660.476562 C 391.28125 661.375 391.238281 662.277344 391.148438 663.171875 C 391.0625 664.070312 390.933594 664.960938 390.757812 665.84375 C 390.582031 666.726562 390.363281 667.601562 390.105469 668.464844 C 389.84375 669.324219 389.542969 670.171875 389.199219 671.007812 C 388.855469 671.839844 388.46875 672.652344 388.046875 673.449219 C 387.621094 674.242188 387.160156 675.015625 386.660156 675.765625 C 386.160156 676.515625 385.625 677.238281 385.054688 677.9375 C 384.484375 678.632812 383.882812 679.300781 383.246094 679.941406 C 382.609375 680.578125 381.945312 681.183594 381.25 681.757812 C 380.554688 682.328125 379.832031 682.867188 379.082031 683.367188 C 378.335938 683.871094 377.5625 684.335938 376.769531 684.761719 C 375.976562 685.1875 375.164062 685.574219 374.332031 685.917969 C 373.5 686.265625 372.652344 686.570312 371.789062 686.832031 C 370.929688 687.097656 370.054688 687.316406 369.171875 687.496094 C 368.289062 687.671875 367.398438 687.804688 366.503906 687.894531 C 365.605469 687.984375 364.707031 688.03125 363.804688 688.035156 C 362.90625 688.035156 362.007812 687.992188 361.109375 687.90625 C 360.210938 687.820312 359.320312 687.691406 358.4375 687.515625 C 357.554688 687.34375 356.679688 687.125 355.816406 686.867188 C 354.953125 686.605469 354.105469 686.304688 353.273438 685.960938 C 352.441406 685.621094 351.625 685.238281 350.828125 684.8125 C 350.035156 684.390625 349.261719 683.929688 348.511719 683.429688 C 347.761719 682.933594 347.035156 682.398438 346.339844 681.828125 C 345.640625 681.257812 344.972656 680.65625 344.332031 680.019531 C 343.695312 679.382812 343.089844 678.71875 342.515625 678.023438 C 341.941406 677.328125 341.402344 676.609375 340.902344 675.859375 C 340.398438 675.113281 339.933594 674.339844 339.507812 673.546875 C 339.078125 672.753906 338.691406 671.941406 338.34375 671.109375 C 337.996094 670.277344 337.691406 669.433594 337.429688 668.570312 C 337.164062 667.710938 336.941406 666.835938 336.765625 665.953125 C 336.585938 665.070312 336.453125 664.179688 336.359375 663.285156 C 336.269531 662.386719 336.222656 661.488281 336.21875 660.589844 C 336.21875 659.683594 336.261719 658.785156 336.347656 657.886719 C 336.4375 656.988281 336.566406 656.09375 336.742188 655.210938 C 336.917969 654.324219 337.132812 653.449219 337.394531 652.585938 C 337.65625 651.71875 337.957031 650.871094 338.300781 650.035156 C 338.648438 649.199219 339.03125 648.386719 339.457031 647.589844 C 339.878906 646.792969 340.34375 646.015625 340.84375 645.265625 C 341.34375 644.515625 341.878906 643.789062 342.453125 643.089844 C 343.023438 642.390625 343.628906 641.722656 344.265625 641.085938 C 344.902344 640.445312 345.570312 639.839844 346.269531 639.265625 C 346.964844 638.691406 347.691406 638.152344 348.441406 637.652344 C 349.191406 637.148438 349.960938 636.683594 350.757812 636.257812 C 351.554688 635.832031 352.367188 635.445312 353.203125 635.097656 C 354.035156 634.75 354.886719 634.445312 355.75 634.183594 C 356.613281 633.921875 357.488281 633.699219 358.371094 633.523438 C 359.257812 633.347656 360.148438 633.210938 361.046875 633.125 C 361.945312 633.035156 362.847656 632.988281 363.75 632.988281 Z M 363.75 632.972656 " fill-opacity="1" fill-rule="nonzero"/></g><path fill="#001527" d="M 520.425781 600.542969 C 520.425781 601.238281 520.355469 601.925781 520.222656 602.605469 C 520.085938 603.289062 519.886719 603.949219 519.621094 604.589844 C 519.355469 605.230469 519.027344 605.839844 518.640625 606.417969 C 518.257812 606.996094 517.816406 607.53125 517.328125 608.019531 C 516.835938 608.511719 516.300781 608.949219 515.726562 609.335938 C 515.148438 609.722656 514.539062 610.046875 513.894531 610.3125 C 513.253906 610.578125 512.59375 610.78125 511.914062 610.914062 C 511.230469 611.050781 510.542969 611.117188 509.847656 611.117188 C 509.15625 611.117188 508.46875 611.050781 507.785156 610.914062 C 507.105469 610.78125 506.445312 610.578125 505.800781 610.3125 C 505.160156 610.046875 504.550781 609.722656 503.972656 609.335938 C 503.394531 608.949219 502.863281 608.511719 502.371094 608.019531 C 501.878906 607.53125 501.441406 606.996094 501.054688 606.417969 C 500.671875 605.839844 500.34375 605.230469 500.078125 604.589844 C 499.8125 603.949219 499.613281 603.285156 499.476562 602.605469 C 499.339844 601.925781 499.273438 601.238281 499.273438 600.542969 C 499.273438 599.847656 499.339844 599.160156 499.476562 598.480469 C 499.613281 597.796875 499.8125 597.136719 500.078125 596.496094 C 500.34375 595.855469 500.671875 595.246094 501.054688 594.667969 C 501.441406 594.089844 501.878906 593.554688 502.371094 593.066406 C 502.863281 592.574219 503.394531 592.136719 503.972656 591.75 C 504.550781 591.363281 505.160156 591.039062 505.800781 590.773438 C 506.445312 590.507812 507.105469 590.304688 507.785156 590.171875 C 508.46875 590.035156 509.15625 589.96875 509.847656 589.96875 C 510.542969 589.96875 511.230469 590.035156 511.914062 590.171875 C 512.59375 590.304688 513.253906 590.507812 513.894531 590.773438 C 514.539062 591.039062 515.148438 591.363281 515.726562 591.75 C 516.300781 592.136719 516.835938 592.574219 517.328125 593.066406 C 517.816406 593.554688 518.257812 594.089844 518.640625 594.667969 C 519.027344 595.246094 519.355469 595.855469 519.621094 596.496094 C 519.886719 597.136719 520.085938 597.796875 520.222656 598.480469 C 520.355469 599.160156 520.425781 599.847656 520.425781 600.542969 Z M 520.425781 600.542969 " fill-opacity="1" fill-rule="nonzero"/><path fill="#001527" d="M 593.3125 410.734375 C 593.316406 410.496094 593.234375 410.289062 593.070312 410.121094 C 592.902344 409.949219 592.699219 409.863281 592.464844 409.859375 C 592.226562 409.859375 592.019531 409.941406 591.851562 410.105469 C 591.679688 410.273438 591.597656 410.476562 591.59375 410.714844 C 591.59375 410.953125 591.675781 411.15625 591.84375 411.324219 C 592.011719 411.492188 592.214844 411.578125 592.453125 411.578125 C 592.6875 411.578125 592.890625 411.496094 593.054688 411.332031 C 593.222656 411.167969 593.308594 410.96875 593.3125 410.734375 Z M 593.3125 410.734375 " fill-opacity="1" fill-rule="nonzero"/><g clip-path="url(#197d96b619)"><path fill="#001527" d="M 141.59375 695.90625 L 293.480469 695.90625 L 293.480469 522.980469 C 293.480469 522.8125 293.480469 522.640625 293.480469 522.472656 C 293.410156 521.496094 293.488281 520.527344 293.707031 519.570312 C 293.925781 518.613281 294.28125 517.710938 294.769531 516.859375 C 295.257812 516.011719 295.859375 515.25 296.578125 514.578125 C 297.292969 513.910156 298.09375 513.359375 298.972656 512.925781 L 394.054688 466.371094 L 394.054688 414.058594 C 394.050781 368.183594 388.757812 322.929688 378.167969 278.292969 C 359.707031 276.703125 349.160156 269.335938 339.742188 262.804688 C 330.320312 256.269531 322.152344 250.496094 305.113281 250.496094 C 288.074219 250.496094 279.933594 256.199219 270.484375 262.804688 C 259.855469 270.238281 247.8125 278.660156 224.566406 278.660156 C 201.316406 278.660156 189.277344 270.210938 178.644531 262.804688 C 170.632812 257.171875 163.535156 252.257812 151.171875 250.890625 C 143.503906 277.414062 137.730469 304.34375 133.855469 331.679688 C 129.976562 359.015625 128.03125 386.488281 128.019531 414.097656 L 128.019531 682.332031 C 128.019531 683.222656 128.109375 684.105469 128.28125 684.976562 C 128.457031 685.851562 128.714844 686.699219 129.054688 687.523438 C 129.398438 688.347656 129.816406 689.128906 130.3125 689.867188 C 130.808594 690.609375 131.371094 691.296875 132 691.925781 C 132.628906 692.554688 133.316406 693.117188 134.054688 693.613281 C 134.796875 694.109375 135.578125 694.527344 136.402344 694.867188 C 137.226562 695.210938 138.074219 695.46875 138.945312 695.640625 C 139.820312 695.816406 140.703125 695.90625 141.59375 695.90625 Z M 141.59375 695.90625 " fill-opacity="1" fill-rule="nonzero"/></g><g clip-path="url(#47d2865f47)"><path fill="#001527" d="M 664.679688 628.003906 C 664.675781 629.15625 664.785156 630.304688 664.996094 631.4375 C 665.210938 632.574219 665.53125 633.679688 665.957031 634.753906 C 666.378906 635.828125 666.902344 636.855469 667.519531 637.832031 C 668.136719 638.808594 668.839844 639.71875 669.632812 640.558594 C 670.421875 641.402344 671.285156 642.164062 672.21875 642.84375 C 673.152344 643.523438 674.144531 644.109375 675.1875 644.601562 C 676.234375 645.09375 677.316406 645.484375 678.4375 645.769531 C 679.554688 646.058594 680.691406 646.238281 681.84375 646.308594 L 681.84375 609.738281 C 680.695312 609.808594 679.558594 609.988281 678.441406 610.277344 C 677.324219 610.5625 676.242188 610.949219 675.199219 611.441406 C 674.15625 611.933594 673.164062 612.515625 672.230469 613.195312 C 671.296875 613.871094 670.4375 614.632812 669.644531 615.472656 C 668.855469 616.3125 668.152344 617.21875 667.53125 618.195312 C 666.914062 619.167969 666.394531 620.191406 665.96875 621.261719 C 665.542969 622.335938 665.222656 623.4375 665.003906 624.570312 C 664.789062 625.707031 664.679688 626.847656 664.679688 628.003906 Z M 664.679688 628.003906 " fill-opacity="1" fill-rule="nonzero"/></g><path fill="#001527" d="M 363.75 668.320312 C 364.261719 668.320312 364.773438 668.269531 365.273438 668.167969 C 365.777344 668.070312 366.265625 667.921875 366.742188 667.722656 C 367.214844 667.527344 367.667969 667.285156 368.09375 667 C 368.519531 666.714844 368.914062 666.390625 369.277344 666.027344 C 369.640625 665.664062 369.964844 665.269531 370.25 664.84375 C 370.535156 664.417969 370.777344 663.964844 370.972656 663.492188 C 371.167969 663.015625 371.316406 662.527344 371.414062 662.023438 C 371.515625 661.519531 371.566406 661.011719 371.566406 660.5 C 371.566406 659.984375 371.515625 659.476562 371.414062 658.972656 C 371.3125 658.46875 371.164062 657.980469 370.96875 657.507812 C 370.769531 657.03125 370.53125 656.582031 370.246094 656.15625 C 369.960938 655.730469 369.632812 655.335938 369.269531 654.972656 C 368.90625 654.609375 368.511719 654.285156 368.085938 654 C 367.660156 653.714844 367.207031 653.476562 366.734375 653.28125 C 366.257812 653.082031 365.769531 652.9375 365.265625 652.835938 C 364.761719 652.738281 364.253906 652.6875 363.742188 652.6875 C 363.226562 652.6875 362.71875 652.738281 362.214844 652.839844 C 361.710938 652.941406 361.222656 653.089844 360.75 653.285156 C 360.273438 653.484375 359.824219 653.726562 359.398438 654.011719 C 358.972656 654.296875 358.578125 654.621094 358.214844 654.984375 C 357.851562 655.347656 357.527344 655.746094 357.246094 656.171875 C 356.960938 656.597656 356.71875 657.050781 356.523438 657.523438 C 356.328125 658 356.179688 658.488281 356.082031 658.992188 C 355.984375 659.496094 355.933594 660.003906 355.933594 660.519531 C 355.933594 661.03125 355.984375 661.539062 356.085938 662.039062 C 356.1875 662.542969 356.335938 663.03125 356.535156 663.503906 C 356.730469 663.976562 356.972656 664.425781 357.257812 664.851562 C 357.542969 665.277344 357.867188 665.671875 358.226562 666.035156 C 358.589844 666.398438 358.984375 666.71875 359.414062 667.003906 C 359.839844 667.289062 360.289062 667.53125 360.761719 667.726562 C 361.234375 667.921875 361.722656 668.070312 362.226562 668.167969 C 362.730469 668.269531 363.238281 668.320312 363.75 668.320312 Z M 363.75 668.320312 " fill-opacity="1" fill-rule="nonzero"/><path fill="#001527" d="M 358.527344 568.957031 C 358.527344 569.128906 358.492188 569.292969 358.425781 569.453125 C 358.359375 569.613281 358.265625 569.75 358.144531 569.875 C 358.023438 569.996094 357.882812 570.089844 357.726562 570.152344 C 357.566406 570.21875 357.402344 570.253906 357.230469 570.253906 C 357.058594 570.253906 356.894531 570.21875 356.734375 570.152344 C 356.574219 570.089844 356.433594 569.996094 356.3125 569.875 C 356.191406 569.75 356.097656 569.613281 356.03125 569.453125 C 355.96875 569.292969 355.933594 569.128906 355.933594 568.957031 C 355.933594 568.785156 355.96875 568.621094 356.03125 568.460938 C 356.097656 568.300781 356.191406 568.164062 356.3125 568.042969 C 356.433594 567.917969 356.574219 567.824219 356.734375 567.761719 C 356.894531 567.695312 357.058594 567.660156 357.230469 567.660156 C 357.402344 567.660156 357.566406 567.695312 357.726562 567.761719 C 357.882812 567.824219 358.023438 567.917969 358.144531 568.042969 C 358.265625 568.164062 358.359375 568.300781 358.425781 568.460938 C 358.492188 568.621094 358.527344 568.785156 358.527344 568.957031 Z M 358.527344 568.957031 " fill-opacity="1" fill-rule="nonzero"/><g clip-path="url(#6b94c95aeb)"><path fill="#001527" d="M 196.230469 108.707031 L 331.515625 108.707031 C 332.394531 108.703125 333.265625 108.617188 334.125 108.445312 C 334.988281 108.273438 335.824219 108.019531 336.632812 107.683594 C 337.445312 107.347656 338.214844 106.933594 338.945312 106.445312 C 339.675781 105.957031 340.351562 105.402344 340.972656 104.78125 C 341.59375 104.164062 342.148438 103.488281 342.636719 102.757812 C 343.125 102.027344 343.535156 101.257812 343.871094 100.445312 C 344.207031 99.632812 344.460938 98.796875 344.636719 97.9375 C 344.808594 97.074219 344.894531 96.207031 344.894531 95.328125 L 344.894531 69.980469 C 344.894531 69.101562 344.808594 68.234375 344.636719 67.371094 C 344.460938 66.511719 344.207031 65.675781 343.871094 64.863281 C 343.535156 64.050781 343.125 63.28125 342.636719 62.550781 C 342.148438 61.820312 341.59375 61.144531 340.972656 60.523438 C 340.351562 59.902344 339.675781 59.351562 338.945312 58.863281 C 338.214844 58.375 337.445312 57.960938 336.632812 57.625 C 335.824219 57.289062 334.988281 57.035156 334.125 56.863281 C 333.265625 56.691406 332.394531 56.605469 331.515625 56.601562 L 190.585938 56.601562 C 189.707031 56.605469 188.835938 56.691406 187.976562 56.863281 C 187.113281 57.035156 186.277344 57.289062 185.46875 57.625 C 184.65625 57.960938 183.886719 58.375 183.15625 58.863281 C 182.425781 59.347656 181.75 59.902344 181.128906 60.523438 C 180.507812 61.144531 179.953125 61.820312 179.464844 62.550781 C 178.976562 63.28125 178.566406 64.050781 178.230469 64.863281 C 177.894531 65.675781 177.640625 66.511719 177.464844 67.371094 C 177.292969 68.234375 177.207031 69.101562 177.207031 69.980469 L 177.207031 95.328125 C 177.207031 96.207031 177.292969 97.074219 177.464844 97.9375 C 177.640625 98.796875 177.894531 99.632812 178.230469 100.445312 C 178.566406 101.257812 178.976562 102.027344 179.464844 102.757812 C 179.953125 103.488281 180.507812 104.164062 181.128906 104.78125 C 181.75 105.402344 182.425781 105.957031 183.15625 106.445312 C 183.886719 106.933594 184.65625 107.347656 185.46875 107.683594 C 186.277344 108.019531 187.113281 108.273438 187.976562 108.445312 C 188.835938 108.617188 189.707031 108.703125 190.585938 108.707031 Z M 196.230469 108.707031 " fill-opacity="1" fill-rule="nonzero"/></g><path fill="#001527" d="M 534.871094 463.738281 C 534.171875 463.738281 533.472656 463.773438 532.773438 463.84375 C 532.078125 463.914062 531.386719 464.015625 530.699219 464.152344 C 530.011719 464.289062 529.332031 464.460938 528.660156 464.664062 C 527.988281 464.871094 527.332031 465.105469 526.683594 465.375 C 526.035156 465.644531 525.402344 465.941406 524.785156 466.273438 C 524.167969 466.601562 523.566406 466.964844 522.984375 467.351562 C 522.402344 467.742188 521.839844 468.160156 521.296875 468.605469 C 520.753906 469.046875 520.238281 469.519531 519.742188 470.015625 C 519.246094 470.507812 518.773438 471.027344 518.328125 471.570312 C 517.882812 472.113281 517.46875 472.671875 517.078125 473.257812 C 516.6875 473.839844 516.328125 474.4375 515.996094 475.054688 C 515.664062 475.675781 515.363281 476.308594 515.097656 476.953125 C 514.828125 477.601562 514.589844 478.261719 514.386719 478.929688 C 514.183594 479.601562 514.011719 480.28125 513.871094 480.96875 C 513.734375 481.65625 513.632812 482.347656 513.5625 483.042969 C 513.492188 483.742188 513.457031 484.441406 513.453125 485.140625 C 513.460938 487.035156 512.957031 488.78125 511.949219 490.378906 L 556.320312 485.804688 C 556.320312 485.59375 556.320312 485.367188 556.320312 485.140625 C 556.316406 484.441406 556.28125 483.742188 556.210938 483.042969 C 556.140625 482.34375 556.039062 481.652344 555.898438 480.964844 C 555.761719 480.277344 555.589844 479.597656 555.386719 478.925781 C 555.179688 478.253906 554.945312 477.59375 554.675781 476.949219 C 554.40625 476.300781 554.105469 475.667969 553.773438 475.046875 C 553.441406 474.429688 553.082031 473.828125 552.691406 473.246094 C 552.300781 472.664062 551.882812 472.101562 551.4375 471.558594 C 550.992188 471.019531 550.519531 470.5 550.023438 470.003906 C 549.527344 469.507812 549.007812 469.039062 548.464844 468.59375 C 547.921875 468.148438 547.359375 467.734375 546.773438 467.34375 C 546.191406 466.953125 545.589844 466.59375 544.972656 466.265625 C 544.351562 465.933594 543.71875 465.632812 543.070312 465.367188 C 542.421875 465.097656 541.761719 464.863281 541.089844 464.660156 C 540.417969 464.457031 539.738281 464.285156 539.050781 464.148438 C 538.363281 464.011719 537.671875 463.910156 536.972656 463.839844 C 536.273438 463.773438 535.574219 463.738281 534.871094 463.738281 Z M 534.871094 463.738281 " fill-opacity="1" fill-rule="nonzero"/><path fill="#001527" d="M 189.9375 246.582031 C 199.371094 253.183594 207.527344 258.890625 224.550781 258.890625 C 241.574219 258.890625 249.742188 253.199219 259.179688 246.582031 C 269.808594 239.144531 281.863281 230.726562 305.097656 230.726562 C 328.332031 230.726562 340.386719 239.175781 351.019531 246.582031 C 357.738281 251.269531 363.804688 255.496094 372.847656 257.550781 C 360.40625 212.398438 342.816406 169.351562 320.082031 128.40625 L 202.003906 128.40625 C 183.71875 161.410156 168.746094 195.855469 157.085938 231.738281 C 172.136719 234.1875 181.488281 240.695312 189.9375 246.582031 Z M 189.9375 246.582031 " fill-opacity="1" fill-rule="nonzero"/><path fill="#001527" d="M 357.34375 506.308594 L 496.457031 491.972656 C 495.5625 491.058594 494.871094 490.011719 494.386719 488.832031 C 493.898438 487.648438 493.648438 486.417969 493.640625 485.140625 C 493.628906 483.800781 493.679688 482.464844 493.796875 481.128906 C 493.914062 479.792969 494.097656 478.464844 494.34375 477.148438 C 494.589844 475.832031 494.902344 474.527344 495.277344 473.242188 C 495.648438 471.953125 496.085938 470.6875 496.585938 469.441406 C 497.082031 468.199219 497.640625 466.980469 498.257812 465.789062 C 498.875 464.601562 499.550781 463.445312 500.28125 462.320312 C 501.011719 461.195312 501.792969 460.109375 502.632812 459.0625 C 503.46875 458.015625 504.355469 457.011719 505.289062 456.050781 C 506.222656 455.089844 507.203125 454.175781 508.226562 453.3125 C 509.253906 452.445312 510.316406 451.632812 511.421875 450.871094 C 512.523438 450.109375 513.664062 449.40625 514.835938 448.757812 C 516.007812 448.105469 517.210938 447.515625 518.441406 446.984375 C 519.671875 446.453125 520.925781 445.980469 522.203125 445.570312 C 523.476562 445.164062 524.769531 444.816406 526.082031 444.53125 C 527.390625 444.25 528.714844 444.03125 530.046875 443.878906 C 531.378906 443.726562 532.714844 443.636719 534.054688 443.613281 C 535.394531 443.589844 536.734375 443.632812 538.070312 443.742188 C 539.40625 443.847656 540.734375 444.023438 542.050781 444.257812 C 543.371094 444.496094 544.675781 444.800781 545.964844 445.164062 C 547.257812 445.53125 548.527344 445.957031 549.773438 446.445312 C 551.023438 446.9375 552.242188 447.484375 553.4375 448.09375 C 554.632812 448.703125 555.792969 449.371094 556.921875 450.09375 C 558.050781 450.816406 559.144531 451.589844 560.195312 452.421875 C 561.25 453.25 562.261719 454.128906 563.226562 455.058594 C 564.195312 455.984375 565.113281 456.957031 565.988281 457.976562 C 566.859375 458.996094 567.679688 460.054688 568.449219 461.152344 C 569.214844 462.25 569.929688 463.382812 570.585938 464.550781 C 571.246094 465.71875 571.84375 466.917969 572.386719 468.144531 C 572.925781 469.371094 573.40625 470.621094 573.824219 471.894531 C 574.242188 473.167969 574.597656 474.460938 574.890625 475.769531 C 575.179688 477.078125 575.410156 478.398438 575.570312 479.726562 C 575.734375 481.058594 575.832031 482.394531 575.863281 483.734375 L 667.972656 474.242188 L 607.703125 421.816406 C 607.328125 422.339844 606.929688 422.84375 606.503906 423.324219 C 606.078125 423.808594 605.628906 424.265625 605.15625 424.703125 C 604.683594 425.136719 604.1875 425.550781 603.675781 425.933594 C 603.160156 426.320312 602.625 426.679688 602.074219 427.011719 C 601.523438 427.339844 600.957031 427.644531 600.371094 427.917969 C 599.789062 428.1875 599.195312 428.433594 598.585938 428.644531 C 597.980469 428.855469 597.363281 429.035156 596.738281 429.183594 C 596.113281 429.332031 595.480469 429.449219 594.839844 429.535156 C 594.203125 429.617188 593.5625 429.667969 592.921875 429.6875 C 592.277344 429.707031 591.632812 429.691406 590.992188 429.644531 C 590.351562 429.597656 589.714844 429.515625 589.082031 429.40625 C 588.445312 429.292969 587.820312 429.148438 587.203125 428.96875 C 586.582031 428.792969 585.976562 428.585938 585.378906 428.347656 C 584.78125 428.109375 584.195312 427.839844 583.628906 427.539062 C 583.058594 427.242188 582.503906 426.914062 581.96875 426.558594 C 581.433594 426.203125 580.914062 425.820312 580.417969 425.414062 C 579.921875 425.003906 579.445312 424.570312 578.992188 424.113281 C 578.539062 423.65625 578.113281 423.179688 577.707031 422.675781 C 577.304688 422.175781 576.929688 421.65625 576.578125 421.117188 C 576.226562 420.578125 575.90625 420.019531 575.613281 419.449219 C 575.316406 418.875 575.054688 418.289062 574.820312 417.691406 C 574.589844 417.089844 574.386719 416.480469 574.214844 415.859375 C 574.042969 415.238281 573.90625 414.613281 573.796875 413.976562 C 573.691406 413.34375 573.617188 412.703125 573.578125 412.0625 C 573.535156 411.421875 573.527344 410.777344 573.550781 410.136719 C 573.574219 409.492188 573.632812 408.851562 573.722656 408.214844 C 573.8125 407.578125 573.9375 406.949219 574.089844 406.324219 C 574.246094 405.699219 574.433594 405.082031 574.648438 404.476562 C 574.867188 403.871094 575.117188 403.28125 575.394531 402.699219 C 575.671875 402.121094 575.980469 401.554688 576.316406 401.007812 C 576.652344 400.457031 577.015625 399.929688 577.40625 399.417969 C 577.796875 398.90625 578.210938 398.414062 578.652344 397.945312 Z M 357.34375 506.308594 " fill-opacity="1" fill-rule="nonzero"/><path fill="#001527" d="M 605.804688 531.640625 C 606.039062 531.640625 606.242188 531.554688 606.410156 531.390625 C 606.578125 531.222656 606.660156 531.019531 606.660156 530.78125 C 606.660156 530.542969 606.578125 530.339844 606.410156 530.175781 C 606.242188 530.007812 606.039062 529.921875 605.804688 529.921875 C 605.566406 529.921875 605.363281 530.007812 605.195312 530.175781 C 605.027344 530.339844 604.945312 530.542969 604.945312 530.78125 C 604.941406 531.019531 605.023438 531.222656 605.191406 531.394531 C 605.359375 531.5625 605.5625 531.644531 605.804688 531.640625 Z M 605.804688 531.640625 " fill-opacity="1" fill-rule="nonzero"/><g clip-path="url(#9f1b71f234)"><path fill="#001527" d="M 313.195312 706.945312 L 681.84375 668.925781 L 681.84375 665.96875 C 680.601562 665.96875 679.359375 665.90625 678.117188 665.785156 C 676.878906 665.664062 675.648438 665.480469 674.425781 665.238281 C 673.207031 664.992188 672 664.691406 670.808594 664.332031 C 669.617188 663.96875 668.445312 663.550781 667.296875 663.074219 C 666.144531 662.597656 665.019531 662.066406 663.921875 661.476562 C 662.824219 660.890625 661.757812 660.25 660.722656 659.558594 C 659.6875 658.867188 658.6875 658.125 657.726562 657.335938 C 656.761719 656.546875 655.839844 655.710938 654.960938 654.832031 C 654.078125 653.949219 653.246094 653.027344 652.453125 652.066406 C 651.664062 651.105469 650.921875 650.105469 650.230469 649.070312 C 649.539062 648.035156 648.902344 646.96875 648.3125 645.871094 C 647.726562 644.769531 647.195312 643.648438 646.71875 642.496094 C 646.242188 641.347656 645.824219 640.175781 645.460938 638.984375 C 645.101562 637.792969 644.796875 636.585938 644.554688 635.363281 C 644.3125 634.140625 644.128906 632.914062 644.007812 631.671875 C 643.886719 630.433594 643.824219 629.191406 643.824219 627.945312 C 643.824219 626.699219 643.886719 625.457031 644.007812 624.21875 C 644.128906 622.980469 644.3125 621.75 644.554688 620.527344 C 644.796875 619.308594 645.101562 618.101562 645.460938 616.910156 C 645.824219 615.71875 646.242188 614.546875 646.71875 613.394531 C 647.195312 612.246094 647.726562 611.121094 648.3125 610.023438 C 648.902344 608.925781 649.539062 607.859375 650.230469 606.824219 C 650.921875 605.789062 651.664062 604.789062 652.453125 603.824219 C 653.246094 602.863281 654.078125 601.941406 654.960938 601.0625 C 655.839844 600.179688 656.761719 599.34375 657.726562 598.554688 C 658.6875 597.765625 659.6875 597.023438 660.722656 596.332031 C 661.757812 595.640625 662.824219 595 663.921875 594.414062 C 665.019531 593.828125 666.144531 593.296875 667.296875 592.820312 C 668.445312 592.34375 669.617188 591.925781 670.808594 591.5625 C 672 591.199219 673.207031 590.898438 674.425781 590.65625 C 675.648438 590.414062 676.878906 590.230469 678.117188 590.109375 C 679.359375 589.984375 680.601562 589.925781 681.84375 589.925781 L 681.84375 492.621094 L 313.195312 530.640625 Z M 605.804688 511.925781 C 606.421875 511.925781 607.039062 511.957031 607.652344 512.015625 C 608.269531 512.078125 608.878906 512.167969 609.484375 512.289062 C 610.089844 512.410156 610.691406 512.558594 611.28125 512.738281 C 611.871094 512.917969 612.453125 513.125 613.023438 513.363281 C 613.597656 513.597656 614.15625 513.863281 614.699219 514.15625 C 615.246094 514.445312 615.773438 514.761719 616.289062 515.105469 C 616.800781 515.449219 617.296875 515.816406 617.777344 516.210938 C 618.253906 516.601562 618.710938 517.015625 619.148438 517.453125 C 619.585938 517.890625 620 518.347656 620.390625 518.828125 C 620.785156 519.304688 621.152344 519.800781 621.496094 520.3125 C 621.835938 520.828125 622.15625 521.359375 622.445312 521.902344 C 622.738281 522.449219 623 523.007812 623.238281 523.578125 C 623.472656 524.148438 623.683594 524.730469 623.863281 525.320312 C 624.039062 525.914062 624.191406 526.511719 624.3125 527.117188 C 624.429688 527.722656 624.523438 528.335938 624.582031 528.949219 C 624.644531 529.566406 624.671875 530.183594 624.671875 530.800781 C 624.671875 531.417969 624.640625 532.035156 624.582031 532.648438 C 624.519531 533.265625 624.429688 533.875 624.308594 534.480469 C 624.1875 535.089844 624.039062 535.6875 623.859375 536.277344 C 623.679688 536.871094 623.472656 537.449219 623.234375 538.023438 C 622.996094 538.59375 622.734375 539.152344 622.441406 539.695312 C 622.148438 540.242188 621.832031 540.769531 621.488281 541.285156 C 621.144531 541.796875 620.777344 542.292969 620.386719 542.769531 C 619.992188 543.25 619.578125 543.707031 619.140625 544.144531 C 618.703125 544.582031 618.246094 544.996094 617.769531 545.386719 C 617.289062 545.777344 616.792969 546.144531 616.28125 546.488281 C 615.765625 546.832031 615.238281 547.148438 614.691406 547.441406 C 614.144531 547.730469 613.585938 547.996094 613.015625 548.230469 C 612.445312 548.46875 611.863281 548.675781 611.273438 548.855469 C 610.679688 549.035156 610.082031 549.183594 609.476562 549.304688 C 608.871094 549.425781 608.257812 549.515625 607.644531 549.574219 C 607.027344 549.636719 606.410156 549.664062 605.792969 549.664062 C 605.175781 549.664062 604.558594 549.632812 603.945312 549.574219 C 603.328125 549.511719 602.71875 549.421875 602.113281 549.300781 C 601.503906 549.179688 600.90625 549.03125 600.316406 548.847656 C 599.722656 548.667969 599.144531 548.460938 598.570312 548.226562 C 598 547.988281 597.441406 547.722656 596.898438 547.433594 C 596.351562 547.140625 595.824219 546.824219 595.308594 546.480469 C 594.796875 546.136719 594.300781 545.765625 593.824219 545.375 C 593.347656 544.980469 592.886719 544.566406 592.453125 544.128906 C 592.015625 543.691406 591.601562 543.234375 591.207031 542.757812 C 590.816406 542.277344 590.449219 541.78125 590.105469 541.269531 C 589.761719 540.753906 589.445312 540.226562 589.15625 539.679688 C 588.863281 539.132812 588.601562 538.574219 588.363281 538.003906 C 588.128906 537.433594 587.921875 536.851562 587.742188 536.261719 C 587.5625 535.667969 587.414062 535.070312 587.292969 534.464844 C 587.171875 533.855469 587.082031 533.246094 587.023438 532.632812 C 586.960938 532.015625 586.933594 531.398438 586.933594 530.78125 C 586.933594 530.164062 586.964844 529.546875 587.027344 528.933594 C 587.089844 528.320312 587.179688 527.707031 587.300781 527.101562 C 587.421875 526.496094 587.574219 525.898438 587.753906 525.308594 C 587.933594 524.71875 588.140625 524.136719 588.378906 523.566406 C 588.613281 522.996094 588.878906 522.4375 589.171875 521.894531 C 589.460938 521.351562 589.777344 520.820312 590.121094 520.308594 C 590.464844 519.792969 590.832031 519.300781 591.226562 518.820312 C 591.617188 518.34375 592.03125 517.886719 592.46875 517.453125 C 592.90625 517.015625 593.363281 516.601562 593.839844 516.210938 C 594.316406 515.816406 594.8125 515.449219 595.328125 515.105469 C 595.839844 514.765625 596.371094 514.445312 596.914062 514.15625 C 597.460938 513.863281 598.015625 513.601562 598.585938 513.363281 C 599.15625 513.128906 599.738281 512.921875 600.328125 512.742188 C 600.921875 512.5625 601.519531 512.410156 602.125 512.289062 C 602.730469 512.167969 603.339844 512.078125 603.953125 512.019531 C 604.570312 511.957031 605.183594 511.925781 605.804688 511.925781 Z M 509.847656 570.253906 C 510.839844 570.253906 511.832031 570.300781 512.816406 570.398438 C 513.804688 570.496094 514.785156 570.640625 515.757812 570.835938 C 516.730469 571.027344 517.691406 571.269531 518.640625 571.558594 C 519.589844 571.84375 520.523438 572.179688 521.441406 572.558594 C 522.355469 572.9375 523.253906 573.363281 524.128906 573.828125 C 525.003906 574.296875 525.851562 574.804688 526.675781 575.359375 C 527.503906 575.910156 528.296875 576.5 529.066406 577.128906 C 529.832031 577.757812 530.566406 578.421875 531.265625 579.125 C 531.96875 579.824219 532.632812 580.558594 533.265625 581.328125 C 533.894531 582.09375 534.484375 582.890625 535.035156 583.714844 C 535.585938 584.539062 536.09375 585.390625 536.5625 586.265625 C 537.03125 587.140625 537.453125 588.035156 537.832031 588.953125 C 538.214844 589.867188 538.546875 590.800781 538.835938 591.75 C 539.121094 592.699219 539.363281 593.660156 539.558594 594.632812 C 539.75 595.605469 539.894531 596.585938 539.992188 597.574219 C 540.089844 598.5625 540.140625 599.550781 540.140625 600.542969 C 540.140625 601.535156 540.089844 602.523438 539.992188 603.511719 C 539.894531 604.5 539.75 605.480469 539.558594 606.453125 C 539.363281 607.425781 539.121094 608.386719 538.835938 609.335938 C 538.546875 610.285156 538.214844 611.21875 537.832031 612.132812 C 537.453125 613.050781 537.03125 613.945312 536.5625 614.820312 C 536.09375 615.695312 535.585938 616.546875 535.035156 617.371094 C 534.484375 618.195312 533.894531 618.992188 533.265625 619.757812 C 532.632812 620.527344 531.96875 621.257812 531.265625 621.960938 C 530.566406 622.664062 529.832031 623.328125 529.066406 623.957031 C 528.296875 624.585938 527.503906 625.175781 526.675781 625.726562 C 525.851562 626.28125 525.003906 626.789062 524.128906 627.257812 C 523.253906 627.722656 522.355469 628.148438 521.441406 628.527344 C 520.523438 628.90625 519.589844 629.242188 518.640625 629.527344 C 517.691406 629.816406 516.730469 630.058594 515.757812 630.25 C 514.785156 630.445312 513.804688 630.589844 512.816406 630.6875 C 511.832031 630.785156 510.839844 630.832031 509.847656 630.832031 C 508.855469 630.832031 507.867188 630.785156 506.878906 630.6875 C 505.894531 630.589844 504.914062 630.445312 503.941406 630.25 C 502.96875 630.058594 502.003906 629.816406 501.054688 629.527344 C 500.105469 629.242188 499.175781 628.90625 498.257812 628.527344 C 497.339844 628.148438 496.445312 627.722656 495.570312 627.257812 C 494.695312 626.789062 493.847656 626.28125 493.019531 625.726562 C 492.195312 625.175781 491.398438 624.585938 490.632812 623.957031 C 489.867188 623.328125 489.132812 622.664062 488.429688 621.960938 C 487.730469 621.257812 487.0625 620.527344 486.433594 619.757812 C 485.804688 618.992188 485.214844 618.195312 484.664062 617.371094 C 484.113281 616.546875 483.601562 615.695312 483.136719 614.820312 C 482.667969 613.945312 482.246094 613.050781 481.863281 612.132812 C 481.484375 611.21875 481.152344 610.285156 480.863281 609.335938 C 480.574219 608.386719 480.335938 607.425781 480.140625 606.453125 C 479.949219 605.480469 479.800781 604.5 479.703125 603.511719 C 479.609375 602.523438 479.558594 601.535156 479.558594 600.542969 C 479.558594 599.550781 479.609375 598.5625 479.707031 597.574219 C 479.808594 596.589844 479.953125 595.609375 480.148438 594.636719 C 480.34375 593.664062 480.585938 592.703125 480.871094 591.753906 C 481.160156 590.804688 481.496094 589.875 481.875 588.957031 C 482.257812 588.042969 482.679688 587.148438 483.148438 586.273438 C 483.617188 585.398438 484.125 584.550781 484.675781 583.726562 C 485.226562 582.898438 485.816406 582.105469 486.449219 581.339844 C 487.078125 580.570312 487.742188 579.839844 488.441406 579.136719 C 489.144531 578.4375 489.878906 577.769531 490.644531 577.140625 C 491.410156 576.511719 492.207031 575.921875 493.03125 575.371094 C 493.855469 574.820312 494.703125 574.308594 495.578125 573.84375 C 496.453125 573.375 497.347656 572.949219 498.265625 572.570312 C 499.179688 572.191406 500.113281 571.855469 501.0625 571.566406 C 502.011719 571.277344 502.96875 571.035156 503.941406 570.84375 C 504.914062 570.648438 505.894531 570.5 506.882812 570.402344 C 507.867188 570.304688 508.859375 570.253906 509.847656 570.253906 Z M 357.230469 547.933594 C 357.917969 547.933594 358.605469 547.96875 359.289062 548.035156 C 359.972656 548.101562 360.652344 548.203125 361.328125 548.335938 C 362.003906 548.472656 362.671875 548.636719 363.328125 548.835938 C 363.988281 549.039062 364.632812 549.269531 365.269531 549.53125 C 365.90625 549.796875 366.527344 550.089844 367.132812 550.414062 C 367.742188 550.738281 368.332031 551.089844 368.902344 551.472656 C 369.476562 551.855469 370.027344 552.265625 370.558594 552.703125 C 371.089844 553.140625 371.601562 553.601562 372.085938 554.085938 C 372.574219 554.574219 373.035156 555.082031 373.472656 555.613281 C 373.90625 556.144531 374.316406 556.699219 374.699219 557.269531 C 375.082031 557.84375 375.433594 558.433594 375.757812 559.039062 C 376.082031 559.644531 376.378906 560.265625 376.640625 560.902344 C 376.902344 561.539062 377.136719 562.1875 377.335938 562.84375 C 377.535156 563.503906 377.703125 564.167969 377.835938 564.84375 C 377.96875 565.519531 378.070312 566.199219 378.140625 566.882812 C 378.207031 567.570312 378.238281 568.253906 378.238281 568.941406 C 378.238281 569.632812 378.207031 570.316406 378.140625 571.003906 C 378.070312 571.6875 377.96875 572.367188 377.835938 573.042969 C 377.703125 573.71875 377.535156 574.382812 377.335938 575.042969 C 377.136719 575.699219 376.902344 576.347656 376.640625 576.984375 C 376.378906 577.617188 376.082031 578.242188 375.757812 578.847656 C 375.433594 579.453125 375.082031 580.042969 374.699219 580.617188 C 374.316406 581.1875 373.90625 581.738281 373.472656 582.273438 C 373.035156 582.804688 372.574219 583.3125 372.085938 583.800781 C 371.601562 584.285156 371.089844 584.746094 370.558594 585.183594 C 370.027344 585.621094 369.476562 586.03125 368.902344 586.414062 C 368.332031 586.792969 367.742188 587.148438 367.132812 587.472656 C 366.527344 587.796875 365.90625 588.089844 365.269531 588.355469 C 364.632812 588.617188 363.988281 588.847656 363.328125 589.046875 C 362.671875 589.25 362.003906 589.414062 361.328125 589.550781 C 360.652344 589.683594 359.972656 589.785156 359.289062 589.851562 C 358.605469 589.917969 357.917969 589.953125 357.230469 589.953125 C 356.542969 589.953125 355.855469 589.917969 355.171875 589.851562 C 354.484375 589.785156 353.804688 589.683594 353.132812 589.550781 C 352.457031 589.414062 351.789062 589.25 351.132812 589.046875 C 350.472656 588.847656 349.824219 588.617188 349.191406 588.355469 C 348.554688 588.089844 347.933594 587.796875 347.324219 587.472656 C 346.71875 587.148438 346.128906 586.792969 345.558594 586.414062 C 344.984375 586.03125 344.433594 585.621094 343.902344 585.183594 C 343.371094 584.746094 342.859375 584.285156 342.375 583.800781 C 341.886719 583.3125 341.425781 582.804688 340.988281 582.273438 C 340.550781 581.738281 340.144531 581.1875 339.761719 580.617188 C 339.378906 580.042969 339.023438 579.453125 338.699219 578.847656 C 338.375 578.242188 338.082031 577.621094 337.820312 576.984375 C 337.554688 576.347656 337.324219 575.699219 337.125 575.042969 C 336.925781 574.382812 336.757812 573.71875 336.625 573.042969 C 336.488281 572.367188 336.386719 571.6875 336.320312 571.003906 C 336.253906 570.316406 336.21875 569.632812 336.21875 568.941406 C 336.21875 568.253906 336.253906 567.570312 336.324219 566.882812 C 336.390625 566.199219 336.492188 565.519531 336.628906 564.847656 C 336.761719 564.171875 336.929688 563.503906 337.128906 562.847656 C 337.332031 562.1875 337.5625 561.542969 337.828125 560.90625 C 338.089844 560.273438 338.382812 559.652344 338.707031 559.042969 C 339.035156 558.4375 339.386719 557.847656 339.769531 557.277344 C 340.152344 556.707031 340.5625 556.152344 340.996094 555.621094 C 341.433594 555.089844 341.894531 554.582031 342.382812 554.09375 C 342.867188 553.609375 343.378906 553.148438 343.910156 552.710938 C 344.441406 552.273438 344.992188 551.863281 345.5625 551.484375 C 346.136719 551.101562 346.726562 550.746094 347.332031 550.421875 C 347.9375 550.097656 348.558594 549.804688 349.195312 549.539062 C 349.828125 549.277344 350.476562 549.042969 351.132812 548.84375 C 351.792969 548.644531 352.457031 548.476562 353.132812 548.339844 C 353.808594 548.207031 354.488281 548.105469 355.171875 548.035156 C 355.855469 547.96875 356.542969 547.933594 357.230469 547.933594 Z M 363.75 632.972656 C 364.652344 632.972656 365.550781 633.019531 366.445312 633.105469 C 367.34375 633.195312 368.234375 633.324219 369.117188 633.5 C 370 633.675781 370.875 633.894531 371.734375 634.15625 C 372.597656 634.417969 373.445312 634.722656 374.277344 635.066406 C 375.109375 635.410156 375.925781 635.796875 376.71875 636.21875 C 377.515625 636.644531 378.285156 637.105469 379.035156 637.605469 C 379.785156 638.109375 380.507812 638.644531 381.207031 639.214844 C 381.902344 639.785156 382.570312 640.390625 383.207031 641.027344 C 383.84375 641.664062 384.449219 642.332031 385.019531 643.027344 C 385.59375 643.722656 386.128906 644.445312 386.628906 645.195312 C 387.132812 645.941406 387.59375 646.714844 388.019531 647.507812 C 388.445312 648.304688 388.832031 649.117188 389.175781 649.949219 C 389.523438 650.78125 389.824219 651.628906 390.085938 652.488281 C 390.351562 653.351562 390.570312 654.226562 390.746094 655.109375 C 390.921875 655.992188 391.054688 656.882812 391.144531 657.777344 C 391.234375 658.675781 391.277344 659.574219 391.28125 660.476562 C 391.28125 661.375 391.238281 662.277344 391.148438 663.171875 C 391.0625 664.070312 390.933594 664.960938 390.757812 665.84375 C 390.582031 666.726562 390.363281 667.601562 390.105469 668.464844 C 389.84375 669.324219 389.542969 670.171875 389.199219 671.007812 C 388.855469 671.839844 388.46875 672.652344 388.046875 673.449219 C 387.621094 674.242188 387.160156 675.015625 386.660156 675.765625 C 386.160156 676.515625 385.625 677.238281 385.054688 677.9375 C 384.484375 678.632812 383.882812 679.300781 383.246094 679.941406 C 382.609375 680.578125 381.945312 681.183594 381.25 681.757812 C 380.554688 682.328125 379.832031 682.867188 379.082031 683.367188 C 378.335938 683.871094 377.5625 684.335938 376.769531 684.761719 C 375.976562 685.1875 375.164062 685.574219 374.332031 685.917969 C 373.5 686.265625 372.652344 686.570312 371.789062 686.832031 C 370.929688 687.097656 370.054688 687.316406 369.171875 687.496094 C 368.289062 687.671875 367.398438 687.804688 366.503906 687.894531 C 365.605469 687.984375 364.707031 688.03125 363.804688 688.035156 C 362.90625 688.035156 362.007812 687.992188 361.109375 687.90625 C 360.210938 687.820312 359.320312 687.691406 358.4375 687.515625 C 357.554688 687.34375 356.679688 687.125 355.816406 686.867188 C 354.953125 686.605469 354.105469 686.304688 353.273438 685.960938 C 352.441406 685.621094 351.625 685.238281 350.828125 684.8125 C 350.035156 684.390625 349.261719 683.929688 348.511719 683.429688 C 347.761719 682.933594 347.035156 682.398438 346.339844 681.828125 C 345.640625 681.257812 344.972656 680.65625 344.332031 680.019531 C 343.695312 679.382812 343.089844 678.71875 342.515625 678.023438 C 341.941406 677.328125 341.402344 676.609375 340.902344 675.859375 C 340.398438 675.113281 339.933594 674.339844 339.507812 673.546875 C 339.078125 672.753906 338.691406 671.941406 338.34375 671.109375 C 337.996094 670.277344 337.691406 669.433594 337.429688 668.570312 C 337.164062 667.710938 336.941406 666.835938 336.765625 665.953125 C 336.585938 665.070312 336.453125 664.179688 336.359375 663.285156 C 336.269531 662.386719 336.222656 661.488281 336.21875 660.589844 C 336.21875 659.683594 336.261719 658.785156 336.347656 657.886719 C 336.4375 656.988281 336.566406 656.09375 336.742188 655.210938 C 336.917969 654.324219 337.132812 653.449219 337.394531 652.585938 C 337.65625 651.71875 337.957031 650.871094 338.300781 650.035156 C 338.648438 649.199219 339.03125 648.386719 339.457031 647.589844 C 339.878906 646.792969 340.34375 646.015625 340.84375 645.265625 C 341.34375 644.515625 341.878906 643.789062 342.453125 643.089844 C 343.023438 642.390625 343.628906 641.722656 344.265625 641.085938 C 344.902344 640.445312 345.570312 639.839844 346.269531 639.265625 C 346.964844 638.691406 347.691406 638.152344 348.441406 637.652344 C 349.191406 637.148438 349.960938 636.683594 350.757812 636.257812 C 351.554688 635.832031 352.367188 635.445312 353.203125 635.097656 C 354.035156 634.75 354.886719 634.445312 355.75 634.183594 C 356.613281 633.921875 357.488281 633.699219 358.371094 633.523438 C 359.257812 633.347656 360.148438 633.210938 361.046875 633.125 C 361.945312 633.035156 362.847656 632.988281 363.75 632.988281 Z M 363.75 632.972656 " fill-opacity="1" fill-rule="nonzero"/></g><path fill="#001527" d="M 520.425781 600.542969 C 520.425781 601.238281 520.355469 601.925781 520.222656 602.605469 C 520.085938 603.289062 519.886719 603.949219 519.621094 604.589844 C 519.355469 605.230469 519.027344 605.839844 518.640625 606.417969 C 518.257812 606.996094 517.816406 607.53125 517.328125 608.019531 C 516.835938 608.511719 516.300781 608.949219 515.726562 609.335938 C 515.148438 609.722656 514.539062 610.046875 513.894531 610.3125 C 513.253906 610.578125 512.59375 610.78125 511.914062 610.914062 C 511.230469 611.050781 510.542969 611.117188 509.847656 611.117188 C 509.15625 611.117188 508.46875 611.050781 507.785156 610.914062 C 507.105469 610.78125 506.445312 610.578125 505.800781 610.3125 C 505.160156 610.046875 504.550781 609.722656 503.972656 609.335938 C 503.394531 608.949219 502.863281 608.511719 502.371094 608.019531 C 501.878906 607.53125 501.441406 606.996094 501.054688 606.417969 C 500.671875 605.839844 500.34375 605.230469 500.078125 604.589844 C 499.8125 603.949219 499.613281 603.285156 499.476562 602.605469 C 499.339844 601.925781 499.273438 601.238281 499.273438 600.542969 C 499.273438 599.847656 499.339844 599.160156 499.476562 598.480469 C 499.613281 597.796875 499.8125 597.136719 500.078125 596.496094 C 500.34375 595.855469 500.671875 595.246094 501.054688 594.667969 C 501.441406 594.089844 501.878906 593.554688 502.371094 593.066406 C 502.863281 592.574219 503.394531 592.136719 503.972656 591.75 C 504.550781 591.363281 505.160156 591.039062 505.800781 590.773438 C 506.445312 590.507812 507.105469 590.304688 507.785156 590.171875 C 508.46875 590.035156 509.15625 589.96875 509.847656 589.96875 C 510.542969 589.96875 511.230469 590.035156 511.914062 590.171875 C 512.59375 590.304688 513.253906 590.507812 513.894531 590.773438 C 514.539062 591.039062 515.148438 591.363281 515.726562 591.75 C 516.300781 592.136719 516.835938 592.574219 517.328125 593.066406 C 517.816406 593.554688 518.257812 594.089844 518.640625 594.667969 C 519.027344 595.246094 519.355469 595.855469 519.621094 596.496094 C 519.886719 597.136719 520.085938 597.796875 520.222656 598.480469 C 520.355469 599.160156 520.425781 599.847656 520.425781 600.542969 Z M 520.425781 600.542969 " fill-opacity="1" fill-rule="nonzero"/><path fill="#001527" d="M 593.3125 410.734375 C 593.316406 410.496094 593.234375 410.289062 593.070312 410.121094 C 592.902344 409.949219 592.699219 409.863281 592.464844 409.859375 C 592.226562 409.859375 592.019531 409.941406 591.851562 410.105469 C 591.679688 410.273438 591.597656 410.476562 591.59375 410.714844 C 591.59375 410.953125 591.675781 411.15625 591.84375 411.324219 C 592.011719 411.492188 592.214844 411.578125 592.453125 411.578125 C 592.6875 411.578125 592.890625 411.496094 593.054688 411.332031 C 593.222656 411.167969 593.308594 410.96875 593.3125 410.734375 Z M 593.3125 410.734375 " fill-opacity="1" fill-rule="nonzero"/></svg>