<svg xmlns="http://www.w3.org/2000/svg" xmlns:xlink="http://www.w3.org/1999/xlink" width="1080" zoomAndPan="magnify" viewBox="0 0 810 809.999993" height="1080" preserveAspectRatio="xMidYMid meet" version="1.0"><defs><clipPath id="75af5b138c"><path d="M 82.972656 271 L 728 271 L 728 539 L 82.972656 539 Z M 82.972656 271 " clip-rule="nonzero"/></clipPath></defs><g clip-path="url(#75af5b138c)"><path fill="#001527" d="M 724.277344 408.605469 C 719.011719 408.746094 714.011719 410.789062 708.769531 409.976562 C 708.660156 409.617188 708.566406 408.949219 708.511719 408.605469 C 713.035156 406.550781 718.042969 405.273438 722.171875 402.320312 C 724.378906 400.171875 727.550781 397.625 726.066406 394.105469 C 724.421875 386.851562 717.789062 382.363281 712.070312 378.4375 C 705.230469 373.632812 697.535156 370.46875 690.238281 366.648438 C 682.222656 363.226562 671.414062 350.644531 562.480469 330.054688 C 522.3125 322.359375 481.628906 318.859375 479.933594 317.582031 C 442.394531 318.277344 404.535156 275.546875 393 272.132812 C 391.214844 270.949219 389.890625 275.589844 389.011719 275.589844 L 389.027344 275.589844 C 387.941406 282.382812 384.855469 333.058594 391.078125 334.945312 C 384.082031 337.039062 376.753906 336.789062 369.640625 338.324219 C 357.957031 340.5625 298.644531 358.464844 268.265625 365.441406 C 257.5 367.4375 246.460938 367.035156 235.558594 367.085938 C 225.035156 366.886719 214.683594 364.558594 204.574219 361.914062 C 192.230469 358.394531 92.910156 316.84375 92.238281 320.253906 C 92.496094 347.867188 107.203125 366.574219 117.710938 391.117188 C 118.066406 394.691406 119.539062 398.148438 119.042969 401.824219 C 113.214844 420.796875 91.117188 437.203125 85.667969 456.835938 C 85.710938 460.609375 84.082031 463.972656 82.695312 467.390625 C 87.246094 467.691406 91.789062 467.953125 96.367188 467.847656 C 106.328125 466.675781 164.671875 451.976562 173.648438 449.878906 C 182.421875 447.847656 190.636719 444.105469 199.304688 441.972656 C 204.230469 440.796875 208.65625 438.25 213.597656 437.425781 C 223.398438 436.148438 233.304688 434.933594 243.207031 435.898438 C 250.109375 436.605469 256.976562 437.277344 263.785156 438.75 C 268.925781 439.878906 306.988281 447.078125 329.785156 454.871094 C 344.777344 456.046875 401.640625 479.222656 407.007812 480.351562 C 398.253906 494.609375 399.214844 502.441406 396.953125 519.382812 C 395.488281 525.355469 395.230469 532.210938 399.394531 537.140625 C 401.28125 538.933594 404.359375 539.023438 406.484375 537.609375 C 437.222656 504.921875 471.71875 492.335938 473.191406 487.695312 C 491.914062 489.929688 510.757812 487.992188 529.535156 488.097656 C 632.835938 487.007812 704.511719 432.167969 711.097656 428.542969 C 716.617188 425.734375 722.5 422.617188 725.8125 417.164062 C 728.460938 414.765625 727.546875 409.878906 724.277344 408.605469 Z M 661.769531 405.351562 C 655.683594 405.351562 650.757812 400.410156 650.757812 394.324219 C 650.757812 388.238281 655.683594 383.300781 661.769531 383.300781 C 667.863281 383.300781 672.800781 388.238281 672.800781 394.324219 C 672.808594 400.410156 667.867188 405.351562 661.769531 405.351562 Z M 661.769531 405.351562 " fill-opacity="1" fill-rule="nonzero"/></g></svg>