<svg xmlns="http://www.w3.org/2000/svg" xmlns:xlink="http://www.w3.org/1999/xlink" width="1080" zoomAndPan="magnify" viewBox="0 0 810 809.999993" height="1080" preserveAspectRatio="xMidYMid meet" version="1.0"><defs><clipPath id="51b14e7635"><path d="M 100 366 L 710 366 L 710 642.339844 L 100 642.339844 Z M 100 366 " clip-rule="nonzero"/></clipPath><clipPath id="45bd4ffb25"><path d="M 310 49.089844 L 413 49.089844 L 413 349 L 310 349 Z M 310 49.089844 " clip-rule="nonzero"/></clipPath><clipPath id="695ba096a6"><path d="M 100 366 L 710 366 L 710 642.339844 L 100 642.339844 Z M 100 366 " clip-rule="nonzero"/></clipPath><clipPath id="aa15b8d2a5"><path d="M 310 49.089844 L 413 49.089844 L 413 349 L 310 349 Z M 310 49.089844 " clip-rule="nonzero"/></clipPath></defs><g clip-path="url(#51b14e7635)"><path fill="#001527" d="M 708.605469 415.144531 C 706.0625 405.726562 696.503906 399.675781 686.796875 401.5 C 673.011719 404.1875 659.222656 406.980469 645.398438 409.667969 C 639.0625 410.917969 632.722656 412.066406 626.238281 413.320312 L 626.238281 401.359375 L 629.210938 401.359375 C 638.917969 401.359375 646.796875 393.480469 646.796875 383.773438 C 646.796875 374.070312 638.917969 366.191406 629.210938 366.191406 L 180.457031 366.191406 C 170.75 366.191406 162.871094 374.070312 162.871094 383.773438 C 162.871094 393.480469 170.75 401.359375 180.457031 401.359375 L 183.285156 401.359375 L 183.285156 413.320312 C 182.710938 413.175781 181.886719 413.03125 181.316406 413.03125 C 161.90625 409.09375 142.316406 405.296875 122.761719 401.5 C 113.058594 399.675781 103.605469 405.582031 101.097656 415.289062 C 98.554688 424.5625 103.785156 434.449219 113.058594 437.671875 C 114.597656 438.246094 116.28125 438.78125 117.855469 439.496094 C 139.238281 448.773438 160.367188 458.082031 181.78125 467.214844 C 182.640625 467.644531 182.890625 468.074219 183.320312 468.46875 L 183.320312 571.929688 C 183.320312 610.785156 214.835938 642.300781 253.691406 642.300781 L 555.90625 642.300781 C 594.761719 642.300781 626.277344 610.785156 626.277344 571.929688 L 626.277344 468.46875 C 626.417969 468.324219 626.417969 468.183594 626.5625 468.183594 C 649.660156 457.90625 673.011719 447.625 696.394531 437.921875 C 705.632812 434.019531 711.113281 424.707031 708.605469 415.144531 Z M 708.605469 415.144531 " fill-opacity="1" fill-rule="nonzero"/></g><g clip-path="url(#45bd4ffb25)"><path fill="#001527" d="M 346.621094 202.816406 C 356.113281 214.132812 365.851562 225.378906 373.730469 237.769531 C 389.8125 263.054688 389.777344 289.195312 373.121094 314.265625 C 365.101562 326.332031 355.21875 337.183594 346.300781 348.429688 C 357.402344 345.242188 368.109375 339.617188 377.742188 332.132812 C 405.820312 310.359375 418.28125 282.25 410.652344 246.832031 C 405.925781 224.878906 393.605469 206.863281 379.28125 189.925781 C 367.964844 176.53125 356.292969 163.140625 347.015625 148.347656 C 329.289062 120.128906 330.902344 91.621094 350.347656 64.371094 C 353.929688 59.355469 357.976562 54.628906 362.09375 49.363281 C 361.054688 49.617188 360.515625 49.6875 360.015625 49.902344 C 324.3125 64.011719 304.542969 101.363281 312.601562 139.214844 C 317.828125 163.710938 330.792969 183.945312 346.621094 202.816406 Z M 346.621094 202.816406 " fill-opacity="1" fill-rule="nonzero"/></g><path fill="#001527" d="M 444.496094 219.613281 C 449.652344 225.808594 455.203125 231.683594 459.894531 238.199219 C 475.328125 259.578125 475.652344 276.660156 461.113281 298.828125 C 457.246094 304.703125 452.769531 310.179688 448.078125 316.484375 C 451.050781 315.769531 453.449219 315.375 455.703125 314.65625 C 486.898438 304.703125 504.121094 276.160156 497.355469 245.21875 C 493.953125 229.640625 485.429688 216.785156 475.113281 204.859375 C 467.558594 196.085938 459.929688 187.238281 453.554688 177.605469 C 442.5625 161.027344 442.3125 143.550781 452.375 126.21875 C 454.703125 122.171875 457.316406 118.265625 460.039062 113.898438 C 435.542969 119.125 418.066406 145.554688 421.539062 171.125 C 424.082031 189.78125 432.679688 205.398438 444.496094 219.613281 Z M 444.496094 219.613281 " fill-opacity="1" fill-rule="nonzero"/><g clip-path="url(#695ba096a6)"><path fill="#001527" d="M 708.605469 415.144531 C 706.0625 405.726562 696.503906 399.675781 686.796875 401.5 C 673.011719 404.1875 659.222656 406.980469 645.398438 409.667969 C 639.0625 410.917969 632.722656 412.066406 626.238281 413.320312 L 626.238281 401.359375 L 629.210938 401.359375 C 638.917969 401.359375 646.796875 393.480469 646.796875 383.773438 C 646.796875 374.070312 638.917969 366.191406 629.210938 366.191406 L 180.457031 366.191406 C 170.75 366.191406 162.871094 374.070312 162.871094 383.773438 C 162.871094 393.480469 170.75 401.359375 180.457031 401.359375 L 183.285156 401.359375 L 183.285156 413.320312 C 182.710938 413.175781 181.886719 413.03125 181.316406 413.03125 C 161.90625 409.09375 142.316406 405.296875 122.761719 401.5 C 113.058594 399.675781 103.605469 405.582031 101.097656 415.289062 C 98.554688 424.5625 103.785156 434.449219 113.058594 437.671875 C 114.597656 438.246094 116.28125 438.78125 117.855469 439.496094 C 139.238281 448.773438 160.367188 458.082031 181.78125 467.214844 C 182.640625 467.644531 182.890625 468.074219 183.320312 468.46875 L 183.320312 571.929688 C 183.320312 610.785156 214.835938 642.300781 253.691406 642.300781 L 555.90625 642.300781 C 594.761719 642.300781 626.277344 610.785156 626.277344 571.929688 L 626.277344 468.46875 C 626.417969 468.324219 626.417969 468.183594 626.5625 468.183594 C 649.660156 457.90625 673.011719 447.625 696.394531 437.921875 C 705.632812 434.019531 711.113281 424.707031 708.605469 415.144531 Z M 708.605469 415.144531 " fill-opacity="1" fill-rule="nonzero"/></g><g clip-path="url(#aa15b8d2a5)"><path fill="#001527" d="M 346.621094 202.816406 C 356.113281 214.132812 365.851562 225.378906 373.730469 237.769531 C 389.8125 263.054688 389.777344 289.195312 373.121094 314.265625 C 365.101562 326.332031 355.21875 337.183594 346.300781 348.429688 C 357.402344 345.242188 368.109375 339.617188 377.742188 332.132812 C 405.820312 310.359375 418.28125 282.25 410.652344 246.832031 C 405.925781 224.878906 393.605469 206.863281 379.28125 189.925781 C 367.964844 176.53125 356.292969 163.140625 347.015625 148.347656 C 329.289062 120.128906 330.902344 91.621094 350.347656 64.371094 C 353.929688 59.355469 357.976562 54.628906 362.09375 49.363281 C 361.054688 49.617188 360.515625 49.6875 360.015625 49.902344 C 324.3125 64.011719 304.542969 101.363281 312.601562 139.214844 C 317.828125 163.710938 330.792969 183.945312 346.621094 202.816406 Z M 346.621094 202.816406 " fill-opacity="1" fill-rule="nonzero"/></g><path fill="#001527" d="M 444.496094 219.613281 C 449.652344 225.808594 455.203125 231.683594 459.894531 238.199219 C 475.328125 259.578125 475.652344 276.660156 461.113281 298.828125 C 457.246094 304.703125 452.769531 310.179688 448.078125 316.484375 C 451.050781 315.769531 453.449219 315.375 455.703125 314.65625 C 486.898438 304.703125 504.121094 276.160156 497.355469 245.21875 C 493.953125 229.640625 485.429688 216.785156 475.113281 204.859375 C 467.558594 196.085938 459.929688 187.238281 453.554688 177.605469 C 442.5625 161.027344 442.3125 143.550781 452.375 126.21875 C 454.703125 122.171875 457.316406 118.265625 460.039062 113.898438 C 435.542969 119.125 418.066406 145.554688 421.539062 171.125 C 424.082031 189.78125 432.679688 205.398438 444.496094 219.613281 Z M 444.496094 219.613281 " fill-opacity="1" fill-rule="nonzero"/></svg>