<svg xmlns="http://www.w3.org/2000/svg" xmlns:xlink="http://www.w3.org/1999/xlink" width="1080" zoomAndPan="magnify" viewBox="0 0 810 809.999993" height="1080" preserveAspectRatio="xMidYMid meet" version="1.0"><defs><clipPath id="255984cee1"><path d="M 94 191.003906 L 750 191.003906 L 750 619 L 94 619 Z M 94 191.003906 " clip-rule="nonzero"/></clipPath><clipPath id="d485541efc"><path d="M 94 191.003906 L 750 191.003906 L 750 619 L 94 619 Z M 94 191.003906 " clip-rule="nonzero"/></clipPath></defs><g clip-path="url(#255984cee1)"><path fill="#001527" d="M 619.75 419.332031 C 619.511719 419.9375 618.78125 421.808594 617.964844 423.894531 C 616.59375 423.382812 615.4375 422.953125 614.597656 422.636719 C 611.175781 427.382812 608.023438 432.226562 604.34375 436.628906 C 602.671875 438.628906 599.878906 439.664062 597.71875 441.300781 C 596.363281 442.324219 594.8125 443.433594 594.082031 444.875 C 586.058594 460.722656 571.117188 470.6875 553.546875 472.4375 C 545.414062 473.25 541.824219 476.765625 540.484375 485 C 539.183594 493.027344 538.640625 501.175781 537.800781 509.269531 C 536.332031 523.445312 534.734375 537.613281 533.539062 551.816406 C 533.25 555.257812 533.9375 558.914062 534.820312 562.304688 C 539.257812 579.351562 545.191406 595.835938 554.136719 611.113281 C 554.746094 612.15625 555.109375 613.339844 555.597656 614.476562 C 549.554688 616.777344 544.445312 616.835938 533.242188 614.746094 C 533.003906 616.03125 532.761719 617.316406 532.464844 618.90625 C 521.667969 618.90625 510.824219 618.90625 499.902344 618.90625 C 497.160156 613.136719 494.59375 607.738281 491.871094 602.003906 C 489.8125 603.601562 488.519531 604.605469 486.882812 605.871094 C 483.570312 601.941406 482.496094 597.578125 482.167969 593.035156 C 481.714844 586.6875 481.363281 580.324219 481.292969 573.964844 C 481.199219 566.015625 478.65625 559.082031 473.914062 552.746094 C 460.394531 534.65625 450.417969 514.664062 442.800781 493.484375 C 440.828125 488 439.628906 482.234375 438.054688 476.609375 C 437.671875 475.242188 437.207031 473.894531 436.363281 471.203125 C 431.105469 481.296875 435.574219 489.109375 438.128906 497.46875 C 432.824219 500.730469 426.695312 501.0625 420.828125 501.945312 C 390.871094 506.441406 360.945312 506.597656 331.328125 499.59375 C 307.816406 494.039062 286.550781 483.152344 265.90625 470.882812 C 258.277344 466.347656 250.445312 462.015625 242.300781 458.535156 C 228.964844 452.828125 216.554688 454.710938 205.476562 464.636719 C 193.527344 475.339844 181.28125 485.707031 169.214844 496.277344 C 163.472656 501.3125 158.003906 506.667969 152.132812 511.550781 C 141.339844 520.527344 135.914062 532.25 134.089844 545.832031 C 133.210938 552.378906 132.910156 559.011719 132.277344 565.59375 C 130.929688 579.703125 134.058594 592.882812 140.25 605.496094 C 141.996094 609.054688 143.316406 612.820312 145.253906 617.519531 C 132.125 616.90625 120.238281 616.351562 107.867188 615.773438 C 107.179688 613.003906 106.730469 610.261719 105.808594 607.6875 C 104.382812 603.703125 104.863281 598.324219 98.886719 597.351562 C 97.359375 593.363281 94.738281 589.421875 94.574219 585.382812 C 94.367188 580.214844 95.242188 574.59375 97.230469 569.828125 C 102.371094 557.503906 103.195312 545.273438 99.304688 532.550781 C 95.5 520.101562 98.007812 507.816406 100.859375 495.617188 C 102.015625 490.671875 103.246094 485.683594 105.066406 480.957031 C 110.640625 466.480469 110.921875 451.550781 108.902344 436.53125 C 105.449219 410.8125 101.136719 385.199219 98.046875 359.4375 C 96.324219 345.082031 95.5 330.503906 95.792969 316.054688 C 96.152344 298.339844 103.710938 283.691406 118.445312 273.121094 C 127.957031 266.296875 137.324219 259.261719 146.710938 252.261719 C 166.152344 237.765625 188.398438 230.496094 211.984375 226.261719 C 248.789062 219.65625 284.976562 224.023438 321.019531 231.679688 C 346.863281 237.171875 372.566406 243.347656 398.492188 248.386719 C 420.09375 252.582031 441.964844 252.785156 463.84375 249.828125 C 487.527344 246.628906 511.214844 243.386719 534.964844 240.707031 C 544.722656 239.605469 554.6875 239.101562 564.460938 241.800781 C 564.167969 250.992188 563.710938 259.828125 563.65625 268.660156 C 563.601562 277.277344 564.449219 285.949219 560.675781 294.246094 C 566.339844 291.140625 568.601562 286.035156 569.5 280.265625 C 569.964844 277.277344 569.78125 274.175781 569.78125 271.125 C 569.785156 266.289062 569.476562 261.441406 569.695312 256.617188 C 570.269531 244.074219 573.996094 232.679688 582.246094 222.925781 C 591.839844 211.582031 602.785156 201.734375 614.816406 193.070312 C 615.8125 192.355469 617.003906 191.917969 618.640625 191.078125 C 623.292969 206.644531 629.40625 221.480469 626.464844 237.984375 C 637.046875 236.238281 657.832031 218.175781 665.652344 204.160156 C 673.398438 219.683594 669.300781 250.441406 658.039062 261.914062 C 647.871094 254.875 637.710938 247.84375 626.578125 240.136719 C 625.292969 243.664062 624.484375 245.886719 623.5625 248.421875 C 625.71875 249.519531 627.496094 250.417969 629.265625 251.328125 C 646.050781 259.925781 660.675781 271.101562 671.613281 286.703125 C 677.335938 294.867188 683.53125 302.601562 691.828125 308.367188 C 698.164062 312.777344 704.925781 315.992188 712.722656 317.117188 C 716.21875 317.621094 719.707031 317.785156 722.996094 320.789062 C 725.941406 323.476562 730.75 321.84375 734.210938 319.058594 C 736.589844 317.148438 738.828125 315 741.425781 313.441406 C 745.210938 311.167969 748.449219 312.734375 749.371094 317.066406 C 749.679688 318.527344 749.753906 320.164062 749.441406 321.609375 C 747.132812 332.292969 745.019531 343.035156 742.203125 353.582031 C 740.308594 360.667969 738.472656 362.679688 733.515625 367.105469 C 729.851562 365.324219 726.011719 363.457031 721.429688 361.234375 C 721.746094 362.875 721.949219 363.910156 722.152344 364.945312 C 723.933594 374.113281 721.148438 379.710938 712.058594 382.371094 C 704.8125 384.488281 697.214844 385.773438 689.683594 386.445312 C 683.457031 387.003906 678.378906 388.902344 674.523438 393.765625 C 666.910156 403.355469 657.046875 408.164062 644.785156 408.457031 C 642.421875 408.511719 640.019531 409.816406 637.765625 410.832031 C 632.261719 413.320312 626.832031 415.976562 619.75 419.332031 Z M 520.335938 589.515625 C 519.191406 584.597656 518.085938 579.671875 516.898438 574.761719 C 513.503906 560.765625 512.519531 546.804688 515.613281 532.511719 C 519 516.871094 521.589844 501.054688 524.5 485.308594 C 525.929688 477.578125 526.074219 469.828125 524.699219 461.933594 C 523.417969 464.390625 522.5 466.933594 522.050781 469.558594 C 519.957031 481.835938 517.832031 494.109375 516.035156 506.433594 C 514.125 519.507812 512.039062 532.585938 511.003906 545.742188 C 509.777344 561.21875 514.234375 575.847656 520.335938 589.515625 Z M 520.335938 589.515625 " fill-opacity="1" fill-rule="nonzero"/></g><path fill="#001527" d="M 204.898438 615.0625 C 202.226562 609.445312 200.070312 604.867188 197.867188 600.3125 C 197.542969 599.636719 197.015625 599.058594 196.253906 597.960938 C 195.1875 600.0625 194.457031 601.511719 193.402344 603.582031 C 188.097656 600.945312 185.453125 596.59375 184.425781 591.261719 C 183.5625 586.785156 183.175781 582.199219 182.8125 577.644531 C 182.105469 568.871094 179.246094 561.328125 171.527344 556.246094 C 166.3125 552.8125 163.585938 547.816406 162.902344 541.65625 C 161.945312 533.085938 160.996094 524.507812 160.039062 515.867188 C 161.910156 514.183594 163.597656 512.675781 165.273438 511.15625 C 177.332031 500.25 189.339844 489.292969 201.46875 478.460938 C 205.625 474.75 209.828125 471 214.441406 467.914062 C 222.847656 462.28125 231.890625 461.996094 242.085938 466.332031 C 235.335938 477.929688 228.773438 489.28125 222.113281 500.574219 C 220.4375 503.414062 218.390625 506.03125 216.566406 508.789062 C 210.964844 517.246094 209.023438 526.5 210.988281 536.449219 C 215.636719 559.992188 221.230469 583.144531 236.839844 602.460938 C 239.644531 605.933594 241.308594 610.328125 243.195312 613.75 C 242.867188 614.847656 242.832031 615.117188 242.710938 615.328125 C 242.597656 615.523438 242.386719 615.800781 242.222656 615.800781 C 229.804688 615.570312 217.398438 615.316406 204.898438 615.0625 Z M 204.898438 615.0625 " fill-opacity="1" fill-rule="nonzero"/><path fill="#001527" d="M 97.621094 285.292969 C 96.652344 286.507812 95.746094 287.636719 94.476562 289.226562 C 86.242188 283.554688 81.386719 276.296875 81.1875 266.460938 C 81.015625 258.226562 85.734375 252.738281 93.746094 250.539062 C 100.972656 248.550781 107.855469 250.171875 114.6875 252.152344 C 118.515625 253.265625 122.195312 254.90625 127.550781 256.914062 C 122.136719 261.070312 117.890625 264.328125 113.667969 267.570312 C 111.28125 265.945312 109.566406 264.179688 107.488281 263.488281 C 103.96875 262.320312 100.222656 261.207031 96.570312 261.214844 C 92.019531 261.222656 89.371094 263.988281 89.640625 268.53125 C 89.855469 272.148438 91.230469 275.824219 92.726562 279.195312 C 93.710938 281.414062 95.824219 283.128906 97.621094 285.292969 Z M 97.621094 285.292969 " fill-opacity="1" fill-rule="nonzero"/><g clip-path="url(#d485541efc)"><path fill="#001527" d="M 619.75 419.332031 C 619.511719 419.9375 618.78125 421.808594 617.964844 423.894531 C 616.59375 423.382812 615.4375 422.953125 614.597656 422.636719 C 611.175781 427.382812 608.023438 432.226562 604.34375 436.628906 C 602.671875 438.628906 599.878906 439.664062 597.71875 441.300781 C 596.363281 442.324219 594.8125 443.433594 594.082031 444.875 C 586.058594 460.722656 571.117188 470.6875 553.546875 472.4375 C 545.414062 473.25 541.824219 476.765625 540.484375 485 C 539.183594 493.027344 538.640625 501.175781 537.800781 509.269531 C 536.332031 523.445312 534.734375 537.613281 533.539062 551.816406 C 533.25 555.257812 533.9375 558.914062 534.820312 562.304688 C 539.257812 579.351562 545.191406 595.835938 554.136719 611.113281 C 554.746094 612.15625 555.109375 613.339844 555.597656 614.476562 C 549.554688 616.777344 544.445312 616.835938 533.242188 614.746094 C 533.003906 616.03125 532.761719 617.316406 532.464844 618.90625 C 521.667969 618.90625 510.824219 618.90625 499.902344 618.90625 C 497.160156 613.136719 494.59375 607.738281 491.871094 602.003906 C 489.8125 603.601562 488.519531 604.605469 486.882812 605.871094 C 483.570312 601.941406 482.496094 597.578125 482.167969 593.035156 C 481.714844 586.6875 481.363281 580.324219 481.292969 573.964844 C 481.199219 566.015625 478.65625 559.082031 473.914062 552.746094 C 460.394531 534.65625 450.417969 514.664062 442.800781 493.484375 C 440.828125 488 439.628906 482.234375 438.054688 476.609375 C 437.671875 475.242188 437.207031 473.894531 436.363281 471.203125 C 431.105469 481.296875 435.574219 489.109375 438.128906 497.46875 C 432.824219 500.730469 426.695312 501.0625 420.828125 501.945312 C 390.871094 506.441406 360.945312 506.597656 331.328125 499.59375 C 307.816406 494.039062 286.550781 483.152344 265.90625 470.882812 C 258.277344 466.347656 250.445312 462.015625 242.300781 458.535156 C 228.964844 452.828125 216.554688 454.710938 205.476562 464.636719 C 193.527344 475.339844 181.28125 485.707031 169.214844 496.277344 C 163.472656 501.3125 158.003906 506.667969 152.132812 511.550781 C 141.339844 520.527344 135.914062 532.25 134.089844 545.832031 C 133.210938 552.378906 132.910156 559.011719 132.277344 565.59375 C 130.929688 579.703125 134.058594 592.882812 140.25 605.496094 C 141.996094 609.054688 143.316406 612.820312 145.253906 617.519531 C 132.125 616.90625 120.238281 616.351562 107.867188 615.773438 C 107.179688 613.003906 106.730469 610.261719 105.808594 607.6875 C 104.382812 603.703125 104.863281 598.324219 98.886719 597.351562 C 97.359375 593.363281 94.738281 589.421875 94.574219 585.382812 C 94.367188 580.214844 95.242188 574.59375 97.230469 569.828125 C 102.371094 557.503906 103.195312 545.273438 99.304688 532.550781 C 95.5 520.101562 98.007812 507.816406 100.859375 495.617188 C 102.015625 490.671875 103.246094 485.683594 105.066406 480.957031 C 110.640625 466.480469 110.921875 451.550781 108.902344 436.53125 C 105.449219 410.8125 101.136719 385.199219 98.046875 359.4375 C 96.324219 345.082031 95.5 330.503906 95.792969 316.054688 C 96.152344 298.339844 103.710938 283.691406 118.445312 273.121094 C 127.957031 266.296875 137.324219 259.261719 146.710938 252.261719 C 166.152344 237.765625 188.398438 230.496094 211.984375 226.261719 C 248.789062 219.65625 284.976562 224.023438 321.019531 231.679688 C 346.863281 237.171875 372.566406 243.347656 398.492188 248.386719 C 420.09375 252.582031 441.964844 252.785156 463.84375 249.828125 C 487.527344 246.628906 511.214844 243.386719 534.964844 240.707031 C 544.722656 239.605469 554.6875 239.101562 564.460938 241.800781 C 564.167969 250.992188 563.710938 259.828125 563.65625 268.660156 C 563.601562 277.277344 564.449219 285.949219 560.675781 294.246094 C 566.339844 291.140625 568.601562 286.035156 569.5 280.265625 C 569.964844 277.277344 569.78125 274.175781 569.78125 271.125 C 569.785156 266.289062 569.476562 261.441406 569.695312 256.617188 C 570.269531 244.074219 573.996094 232.679688 582.246094 222.925781 C 591.839844 211.582031 602.785156 201.734375 614.816406 193.070312 C 615.8125 192.355469 617.003906 191.917969 618.640625 191.078125 C 623.292969 206.644531 629.40625 221.480469 626.464844 237.984375 C 637.046875 236.238281 657.832031 218.175781 665.652344 204.160156 C 673.398438 219.683594 669.300781 250.441406 658.039062 261.914062 C 647.871094 254.875 637.710938 247.84375 626.578125 240.136719 C 625.292969 243.664062 624.484375 245.886719 623.5625 248.421875 C 625.71875 249.519531 627.496094 250.417969 629.265625 251.328125 C 646.050781 259.925781 660.675781 271.101562 671.613281 286.703125 C 677.335938 294.867188 683.53125 302.601562 691.828125 308.367188 C 698.164062 312.777344 704.925781 315.992188 712.722656 317.117188 C 716.21875 317.621094 719.707031 317.785156 722.996094 320.789062 C 725.941406 323.476562 730.75 321.84375 734.210938 319.058594 C 736.589844 317.148438 738.828125 315 741.425781 313.441406 C 745.210938 311.167969 748.449219 312.734375 749.371094 317.066406 C 749.679688 318.527344 749.753906 320.164062 749.441406 321.609375 C 747.132812 332.292969 745.019531 343.035156 742.203125 353.582031 C 740.308594 360.667969 738.472656 362.679688 733.515625 367.105469 C 729.851562 365.324219 726.011719 363.457031 721.429688 361.234375 C 721.746094 362.875 721.949219 363.910156 722.152344 364.945312 C 723.933594 374.113281 721.148438 379.710938 712.058594 382.371094 C 704.8125 384.488281 697.214844 385.773438 689.683594 386.445312 C 683.457031 387.003906 678.378906 388.902344 674.523438 393.765625 C 666.910156 403.355469 657.046875 408.164062 644.785156 408.457031 C 642.421875 408.511719 640.019531 409.816406 637.765625 410.832031 C 632.261719 413.320312 626.832031 415.976562 619.75 419.332031 Z M 520.335938 589.515625 C 519.191406 584.597656 518.085938 579.671875 516.898438 574.761719 C 513.503906 560.765625 512.519531 546.804688 515.613281 532.511719 C 519 516.871094 521.589844 501.054688 524.5 485.308594 C 525.929688 477.578125 526.074219 469.828125 524.699219 461.933594 C 523.417969 464.390625 522.5 466.933594 522.050781 469.558594 C 519.957031 481.835938 517.832031 494.109375 516.035156 506.433594 C 514.125 519.507812 512.039062 532.585938 511.003906 545.742188 C 509.777344 561.21875 514.234375 575.847656 520.335938 589.515625 Z M 520.335938 589.515625 " fill-opacity="1" fill-rule="nonzero"/></g><path fill="#001527" d="M 204.898438 615.0625 C 202.226562 609.445312 200.070312 604.867188 197.867188 600.3125 C 197.542969 599.636719 197.015625 599.058594 196.253906 597.960938 C 195.1875 600.0625 194.457031 601.511719 193.402344 603.582031 C 188.097656 600.945312 185.453125 596.59375 184.425781 591.261719 C 183.5625 586.785156 183.175781 582.199219 182.8125 577.644531 C 182.105469 568.871094 179.246094 561.328125 171.527344 556.246094 C 166.3125 552.8125 163.585938 547.816406 162.902344 541.65625 C 161.945312 533.085938 160.996094 524.507812 160.039062 515.867188 C 161.910156 514.183594 163.597656 512.675781 165.273438 511.15625 C 177.332031 500.25 189.339844 489.292969 201.46875 478.460938 C 205.625 474.75 209.828125 471 214.441406 467.914062 C 222.847656 462.28125 231.890625 461.996094 242.085938 466.332031 C 235.335938 477.929688 228.773438 489.28125 222.113281 500.574219 C 220.4375 503.414062 218.390625 506.03125 216.566406 508.789062 C 210.964844 517.246094 209.023438 526.5 210.988281 536.449219 C 215.636719 559.992188 221.230469 583.144531 236.839844 602.460938 C 239.644531 605.933594 241.308594 610.328125 243.195312 613.75 C 242.867188 614.847656 242.832031 615.117188 242.710938 615.328125 C 242.597656 615.523438 242.386719 615.800781 242.222656 615.800781 C 229.804688 615.570312 217.398438 615.316406 204.898438 615.0625 Z M 204.898438 615.0625 " fill-opacity="1" fill-rule="nonzero"/><path fill="#001527" d="M 97.621094 285.292969 C 96.652344 286.507812 95.746094 287.636719 94.476562 289.226562 C 86.242188 283.554688 81.386719 276.296875 81.1875 266.460938 C 81.015625 258.226562 85.734375 252.738281 93.746094 250.539062 C 100.972656 248.550781 107.855469 250.171875 114.6875 252.152344 C 118.515625 253.265625 122.195312 254.90625 127.550781 256.914062 C 122.136719 261.070312 117.890625 264.328125 113.667969 267.570312 C 111.28125 265.945312 109.566406 264.179688 107.488281 263.488281 C 103.96875 262.320312 100.222656 261.207031 96.570312 261.214844 C 92.019531 261.222656 89.371094 263.988281 89.640625 268.53125 C 89.855469 272.148438 91.230469 275.824219 92.726562 279.195312 C 93.710938 281.414062 95.824219 283.128906 97.621094 285.292969 Z M 97.621094 285.292969 " fill-opacity="1" fill-rule="nonzero"/></svg>